<svg xmlns="http://www.w3.org/2000/svg" xmlns:xlink="http://www.w3.org/1999/xlink" viewBox="0 0 2884.67 1801.65"><defs><style>.cls-1{fill:#5d5553;}.cls-2{fill:url(#Gradiente_sem_nome_4);}.cls-3{fill:url(#Gradiente_sem_nome_4-2);}.cls-4{fill:url(#Gradiente_sem_nome_4-3);}.cls-5{fill:url(#Gradiente_sem_nome_4-4);}.cls-6{fill:#111413;}.cls-7{fill:#7a7a7a;}.cls-8{fill:#1e2120;}.cls-10,.cls-9{fill:#fff;}.cls-23,.cls-24,.cls-9{stroke:#000;stroke-miterlimit:10;}.cls-11{fill:#c4c0c1;}.cls-12{fill:#7b7b7b;}.cls-13{fill:#7e7e7e;}.cls-14{fill:#ece9e9;}.cls-15{fill:#777;}.cls-16{fill:#2c2e2d;}.cls-17{fill:#0f1110;}.cls-18{fill:#534741;}.cls-19{fill:#29abe2;}.cls-20{fill:#584f4e;}.cls-21{fill:#998675;}.cls-22{fill:#fbb03b;}.cls-23,.cls-26{fill:#513a2e;}.cls-24{fill:#442f26;}.cls-25{fill:#565553;}.cls-27{fill:#665553;}.cls-28{fill:url(#Gradiente_sem_nome_4-5);}</style><linearGradient id="Gradiente_sem_nome_4" x1="752.84" y1="799.09" x2="745.73" y2="2038.82" gradientUnits="userSpaceOnUse"><stop offset="0" stop-color="#47210e"/><stop offset="1" stop-color="#633107"/></linearGradient><linearGradient id="Gradiente_sem_nome_4-2" x1="4.04" y1="1501.44" x2="1.92" y2="1871.08" xlink:href="#Gradiente_sem_nome_4"/><linearGradient id="Gradiente_sem_nome_4-3" x1="2.7" y1="1161.62" x2="0.66" y2="1517.37" xlink:href="#Gradiente_sem_nome_4"/><linearGradient id="Gradiente_sem_nome_4-4" x1="2607.25" y1="799.28" x2="2600.15" y2="2038.43" gradientTransform="matrix(-1, 0, 0, 1, 4793, 0)" xlink:href="#Gradiente_sem_nome_4"/><linearGradient id="Gradiente_sem_nome_4-5" x1="1339.67" y1="648.09" x2="1830.67" y2="648.09" xlink:href="#Gradiente_sem_nome_4"/></defs><g id="Layer_2" data-name="Layer 2"><g id="Camada_1" data-name="Camada 1"><rect class="cls-1" x="4.67" y="1.65" width="2880" height="1111"/><path class="cls-2" d="M4.67,1801.65H1493.46v-1169s-973.79,125-1488.79,480"/><path class="cls-3" d="M0,1794.52a5.56,5.56,0,0,1,0,1.07v2.91c3,2.08,4.67,3.15,4.67,3.15Z"/><path class="cls-4" d="M1.46,1114.88c-.05.67-.09,1.33-.14,2,0,.26,0,.52-.05.77l3.4-5C3.59,1113.39,2.53,1114.14,1.46,1114.88Z"/><path class="cls-5" d="M2884.67,1788.73V953.52c-523.35-234.14-1199-320.87-1199-320.87H1493.46v1169H2883.83A49.87,49.87,0,0,1,2884.67,1788.73Z"/><polygon class="cls-6" points="738.79 1033.68 738.79 1240.45 783.35 1257.65 805.63 1242.41 805.63 1054.39 738.79 1033.68"/><polygon class="cls-6" points="1138.66 1052.44 1175.01 1064.17 1199.64 1052.44 1199.64 919.93 1138.66 948.08 1138.66 1052.44"/><polygon class="cls-6" points="551.17 930.49 551.17 1091.14 525.38 1100.52 491.37 1089.96 491.37 903.52 551.17 930.49"/><polygon class="cls-7" points="888.89 1077.46 1269.99 883.58 1269.99 828.86 1199.64 731.92 813.84 875.37 888.89 1021.17 888.89 1077.46"/><path class="cls-6" d="M422.48,705.29c-.86.83-1.61,5-2.27,11.41l10.65,14.92s160.65,12.52,142.28,45.25,16,49.65,16,49.65l220.45,53.31,385.8-148.21C578.11,621.06,449.14,679.48,422.48,705.29Z"/><path class="cls-6" d="M418.67,878.89l.7-170.21,14.54,19.72s145,13.33,142.28,43.8-9.74,41.91,25.42,50.26,211.06,49.4,211.06,49.4l75.05,145.79v56.29L609,1002s-44.95-3.52-48.47-66.84c0,0-76.22-39.87-141.88-56.29"/><polygon class="cls-8" points="738.79 861.37 821.2 830.63 1129.28 715.72 1199.64 735.44 813.84 878.89 738.79 861.37"/><polygon class="cls-6" points="789.22 743.26 821.2 830.63 854.12 818.35 821.67 743.26 813.84 735.44 789.22 743.26"/><path class="cls-9" d="M789.22,685.41l64.9,132.94,129.44-48.28L926.41,646.71S877.16,613.88,789.22,685.41Z"/><path class="cls-9" d="M1035.47,611.53c-112.57-11.72-109.06,35.18-109.06,35.18l57.15,123.36,105.07-41.3Z"/><polygon class="cls-8" points="888.89 1020 908.24 1011.99 908.24 1054.39 1255.92 878.89 1255.92 840.2 1269.99 828.86 1199.64 735.44 813.84 878.89 888.89 1020"/><polygon class="cls-10" points="872.34 986.64 1174.42 845.47 1240.09 868.92 1240.09 878.89 908.24 1042.93 908.24 1011.99 880.6 1004.41 872.34 986.64"/><polygon class="cls-11" points="1240.09 868.92 908.24 1033.2 908.24 1042.93 1240.09 878.89 1240.09 868.92"/><polygon class="cls-12" points="789.22 743.26 803.29 748.73 831.69 826.12 821.2 830.63 789.22 743.26"/><polygon class="cls-13" points="803.29 748.73 821.67 743.26 813.84 735.44 789.22 743.26 803.29 748.73"/><polygon class="cls-14" points="864.47 814.49 797.49 678.89 789.22 685.41 854.12 818.35 864.47 814.49"/><polygon class="cls-7" points="924.12 645.44 981.28 770.92 984.81 769.58 926.7 643.17 926.4 646.15 924.12 645.44"/><polygon class="cls-7" points="1255.92 840.2 1269.99 828.86 1199.64 735.44 813.84 878.89 888.89 1020 908.24 1011.99 839.34 885.93 1189.08 752.25 1255.92 840.2"/><polygon class="cls-6" points="1174.42 845.47 1158.29 786.94 854.12 912.97 889.9 978.44 1174.42 845.47"/><polygon class="cls-15" points="1158.29 786.94 1163.29 779.22 1155.51 770.07 842.48 891.69 849.59 904.69 854.12 912.97 1158.29 786.94"/><polygon class="cls-6" points="855.29 914.15 852.65 909.32 1159.46 788.12 855.29 914.15"/><polygon class="cls-16" points="783.35 1257.65 783.35 1047.49 805.63 1054.39 805.63 1242.41 783.35 1257.65"/><polygon class="cls-16" points="1175.01 1064.17 1174.42 932.2 1199.64 919.93 1199.64 1052.44 1175.01 1064.17"/><polygon class="cls-16" points="525.38 1100.52 525.38 918.85 551.17 930.49 551.17 1091.14 525.38 1100.52"/><path class="cls-7" d="M813.84,878.89,585.18,825s-22.11-11.13-8.71-41.91-103.16-47.6-103.16-47.6-63.44-4.41-50.83-30.15l-2.64,8.26v15.22s29.31,13.71,52.77,14.49S568.89,758.71,565.9,783s.52,43.08,19.28,50.12,228.66,56.55,228.66,56.55l10,3.95Z"/><polygon class="cls-6" points="915.01 1064.17 915.01 1085.66 945.18 1093.48 945.18 1048.82 915.01 1064.17"/><polygon class="cls-16" points="945.18 1093.48 1020.36 1047.49 1020.36 1010.58 945.18 1048.82 945.18 1093.48"/><polygon class="cls-7" points="915.01 1085.66 907.65 1089.96 946.35 1099.35 945.18 1093.48 915.01 1085.66"/><polygon class="cls-11" points="1020.36 1047.49 945.18 1093.48 946.35 1099.35 1027.26 1050.1 1020.36 1047.49"/><polygon class="cls-6" points="907.65 1089.96 908.24 1137 946.35 1148.6 946.35 1099.35 907.65 1089.96"/><polygon class="cls-16" points="946.35 1099.35 946.35 1148.6 1027.26 1099.35 1027.26 1050.1 946.35 1099.35"/><path class="cls-16" d="M956.9,1134.19l16.39-5.78s19.27,9.64,21.2,14.46,1,6.74,1,6.74l-16.38,3.86-10.6-1.93-6.75-6.74Z"/><path class="cls-17" d="M956.9,1134.19v7.46s7.71,21.46,29.88,17.6,7.71-16.38,7.71-16.38,4.81,7.71-13.5,8.67S956.9,1134.19,956.9,1134.19Z"/><path class="cls-16" d="M981.53,1119.56l16.38-5.78s19.27,9.63,21.2,14.45,1,6.75,1,6.75l-16.38,3.85-10.6-1.93-6.74-6.74Z"/><path class="cls-17" d="M981.53,1119.56V1127s7.71,21.45,29.87,17.59,7.71-16.38,7.71-16.38,4.82,7.71-13.49,8.67S981.53,1119.56,981.53,1119.56Z"/><path class="cls-16" d="M1007.33,1103.59l15.34-5.42s18.05,9,19.85,13.54.91,6.32.91,6.32l-15.35,3.61-9.92-1.81-6.32-6.31Z"/><path class="cls-17" d="M1007.33,1103.59v7s7.22,20.09,28,16.48,7.22-15.34,7.22-15.34,4.52,7.22-12.63,8.12S1007.33,1103.59,1007.33,1103.59Z"/><path class="cls-18" d="M1463.54,608.65c2.19-5.83,243.14,0,243.14,0V310.8s13.13-176.72-121.57-176.87S1463.54,310.8,1463.54,310.8Z"/><path class="cls-19" d="M1484.25,588.61c1.79-5.37,199.29,0,199.29,0V314.46s10.76-162.65-99.65-162.78-99.64,162.78-99.64,162.78Z"/><path class="cls-20" d="M172.18,184.68s-13.23,1.2-13.11,9.2l.45,29.62s.12,7.74,13.36,7.36,82.59-1.26,82.59-1.26l-.7-46.18Z"/><path class="cls-20" d="M254.68,183.51s13.26.8,13.38,8.8l.45,29.63s.12,7.74-13.13,7.75S172.79,231,172.79,231l-.7-46.18Z"/><path class="cls-20" d="M199.23,235.59s-13.23,1.21-13.1,9.21l.45,29.62s.12,7.74,13.36,7.35,82.59-1.25,82.59-1.25l-.71-46.18Z"/><path class="cls-20" d="M281.73,234.43s13.26.8,13.38,8.8l.46,29.62s.11,7.74-13.13,7.76-82.59,1.26-82.59,1.26l-.71-46.18Z"/><path class="cls-20" d="M294.45,183.14s-13.23,1.2-13.11,9.2l.45,29.63s.12,7.74,13.36,7.35,82.59-1.26,82.59-1.26l-.7-46.18Z"/><path class="cls-20" d="M377,182s13.26.79,13.38,8.79l.45,29.63s.12,7.74-13.13,7.76-82.59,1.26-82.59,1.26l-.71-46.19Z"/><path class="cls-20" d="M320.22,233.75S307,235,307.11,243l.45,29.63s.12,7.74,13.36,7.35,82.59-1.25,82.59-1.25l-.7-46.19Z"/><path class="cls-20" d="M402.72,232.59s13.26.8,13.38,8.8l.45,29.62s.12,7.74-13.13,7.76S320.83,280,320.83,280l-.7-46.18Z"/><path class="cls-20" d="M77.25,237.45s-13.23,1.2-13.11,9.2l.45,29.63S64.71,284,78,283.63s82.59-1.25,82.59-1.25l-.7-46.19Z"/><path class="cls-20" d="M159.75,236.29s13.26.8,13.38,8.8l.45,29.62s.12,7.74-13.13,7.76-82.59,1.26-82.59,1.26l-.7-46.18Z"/><polygon class="cls-18" points="1668.72 587.77 1668.72 212.04 1660.58 195.56 1660.58 589.65 1668.72 587.77"/><polygon class="cls-18" points="1649.1 179.61 1649.1 589.65 1637.93 589.65 1637.93 168.97 1649.1 179.61"/><polygon class="cls-18" points="1626.15 161.28 1626.15 589.88 1613.44 589.88 1613.44 152.94 1626.15 161.28"/><path class="cls-18" d="M1582.16,147.65l.65,233a8,8,0,0,1,.87-.05c8.16,0,8.15,12.67,0,12.67a7.58,7.58,0,0,1-.84-.05l.54,194.66,14.25-.17v-440Z"/><polygon class="cls-18" points="1499.93 586.01 1499.93 210.28 1508.07 193.8 1508.07 587.89 1499.93 586.01"/><polygon class="cls-18" points="1519.55 177.85 1519.55 587.89 1530.72 587.89 1530.72 167.21 1519.55 177.85"/><polygon class="cls-18" points="1542.5 160.78 1542.5 589.39 1555.21 589.39 1555.21 152.45 1542.5 160.78"/><path class="cls-18" d="M1583.68,393.24c-8.17,0-8.15-12.67,0-12.67a6.58,6.58,0,0,1,.9.06l.64-232.2h-15.47v440l14.26.17.54-195.45A8.1,8.1,0,0,1,1583.68,393.24Z"/><path class="cls-20" d="M2546.33,601.94s-13.82-.28-14.61,8l-2.95,30.7s-.77,8,13,9.15,85.57,8.22,85.57,8.22l4.6-47.85Z"/><path class="cls-20" d="M2631.81,610.25s13.62,2.35,12.82,10.64l-3,30.7s-.77,8-14.47,6.51-85.58-8.22-85.58-8.22l4.6-47.85Z"/><path class="cls-20" d="M2591.52,665.28s-13.28-.27-14,7.69l-2.84,29.5s-.74,7.7,12.47,8.79,82.22,7.9,82.22,7.9l4.42-46Z"/><path class="cls-20" d="M2673.65,673.27s13.09,2.26,12.32,10.22l-2.83,29.5s-.74,7.7-13.91,6.25-82.22-7.9-82.22-7.9l4.41-46Z"/><path class="cls-20" d="M2686,622.7s-13.28-.27-14,7.69l-2.84,29.49s-.74,7.71,12.46,8.79,82.23,7.91,82.23,7.91l4.41-46Z"/><path class="cls-20" d="M2768.08,630.68s13.09,2.27,12.33,10.23l-2.84,29.49s-.74,7.71-13.9,6.26-82.23-7.9-82.23-7.9l4.42-46Z"/><path class="cls-20" d="M2712,676.86s-13.28-.28-14,7.69L2695.09,714s-.74,7.71,12.46,8.79,82.22,7.9,82.22,7.9l4.42-46Z"/><path class="cls-20" d="M2794.09,684.84s13.09,2.26,12.33,10.23l-2.84,29.49s-.74,7.71-13.91,6.25-82.22-7.89-82.22-7.89l4.42-46Z"/><path class="cls-20" d="M2470.08,653.61s-13.28-.27-14,7.7l-2.84,29.49s-.74,7.7,12.47,8.79,82.22,7.9,82.22,7.9l4.42-46Z"/><path class="cls-20" d="M2552.21,661.6s13.08,2.26,12.32,10.22l-2.83,29.5s-.74,7.7-13.91,6.25-82.22-7.9-82.22-7.9l4.41-46Z"/><path class="cls-20" d="M1883.13,328.65s-11.31.27-11.67,7.07l-1.3,25.22s-.34,6.58,10.93,7,70.29,3.65,70.29,3.65l2-39.31Z"/><path class="cls-20" d="M1953.34,332.37s11.23,1.43,10.87,8.24l-1.3,25.22s-.35,6.58-11.61,5.84S1881,368,1881,368l2-39.3Z"/><path class="cls-20" d="M1903.23,373.48s-11.32.27-11.67,7.08l-1.31,25.21s-.34,6.59,10.94,7,70.29,3.65,70.29,3.65l2-39.3Z"/><path class="cls-20" d="M1973.43,377.2s11.23,1.44,10.88,8.25L1983,410.66s-.34,6.59-11.6,5.84-70.29-3.64-70.29-3.64l2-39.3Z"/><path class="cls-20" d="M1987.17,334.32s-11.32.27-11.67,7.07l-1.31,25.22s-.34,6.58,10.94,7,70.29,3.65,70.29,3.65l2-39.31Z"/><path class="cls-20" d="M2057.37,338s11.23,1.43,10.88,8.24l-1.31,25.22s-.34,6.58-11.6,5.84-70.29-3.64-70.29-3.64l2-39.3Z"/><path class="cls-20" d="M2006.19,378.82s-11.31.27-11.67,7.08l-1.3,25.21s-.34,6.59,10.94,7,70.28,3.65,70.28,3.65l2-39.3Z"/><path class="cls-20" d="M2076.4,382.54s11.23,1.44,10.87,8.24L2086,416s-.35,6.58-11.61,5.84-70.29-3.64-70.29-3.64l2-39.3Z"/><path class="cls-20" d="M1799.41,368.1s-11.31.27-11.66,7.08l-1.31,25.21s-.34,6.59,10.94,7,70.28,3.65,70.28,3.65l2-39.3Z"/><path class="cls-20" d="M1869.62,371.82s11.23,1.44,10.87,8.24l-1.3,25.22s-.34,6.58-11.61,5.84-70.29-3.64-70.29-3.64l2-39.3Z"/><path class="cls-20" d="M633,461.55s-12.71,1.49-12.39,9.15l1.2,28.37s.31,7.41,13,6.7,79.53-3.3,79.53-3.3l-1.86-44.23Z"/><path class="cls-20" d="M712.49,458.33s12.79.43,13.11,8.09l1.2,28.37s.31,7.41-12.45,7.77-79.53,3.31-79.53,3.31L633,461.65Z"/><path class="cls-20" d="M660.41,509.64s-12.71,1.49-12.39,9.15l1.2,28.37s.31,7.41,13,6.7,79.53-3.31,79.53-3.31l-1.86-44.22Z"/><path class="cls-20" d="M739.86,506.42s12.79.43,13.11,8.09l1.2,28.37s.31,7.41-12.45,7.76S662.19,554,662.19,554l-1.86-44.23Z"/><path class="cls-20" d="M750.79,457s-12.72,1.49-12.39,9.15l1.19,28.37s.31,7.41,13.06,6.7,79.53-3.31,79.53-3.31l-1.87-44.22Z"/><path class="cls-20" d="M830.23,453.74s12.79.43,13.12,8.09l1.19,28.37s.31,7.41-12.45,7.76-79.53,3.32-79.53,3.32l-1.86-44.23Z"/><path class="cls-20" d="M776.91,504.79s-12.71,1.49-12.39,9.15l1.2,28.37s.31,7.41,13,6.7,79.53-3.31,79.53-3.31l-1.86-44.22Z"/><path class="cls-20" d="M856.36,501.57s12.79.43,13.11,8.09l1.2,28.37s.31,7.41-12.45,7.76-79.53,3.32-79.53,3.32l-1.86-44.23Z"/><path class="cls-20" d="M543,514.53s-12.71,1.49-12.39,9.15l1.19,28.37s.32,7.41,13.06,6.7,79.53-3.31,79.53-3.31l-1.86-44.22Z"/><path class="cls-20" d="M622.39,511.31s12.8.43,13.12,8.09l1.19,28.37s.32,7.41-12.44,7.76-79.53,3.32-79.53,3.32l-1.86-44.23Z"/><path class="cls-20" d="M1184.33,311.2s-9.11,1.07-8.88,6.59l.86,20.45s.22,5.34,9.36,4.83,57-2.38,57-2.38l-1.33-31.88Z"/><path class="cls-20" d="M1241.28,308.88s9.17.3,9.4,5.83l.86,20.44s.22,5.35-8.93,5.6-57,2.39-57,2.39l-1.34-31.88Z"/><path class="cls-20" d="M1204,345.86s-9.11,1.07-8.88,6.59l.86,20.45s.22,5.35,9.36,4.84,57-2.39,57-2.39L1261,343.47Z"/><path class="cls-20" d="M1260.9,343.54s9.17.31,9.4,5.83l.86,20.45s.22,5.34-8.93,5.59-57,2.39-57,2.39l-1.33-31.87Z"/><path class="cls-20" d="M1268.73,307.89s-9.11,1.07-8.88,6.59l.86,20.45s.22,5.34,9.36,4.83,57-2.38,57-2.38l-1.34-31.88Z"/><path class="cls-20" d="M1325.68,305.57s9.17.3,9.4,5.83l.86,20.44s.22,5.35-8.93,5.6-57,2.39-57,2.39L1268.67,308Z"/><path class="cls-20" d="M1287.46,342.36s-9.11,1.08-8.88,6.6l.86,20.45s.22,5.34,9.36,4.83,57-2.39,57-2.39L1344.47,340Z"/><path class="cls-20" d="M1344.41,340s9.17.31,9.4,5.83l.86,20.45s.22,5.34-8.93,5.6-57,2.39-57,2.39l-1.33-31.88Z"/><path class="cls-20" d="M1119.75,349.39s-9.11,1.07-8.88,6.59l.86,20.45s.22,5.34,9.36,4.83,57-2.38,57-2.38L1176.76,347Z"/><path class="cls-20" d="M1176.7,347.07s9.17.3,9.4,5.82l.86,20.45s.22,5.35-8.93,5.6-57,2.39-57,2.39l-1.33-31.88Z"/><path class="cls-21" d="M1116.63,193.61c-4.25-.05-8.5,0-12.75,0-.14-2.74.15-5.5-.13-8.23-.91-2.07-3.31-3.51-4-5.53a8.42,8.42,0,0,0-2.7-12.73,9.09,9.09,0,0,0-9.72.88c-.77.85-1.67-.39-2.36-.7-15.17-10.35-34.78-12.55-52.44-8.5-5.72-5.38-13.06-10-21.25-9.44s-14.8,6.41-19.6,12.64a2,2,0,0,1-1.19-2.48c.21-24.07,0-48.15.11-72.22,1.88-2.63,4.24-4.92,6-7.63-3.26-4.11-6.64-8.12-9.89-12.24,1.9-11.74,9.86-24.37,22.49-26.33a65.34,65.34,0,0,0,13.18,4.16c1.55.13,2.14,2.19,3.82,2s.09,1.86.17,2.64c-.64,3.41-3.27,6.87-1.61,10.35,1.21,3.65,2.14,7.39,3.51,11,1.44-4.66,2.94-9.3,4.31-14-.79-3.13-1.93-6.2-2.8-9.33-.22-.8,1.06-.52,1.43-.83,2.77-.8,2.56-5.31-.2-5.94-2.4-.08-5.47-1-7.21,1.26-11.17-2.18-22.21-7.29-29.59-16.2-4.89-6.18-8.22-14-8.39-21.9A11,11,0,0,0,990,1.86h-.28A4.52,4.52,0,0,1,985.85.1H977a7.13,7.13,0,0,0,.45.67c1.1,1.94,3.33,2.62,5.13,3.68a38.08,38.08,0,0,1-12.28,25.79c-7.16,6.45-16.33,10.33-25.72,12.18-1.61-2.18-4.63-1.29-6.93-1.36-3.82.56-2.91,6.69.92,6.42-.63,3.37-2.2,6.55-2.78,9.94,1.39,4.54,2.84,9.49,4.28,13.74,1.57-4.32,2.93-9,4.2-13.49-.79-3.47-2.2-6.78-3-10.24,1.58.09,2.64-1,3.73-1.93a89.13,89.13,0,0,0,14.23-4.32c12.69,2.31,20.11,15,22.15,26.85-3.09,4.2-6.72,8.06-9.75,12.3,1.92,2.53,4.17,4.86,5.91,7.5.13,24.28,0,48.57.05,72.85-.19.47-1,2-1.51,1.11-5.38-7.24-13.79-13.51-23.28-12.39-6.73.84-12.49,4.87-17.35,9.36-18.35-4.22-38.63-1.58-54.12,9.55-3.13-2.4-7.91-3.18-11.29-.66-4.11,2.54-4.86,8.67-1.74,12.3-1.07,2-3.31,3.53-4.11,5.77-.15,2.63.11,5.26-.05,7.88-4.31.05-8.61,0-12.92,0a6.23,6.23,0,0,0,1.78,3.74,22,22,0,0,0,24.9,0,5.94,5.94,0,0,0,1.78-3.73c-3.89,0-7.78.1-11.66,0,.08-2.06-.27-4.2.1-6.23a38.59,38.59,0,0,1,4.09-4.83c6.19,2.42,13.35-3.82,11.4-10.3,13.5-10.11,31.85-13.08,48.28-9.61-3.38,3.52-6,7.64-8.86,11.57-3.07-.92-6.62-.54-9,1.81-3.46,3.23-2.83,9.12.92,11.85-1.76,3.66-4,7.24-2.9,11.6-4.31.09-8.62,0-12.93,0-.14,1.44.76,2.63,1.59,3.7a22,22,0,0,0,25.1,0c.77-1.11,1.84-2.21,1.59-3.69-4-.07-8,.08-12,0a13.61,13.61,0,0,1,2.51-10.18c3.21.47,6.73-.54,8.62-3.34a7.82,7.82,0,0,0-.83-9.91,85.51,85.51,0,0,1,9.19-12.25,1.06,1.06,0,0,1,1.33-.33,118.8,118.8,0,0,1,30.91,12.47c5.15,4.83,9.76,10.23,14.72,15.27,1.25.9.93,3.44-1.07,2.67-4.66,0-6.65,6.29-3.37,9.32-5.46,2.29-10,7.69-9.68,13.84,4.62.09,9.24,0,13.87,0-1.24,4-3.14,7.79-4.58,11.73-.31,1.36.63,2.53,1,3.77,2.15,5,4,10.42,6.31,15.22,2.35-5.91,4.86-11.77,7.1-17.72-1.46-4.4-3.63-8.6-5.05-13,4.74.06,9.49.12,14.23,0,.19-6.13-4.26-11.48-9.69-13.84,3.18-3,1.29-9.15-3.23-9.26-2.83.91-2.66-3-1.22-4.23,3.89-4,7.68-8.16,11.58-12.17a122.7,122.7,0,0,1,34-14.12c.29,0,.67-.24.83.2a85.94,85.94,0,0,1,9.4,12.45,7.87,7.87,0,0,0-1.41,9,8.55,8.55,0,0,0,9.06,4.2,12.91,12.91,0,0,1,2.64,10.19c-4,.15-8-.06-12,.07-.24,1.46.79,2.62,1.59,3.7a21.89,21.89,0,0,0,25.08,0c.77-1.1,1.78-2.26,1.58-3.72-4.3,0-8.61.07-12.92,0-.24-2.58.75-5.51-1.1-7.69-.35-1.54-3-3.47-1-4.77a7.56,7.56,0,0,0,.77-10.18c-2.25-3.05-6.37-3.62-9.79-2.62a115.42,115.42,0,0,0-8.61-11.67c16.49-3.19,34.6-.5,48.2,9.75-2,6.5,5.24,12.65,11.4,10.29a31.22,31.22,0,0,1,3.91,4.66,61.5,61.5,0,0,1,.08,6.37c-3.83.11-7.66,0-11.49,0a5.72,5.72,0,0,0,1.63,3.49c7,5.55,18,5.33,25.07.21C1115.8,196.2,1116.88,195.1,1116.63,193.61ZM967.77,171.26a122.49,122.49,0,0,0-28.61-11.59c3.91-3.47,8.58-6.45,13.87-7.1,8.83-1.18,16.46,5.24,21.26,12C972.07,166.72,970.05,169.16,967.77,171.26Zm14.78-15.46c-.72.64-1.35,1.83-2.24,2.1.1-22.21.06-44.42,0-66.64.82.4,1.5,1.79,2.17,2.62C982.62,114.52,982.53,135.16,982.55,155.8Zm.06-92.25C979.9,53.11,973,42.9,962.24,39.62c9-4.7,16.69-12.26,20.38-21.81C982.82,32.82,982.84,48.62,982.61,63.55Zm3-45.51a45.54,45.54,0,0,0,20.29,21.55c-10.31,3-17.29,12.52-20.13,22.48C985.48,47.74,985.8,32.66,985.64,18Zm2.05,139.68c-.71-.24-1.39-1.27-2-1.9q-.06-31.17,0-62.35a19.84,19.84,0,0,1,2.07-2.67C988.13,113,987.64,135.44,987.69,157.72Zm12.63,13.43c-2.21-2.16-4.41-4.42-6.41-6.79,4.05-5.6,9.8-10.86,16.93-11.79,6.71-.9,13.41,2.74,17.94,7.2C1018.8,162.14,1009.38,166.42,1000.32,171.15Z"/><path class="cls-21" d="M1090,197.1c.32,9.36,5.4,18,12.39,24,.36.31,1,.76,1.36.18,6.43-6.29,11.16-14.82,11.32-24-7.12,5.11-18.12,5.34-25.07-.21Zm-212,.22a22,22,0,0,1-24.9,0c.12,9.36,5.08,18.24,11.88,24.42,7.3-6,12.87-14.79,13-24.42Zm47.94,5.84a22,22,0,0,1-25.09,0,34.93,34.93,0,0,0,12,24.37c7.44-5.7,12.85-14.8,13.14-24.38Zm141.42,0a21.92,21.92,0,0,1-25.09,0c.21,9.32,5.41,17.88,12.32,23.85.33.23.8.78,1.16.32,6.67-6.26,11.24-15,11.61-24.2Z"/><circle class="cls-21" cx="864.96" cy="209.3" r="6.88"/><circle class="cls-21" cx="912.67" cy="215.44" r="6.88"/><circle class="cls-21" cx="1102.54" cy="209.57" r="6.88"/><circle class="cls-21" cx="1054.88" cy="215.32" r="6.88"/><circle class="cls-22" cx="865.25" cy="207.52" r="7.77"/><circle class="cls-22" cx="913.38" cy="211.22" r="7.77"/><circle class="cls-22" cx="1055.53" cy="211.22" r="7.77"/><circle class="cls-22" cx="1103.66" cy="205.3" r="7.77"/><path class="cls-21" d="M2193.46,195.25c-4.25-.06-8.5.05-12.75,0-.14-2.74.15-5.5-.13-8.23-.91-2.07-3.31-3.51-4-5.53a8.42,8.42,0,0,0-2.7-12.73,9.1,9.1,0,0,0-9.72.89c-.77.85-1.67-.4-2.36-.71-15.17-10.35-34.78-12.55-52.44-8.5-5.72-5.38-13.06-10-21.25-9.44s-14.8,6.41-19.6,12.65a2,2,0,0,1-1.19-2.49c.21-24.07,0-48.15.11-72.22,1.88-2.63,4.24-4.92,6-7.62-3.26-4.11-6.64-8.13-9.89-12.24,1.9-11.74,9.86-24.38,22.49-26.34a66,66,0,0,0,13.18,4.17c1.55.13,2.14,2.18,3.82,2s.09,1.86.17,2.65c-.64,3.4-3.27,6.87-1.61,10.34,1.2,3.65,2.14,7.39,3.51,11,1.44-4.66,2.94-9.31,4.31-14-.79-3.13-1.94-6.2-2.8-9.33-.22-.8,1.05-.51,1.43-.83,2.77-.79,2.56-5.31-.2-5.93-2.4-.09-5.48-1-7.21,1.25-11.17-2.18-22.21-7.28-29.59-16.19-4.9-6.19-8.22-14-8.39-21.9,2.78-1,5.45-3,6.18-6l-.39.07a5.49,5.49,0,0,1-.58,0h-14.73a6.58,6.58,0,0,0,1.13,2.3c1.1,1.94,3.33,2.63,5.13,3.68a38.06,38.06,0,0,1-12.28,25.79c-7.16,6.46-16.33,10.34-25.72,12.18-1.61-2.17-4.63-1.29-6.93-1.36-3.82.57-2.91,6.7.92,6.42-.63,3.38-2.2,6.56-2.78,9.94,1.39,4.54,2.84,9.49,4.28,13.74,1.57-4.31,2.93-9,4.2-13.49-.79-3.47-2.2-6.78-3-10.24,1.58.09,2.64-1,3.73-1.93a88.11,88.11,0,0,0,14.23-4.32c12.69,2.31,20.11,15,22.15,26.85-3.09,4.21-6.72,8.06-9.75,12.31,1.92,2.52,4.17,4.85,5.91,7.49.13,24.28,0,48.57.05,72.85-.19.47-1,2-1.51,1.11-5.38-7.24-13.79-13.5-23.28-12.38-6.73.83-12.49,4.86-17.35,9.36-18.35-4.23-38.63-1.59-54.12,9.55-3.13-2.41-7.91-3.19-11.29-.67-4.11,2.55-4.86,8.67-1.74,12.3-1.07,2-3.31,3.53-4.11,5.78-.15,2.62.1,5.25,0,7.87-4.31.05-8.61,0-12.92,0a6.23,6.23,0,0,0,1.78,3.74,22,22,0,0,0,24.9,0,5.89,5.89,0,0,0,1.78-3.73c-3.89,0-7.78.1-11.66,0,.08-2.06-.27-4.19.1-6.23a37.77,37.77,0,0,1,4.09-4.83c6.19,2.42,13.35-3.82,11.4-10.29,13.5-10.12,31.85-13.08,48.27-9.62-3.37,3.52-6,7.64-8.85,11.58-3.07-.93-6.63-.55-9,1.81-3.46,3.22-2.83,9.12.92,11.84-1.76,3.66-3.95,7.24-2.9,11.61-4.31.08-8.62,0-12.93,0-.14,1.44.76,2.63,1.59,3.7a22,22,0,0,0,25.1,0c.76-1.11,1.84-2.22,1.59-3.7-4-.07-8,.08-12,0a13.57,13.57,0,0,1,2.51-10.17c3.21.46,6.73-.55,8.62-3.34a7.83,7.83,0,0,0-.83-9.92,86.08,86.08,0,0,1,9.19-12.25,1.06,1.06,0,0,1,1.33-.33A119.15,119.15,0,0,1,2044,177.52c5.15,4.83,9.76,10.23,14.72,15.27,1.25.91.93,3.44-1.07,2.68-4.66,0-6.65,6.28-3.37,9.31-5.47,2.29-10,7.69-9.68,13.85,4.62.09,9.24,0,13.87,0-1.25,4-3.14,7.78-4.58,11.72-.31,1.37.63,2.53,1,3.77,2.15,5,4,10.42,6.31,15.22,2.35-5.9,4.86-11.77,7.1-17.71-1.46-4.41-3.63-8.61-5.05-13,4.74.06,9.49.12,14.23,0,.19-6.13-4.26-11.47-9.69-13.83,3.18-3,1.29-9.16-3.23-9.27-2.83.92-2.66-3-1.22-4.23,3.89-4,7.68-8.16,11.58-12.16a122.1,122.1,0,0,1,34-14.12c.29,0,.67-.25.83.19a84.71,84.71,0,0,1,9.39,12.46,7.87,7.87,0,0,0-1.4,9,8.58,8.58,0,0,0,9.06,4.21,12.89,12.89,0,0,1,2.64,10.18c-4,.15-8-.05-12,.08-.24,1.45.79,2.62,1.59,3.7a21.92,21.92,0,0,0,25.08,0c.77-1.11,1.78-2.27,1.58-3.73-4.3,0-8.61.08-12.92,0-.24-2.58.75-5.5-1.1-7.69-.35-1.53-3-3.47-1-4.77a7.56,7.56,0,0,0,.77-10.18c-2.25-3.05-6.37-3.62-9.79-2.62a115.42,115.42,0,0,0-8.61-11.67c16.49-3.19,34.6-.5,48.2,9.75-2.05,6.5,5.24,12.66,11.4,10.29a31.73,31.73,0,0,1,3.91,4.66,61.5,61.5,0,0,1,.08,6.37c-3.83.11-7.66,0-11.49,0a5.69,5.69,0,0,0,1.63,3.48c6.95,5.55,17.95,5.33,25.07.21C2192.63,197.83,2193.71,196.73,2193.46,195.25ZM2044.6,172.89A122.92,122.92,0,0,0,2016,161.3c3.91-3.46,8.58-6.45,13.87-7.1,8.83-1.17,16.46,5.24,21.26,12C2048.9,168.35,2046.88,170.79,2044.6,172.89Zm14.78-15.46c-.73.64-1.35,1.84-2.24,2.11.1-22.22.05-44.43,0-66.65.82.41,1.5,1.79,2.17,2.62C2059.45,116.15,2059.36,136.79,2059.38,157.43Zm.06-92.24c-2.71-10.44-9.65-20.66-20.37-23.94,9-4.7,16.69-12.26,20.38-21.81C2059.65,34.45,2059.66,50.25,2059.44,65.19Zm3-45.52a45.54,45.54,0,0,0,20.29,21.55c-10.31,3-17.29,12.52-20.13,22.48C2062.31,49.38,2062.63,34.29,2062.47,19.67Zm2.05,139.68c-.71-.24-1.39-1.27-2-1.89q-.06-31.19,0-62.36a19.66,19.66,0,0,1,2.07-2.67h0C2065,114.59,2064.47,137.07,2064.52,159.35Zm12.63,13.43c-2.21-2.16-4.41-4.41-6.41-6.78,4-5.61,9.8-10.86,16.93-11.8,6.71-.89,13.41,2.74,17.94,7.21C2095.63,163.77,2086.21,168.05,2077.15,172.78Z"/><path class="cls-21" d="M2166.79,198.73c.32,9.36,5.4,18,12.39,24,.36.3,1,.75,1.36.17,6.43-6.28,11.16-14.82,11.32-24-7.12,5.12-18.12,5.34-25.07-.21Zm-212,.22a22,22,0,0,1-24.9,0c.12,9.35,5.08,18.23,11.88,24.41,7.3-6,12.87-14.79,13-24.42Zm47.94,5.85a22,22,0,0,1-25.1,0,35,35,0,0,0,12,24.38c7.43-5.71,12.85-14.8,13.14-24.38Zm141.42,0a21.92,21.92,0,0,1-25.09,0c.21,9.32,5.41,17.89,12.32,23.86.33.23.8.77,1.16.31,6.67-6.25,11.24-15,11.61-24.2Z"/><circle class="cls-21" cx="1941.79" cy="210.93" r="6.88"/><circle class="cls-21" cx="1989.5" cy="217.08" r="6.88"/><circle class="cls-21" cx="2179.37" cy="211.21" r="6.88"/><circle class="cls-21" cx="2131.71" cy="216.95" r="6.88"/><circle class="cls-22" cx="1942.08" cy="209.15" r="7.77"/><circle class="cls-22" cx="1990.21" cy="212.86" r="7.77"/><circle class="cls-22" cx="2132.36" cy="212.86" r="7.77"/><circle class="cls-22" cx="2180.49" cy="206.93" r="7.77"/><path class="cls-18" d="M523.81,502.65c1.52-5.82,183-6.16,183-6.16l-6.06-294.18S707,27.43,605.64,30.7s-87.89,177.76-87.89,177.76Z"/><path class="cls-19" d="M528.13,480.64c1.21-5.44,149.61-6.41,149.61-6.41l-7.22-275s3.79-163.54-79.1-160.12S520.91,205.6,520.91,205.6Z"/><path class="cls-18" d="M2682.31,516.65c-1.53-5.83-183.28-6.17-183.28-6.17l6.07-294.67s-6.29-175.16,95.25-171.89,88,178.06,88,178.06Z"/><path class="cls-19" d="M2679.09,508.09c-1.2-5.54-149.86-6.44-149.86-6.44l7.4-280.08S2532.92,55,2615.94,58.47,2686.48,228,2686.48,228Z"/><path class="cls-23" d="M1989.84,727.63c79.25,13.81,352.4,102,352.4,102l7.52-434s-284.34-42-359.92-36.14Z"/><polygon class="cls-24" points="2342.24 829.59 2422.51 793.79 2430.03 359.79 2349.76 395.59 2342.24 829.59"/><path class="cls-24" d="M2349.76,395.59l-359.92-36.14,80.26-35.8s132.62,2.85,359.93,36.14"/><polygon class="cls-25" points="2016.53 388.19 2016.53 710.91 2308.81 795.42 2308.81 424.38 2016.53 388.19"/><polygon class="cls-26" points="2162.67 401.64 2162.67 757.51 2150.87 753.99 2150.87 401.64 2162.67 401.64"/><polygon class="cls-26" points="2012.86 536.33 2311.26 588.3 2311.26 602.56 2012.86 548.39 2012.86 536.33"/><polygon class="cls-27" points="2016.53 536.97 2070.1 508.39 2150.87 521.66 2150.87 560.36 2016.53 536.97"/><polygon class="cls-27" points="2162.67 523.39 2308.81 544.86 2308.81 587.87 2162.67 562.42 2162.67 523.39"/><polygon class="cls-27" points="2162.06 713.44 2308.81 751.49 2308.81 795.42 2162.67 754.43 2162.06 713.44"/><polygon class="cls-27" points="2070.1 685.9 2070.1 558.78 2016.53 549.06 2016.53 710.91 2070.1 685.9"/><polygon class="cls-27" points="2070.1 508.39 2070.1 395.59 2016.53 388.19 2016.53 536.97 2070.1 508.39"/><polygon class="cls-27" points="2216.43 530.73 2216.43 412.72 2162.86 404.98 2162.86 560.62 2216.43 530.73"/><polygon class="cls-27" points="2216.43 719.96 2216.43 586.18 2162.86 577.41 2162.86 753.85 2216.43 719.96"/><polygon class="cls-27" points="2216.43 719.96 2216.43 741.89 2162.86 741.89 2216.43 719.96"/><polygon class="cls-27" points="2016.71 710.91 2070.28 685.9 2151.05 710.91 2151.05 749.75 2016.71 710.91"/><polygon class="cls-28" points="1342.26 612.18 1339.67 689.53 1830.67 689.53 1827.73 606.65 1342.26 612.18"/><polygon class="cls-18" points="1300.15 613.01 1868.9 606.83 1869.67 600.65 1300.15 606.83 1300.15 613.01"/></g></g></svg>