<svg xmlns="http://www.w3.org/2000/svg" xmlns:xlink="http://www.w3.org/1999/xlink" viewBox="0 0 223.83 223.83"><defs><style>.cls-1{fill:url(#radial-gradient);}.cls-2{fill:#ede3dc;}.cls-3{fill:#a4d4a2;}.cls-4,.cls-7{fill:#ed7aae;}.cls-5{fill:none;}.cls-6{fill:#dea8cd;opacity:0.6;}.cls-7,.cls-8{stroke:#186c37;stroke-miterlimit:10;}.cls-8{fill:#186c37;}</style><radialGradient id="radial-gradient" cx="111.92" cy="111.92" r="111.92" gradientUnits="userSpaceOnUse"><stop offset="0" stop-color="#f6dde0"/><stop offset="1" stop-color="#f48587"/></radialGradient></defs><g id="Layer_2" data-name="Layer 2"><g id="Layer_1-2" data-name="Layer 1"><rect class="cls-1" width="223.83" height="223.83"/></g><g id="Layer_2-2" data-name="Layer 2"><path class="cls-2" d="M127.75,175.68,114.06,177l-1.7,17.82a3,3,0,0,0-.6,1.75c0,2.44,3.23,4.41,7.2,4.41s7.2-2,7.2-4.41a3,3,0,0,0-.48-1.56Z"/><path class="cls-2" d="M73.12,159.11a2.31,2.31,0,0,0,.45-.21l10.13-3.8-6.31-11.82-9.64,4.47.06.11c-1.54,1.3-2,4.11-1,6.87C68.05,158,70.86,160,73.12,159.11Z"/><path class="cls-2" d="M152.9,149.68a3.19,3.19,0,0,0-.42-.26l-8.67-6.48-6.55,11.7,9,5.7.07-.11c1.93.59,4.53-.54,6.3-2.89C154.69,154.56,154.82,151.13,152.9,149.68Z"/><path class="cls-3" d="M135.25,158.23,145.47,140l-13.64-5.21H88.67l-13.23,4.95,9.77,18.51,4.47-8.42-8.43,21.44h.13c0,1.32,4.11,2.26,9,3.38s9.58,1.46,19,2.16l.66.05a61.52,61.52,0,0,0,18.05-1.24l.87-.2c.45-.11,9.78-2.39,9.78-4.15h.12l-8.23-21Z"/><path class="cls-2" d="M92.82,175l13.69,1.35,1.7,17.82a3,3,0,0,1,.6,1.75c0,2.44-3.22,4.41-7.2,4.41s-7.19-2-7.19-4.41a3,3,0,0,1,.47-1.56Z"/><path class="cls-2" d="M110,70.29A81.29,81.29,0,0,0,111.82,58c.83-12.15,2.06-30.33-9-34.35-6.55-2.37-16.45.57-21.37,5.43C78.53,32,77.3,35.63,77.82,45A98.11,98.11,0,0,0,84.17,74.4Z"/><path class="cls-2" d="M141.64,73.79A82.78,82.78,0,0,0,147.82,63c5.24-11,13.08-27.44,4.28-35.24-5.22-4.62-15.5-5.53-21.87-2.82C126.45,26.58,124,29.5,121,38.41a98,98,0,0,0-4.91,29.68Z"/><path class="cls-4" d="M105.77,71.43A58.29,58.29,0,0,0,107,62.78c.58-8.55,1.45-21.36-6.34-24.18-4.61-1.68-11.58.4-15,3.82-2.06,2-2.93,4.59-2.56,11.2a69.05,69.05,0,0,0,4.47,20.7Z"/><path class="cls-4" d="M136.75,73.79a57.43,57.43,0,0,0,4.88-7.25c4.24-7.45,10.57-18.62,4.78-24.54-3.43-3.51-10.61-4.66-15.22-3.08-2.73.94-4.63,2.87-7.16,9a69.23,69.23,0,0,0-5,20.6Z"/><line class="cls-5" x1="85.25" y1="69.65" x2="73" y2="84.76"/><path class="cls-2" d="M80.5,76.92a40.59,40.59,0,0,0-12.19,23.82c-.53,4.15-2,15.88,5.38,25,4.64,5.67,10.43,7.45,18.37,9.89a70.29,70.29,0,0,0,36.94,1c9.64-2.35,17-4.13,22.57-11.06,6.91-8.6,6.1-19.42,5.76-24.2a34.38,34.38,0,0,0-19.52-30.24c-7.25-3.89-13.66-4.61-18.76-5.18-4.78-.54-11.21-1.26-19.23.75A42,42,0,0,0,80.5,76.92Z"/><path d="M112.94,95.72l-5,6.19-.72.89a1.27,1.27,0,0,0,0,1.76,1.26,1.26,0,0,0,1.77,0l5-6.18.72-.89a1.29,1.29,0,0,0,0-1.77,1.27,1.27,0,0,0-1.77,0Z"/><path d="M113,97.49l5,6.19.72.88a1.25,1.25,0,0,0,1.77,0,1.28,1.28,0,0,0,0-1.76l-5-6.19-.72-.89a1.26,1.26,0,0,0-1.77,0,1.29,1.29,0,0,0,0,1.77Z"/><circle class="cls-6" cx="85.17" cy="109.77" r="15.65"/><circle class="cls-6" cx="140.28" cy="109.77" r="15.65"/><circle cx="94.84" cy="94.45" r="3.56"/><circle cx="131.06" cy="94.45" r="3.56"/><line class="cls-7" x1="108.81" y1="142.94" x2="108.33" y2="171.16"/><circle class="cls-8" cx="103.49" cy="144.76" r="1.81"/><circle class="cls-8" cx="102.63" cy="155.22" r="1.81"/><circle class="cls-8" cx="101.68" cy="165.67" r="1.81"/></g></g></svg>