<svg xmlns="http://www.w3.org/2000/svg" xmlns:xlink="http://www.w3.org/1999/xlink" viewBox="0 0 223.83 223.83"><defs><style>.cls-1{fill:url(#radial-gradient);}.cls-2{fill:url(#radial-gradient-2);}.cls-3{fill:url(#radial-gradient-3);}.cls-4{fill:url(#radial-gradient-4);}.cls-5{fill:url(#radial-gradient-5);}.cls-6{fill:url(#radial-gradient-8);}.cls-7{fill:url(#radial-gradient-9);}.cls-8{fill:none;stroke:#fafae3;stroke-miterlimit:10;stroke-width:3px;}.cls-9{fill:#cb9dc3;}.cls-10{fill:#ce9ec8;}.cls-11{fill:url(#linear-gradient);}.cls-12{fill:#fff;}.cls-13{fill:#b680ae;}.cls-14{fill:#ef8a93;}.cls-15{fill:#f2a686;}.cls-16{fill:#f0d48a;}.cls-17{fill:#77c8ab;}.cls-18{fill:#e8c066;}.cls-19{fill:#eab255;}.cls-20{fill:url(#radial-gradient-10);}.cls-21{fill:#a56c91;}.cls-22{fill:#f4b5ae;opacity:0.6;}.cls-23{fill:#d47488;}.cls-24{fill:#d77589;}.cls-25{fill:#ef7fb2;}.cls-26{fill:#fbf4d0;}.cls-27{fill:url(#linear-gradient-2);}.cls-28{fill:#f7be74;}.cls-29{fill:url(#linear-gradient-3);}.cls-30{fill:#f8e870;}.cls-31{fill:#e0aa62;}</style><radialGradient id="radial-gradient" cx="111.92" cy="111.92" r="111.92" gradientUnits="userSpaceOnUse"><stop offset="0" stop-color="#f6dde0"/><stop offset="1" stop-color="#6dc6ad"/></radialGradient><radialGradient id="radial-gradient-2" cx="52.28" cy="58.04" r="15.01" gradientUnits="userSpaceOnUse"><stop offset="0" stop-color="#fff"/><stop offset="1" stop-color="#fafae3"/></radialGradient><radialGradient id="radial-gradient-3" cx="46.53" cy="80.21" r="10.44" xlink:href="#radial-gradient-2"/><radialGradient id="radial-gradient-4" cx="54.82" cy="161.48" r="5.46" xlink:href="#radial-gradient-2"/><radialGradient id="radial-gradient-5" cx="62.35" cy="173.47" r="3.8" xlink:href="#radial-gradient-2"/><radialGradient id="radial-gradient-8" cx="174.44" cy="71.79" r="4.85" xlink:href="#radial-gradient-2"/><radialGradient id="radial-gradient-9" cx="165.12" cy="92.21" r="3.13" xlink:href="#radial-gradient-2"/><linearGradient id="linear-gradient" x1="69.09" y1="176.01" x2="94.36" y2="176.01" gradientUnits="userSpaceOnUse"><stop offset="0" stop-color="#e4acc5"/><stop offset="1" stop-color="#a486ac"/></linearGradient><radialGradient id="radial-gradient-10" cx="111.92" cy="94.58" fx="153.7591603973969" r="41.89" gradientUnits="userSpaceOnUse"><stop offset="0" stop-color="#efb7d4"/><stop offset="1" stop-color="#c7a3cc"/></radialGradient><linearGradient id="linear-gradient-2" x1="119.96" y1="191.1" x2="119.96" y2="173.79" gradientTransform="translate(2.71 -105.26) rotate(6.92)" gradientUnits="userSpaceOnUse"><stop offset="0" stop-color="#f492b9"/><stop offset="1" stop-color="#f58e82"/></linearGradient><linearGradient id="linear-gradient-3" x1="1575.49" y1="215.71" x2="1575.49" y2="198.41" gradientTransform="matrix(-0.99, -0.14, -0.14, 0.99, 1717.66, 105.55)" xlink:href="#linear-gradient-2"/></defs><g id="Layer_2" data-name="Layer 2"><g id="Layer_1-2" data-name="Layer 1"><rect class="cls-1" width="223.83" height="223.83"/><polygon class="cls-2" points="52.53 42.59 37.72 56.89 64.53 73.49 66.83 67.87 52.53 42.59"/><polygon class="cls-3" points="37.72 71.44 34.66 85.74 55.34 88.99 58.4 82.83 37.72 71.44"/><polygon class="cls-4" points="54.44 155.17 50.35 161.79 55.46 167.78 59.29 161.47 54.44 155.17"/><polygon class="cls-5" points="62.35 169.06 59.29 172.26 62.35 177.87 65.42 173.72 62.35 169.06"/><polygon class="cls-4" points="54.44 155.17 50.35 161.79 55.46 167.78 59.29 161.47 54.44 155.17"/><polygon class="cls-5" points="62.35 169.06 59.29 172.26 62.35 177.87 65.42 173.72 62.35 169.06"/><polygon class="cls-6" points="174.44 65.79 171.12 72.17 174.44 77.79 177.76 71.79 174.44 65.79"/><polygon class="cls-7" points="164.48 88.51 162.69 93.11 166.27 95.92 167.54 89.72 164.48 88.51"/><polygon class="cls-8" points="61.8 132.32 55.84 141.96 63.28 150.69 68.86 141.51 61.8 132.32"/><polygon class="cls-8" points="170.74 103.07 166.66 109.67 171.76 115.66 175.58 109.36 170.74 103.07"/></g><g id="Layer_2-2" data-name="Layer 2"><path class="cls-9" d="M89.82,167.36a7.31,7.31,0,0,0,2.66,2.5l.27.13c13.58,6.33,30.38.68,30.38.68a52,52,0,0,0,5-2"/><path class="cls-10" d="M107.19,172.72c2.18,16.05,2.43,22.08,1.87,23.36a3.14,3.14,0,0,0-.25,2,3.18,3.18,0,0,0,1.32,1.79c1.67,1.12,4.49.52,6.08-.89,2-1.76,2-4.67,2-6.26.06-9.67-.83-13.67,1.53-18.6a15,15,0,0,1,2.09-3.19"/><path class="cls-10" d="M104.64,171.52c.64,5,1.13,10.54,1.32,16.46.11,3.65-.07,7.3,0,11a1.81,1.81,0,0,1-.35,1.16c-1,1.22-4.25.66-6-1.16a6.34,6.34,0,0,1-1.49-3.74c-.34-3.61-2.36-11.34-7.19-25.9"/><path class="cls-11" d="M94.36,179.46c-1.72.61-16.61,5.67-22.66-1.08-1.81-2-3.42-5.77-2.17-7.35s5.46-.67,7.85.39A17.75,17.75,0,0,1,80.06,173c2,1.17,5.53,1.76,12.32-1.27"/><path class="cls-10" d="M124.22,147.16a29,29,0,0,1,7.33,8.43c1.35,2.4,1.62,3.9,3.53,5.45s6,3.73,8.56,2.1c2.73-1.75,1.77-6.7,1.67-7.2a11.29,11.29,0,0,0-1.3-3.34c-3.48-5.67-20.42-17.72-21.2-18.27Z"/><path class="cls-12" d="M114.54,58.44Z"/><path class="cls-13" d="M114.16,61.59h0l-3.26-36.83a1.92,1.92,0,0,0-1.32-1.63c-.92-.2-1.56.85-2.24,2L75.87,72.82A48.39,48.39,0,0,1,97.42,61.9,44.44,44.44,0,0,1,114.16,61.59Z"/><path class="cls-13" d="M156.43,90.15l.27.21L141.79,31.53c-.27-1.33-.54-2.56-1.55-2.74a2,2,0,0,0-1.94,1L121.8,62a51.4,51.4,0,0,1,23.6,12.69A50.14,50.14,0,0,1,156.43,90.15Z"/><path class="cls-14" d="M81.57,67.46A49.18,49.18,0,0,1,97,61.73a48.41,48.41,0,0,1,11.48-.79l-1.59-29.15Z"/><path class="cls-15" d="M86.8,64.8a31.82,31.82,0,0,1,10.13-3.53A30.79,30.79,0,0,1,104.4,61l-.52-19.31Z"/><path class="cls-16" d="M91.16,62.9a26.08,26.08,0,0,1,5.36-1.49,24.6,24.6,0,0,1,3.42-.32l.89-10.43Z"/><path class="cls-14" d="M150.05,80a49,49,0,0,0-22.56-16l12.29-26.48Z"/><path class="cls-15" d="M146.18,75.61a31.32,31.32,0,0,0-8.09-7,30.84,30.84,0,0,0-6.81-3.07l7.64-17.74Z"/><path class="cls-16" d="M142.84,69.91a24.89,24.89,0,0,0-4.28-3.26,25.47,25.47,0,0,0-2.95-1.53l2.95-9.69Z"/><path class="cls-17" d="M125.64,151.76a89,89,0,0,1-2.75-18.7l-27.26-3.54-.5,3c-.66,3.25-1.52,6.7-2.62,10.3a109.89,109.89,0,0,1-6.82,17l42.42,1C127.44,158.41,126.63,155.42,125.64,151.76Z"/><path class="cls-18" d="M130.23,166.82c-.44-.58-1.07-2.45-2-5.64-2,.55-4.55,1.18-7.54,1.71a67,67,0,0,1-20.81.89,60.13,60.13,0,0,1-14.36-3.68q-1.11,2.19-2.21,4.17l.17.3c3.28,5.51,11.78,6,20.79,6.3,1.79.07,3.16.06,3.8.06.89,0,1.73,0,2.55-.06A49.7,49.7,0,0,0,129.68,168a1.59,1.59,0,0,0,.48-.16l.05,0h0a.58.58,0,0,0,.29-.29C130.57,167.24,130.29,166.9,130.23,166.82Z"/><path class="cls-17" d="M120.7,162.89c3-.53,5.54-1.16,7.54-1.71,0-.14-.09-.29-.13-.44l-42.42-1-.16.32a60.13,60.13,0,0,0,14.36,3.68A67,67,0,0,0,120.7,162.89Z"/><path class="cls-19" d="M97.5,127c-.85.18-2.13.72-2.32,1.65s.91,2,1.36,2.37c4.24,3.7,24.56,6.93,27.15.92a2.78,2.78,0,0,0-.2-2.9c-1.26-1.18-3.87,1.15-8.48,1.72a21.44,21.44,0,0,1-11.83-1.92C101.27,127.88,99.62,126.56,97.5,127Z"/><path class="cls-10" d="M93.17,146.31A29.08,29.08,0,0,0,85.06,154c-1.58,2.26-2,3.72-4,5.08s-6.36,3.12-8.72,1.26c-2.55-2-1.11-6.85-1-7.34A11.31,11.31,0,0,1,73,149.79c4-5.31,22.06-15.63,22.89-16.1Z"/><path class="cls-20" d="M85.94,63a41,41,0,0,0-17,21.1c-1.39,4-5.32,15.33.17,25.87,3.42,6.59,8.8,9.56,16.17,13.62a71.14,71.14,0,0,0,36.42,8.68c10-.33,17.72-.58,24.68-6.3,8.64-7.09,10.07-18,10.73-22.8A34.88,34.88,0,0,0,144,69.13c-6.39-5.36-12.6-7.4-17.53-9-4.63-1.52-10.87-3.57-19.24-3.23A42.37,42.37,0,0,0,85.94,63Z"/><path class="cls-21" d="M100.68,108.28c-1.75,1.57-.92,4.93-.82,5.3a4.25,4.25,0,0,0,.41,1.11,4.36,4.36,0,0,0,2.65,2.14,4.55,4.55,0,0,0,4-1.18c.56-.54.66-1,1.25-1.15a2.88,2.88,0,0,1,2.29.61c1.6,1,1.39,1.86,2.78,2.9a4.73,4.73,0,0,0,3.51,1.09,4.53,4.53,0,0,0,2.84-2,9.34,9.34,0,0,0,1-2.62c.59-2.07.44-2.6.26-2.94s-.64-.94-1.06-.89c-.69.08-1,1.73-1.08,2.11-.26,1.3.09,1.65-.29,2.29a2.51,2.51,0,0,1-2.23,1.09,3.9,3.9,0,0,1-2.37-1.47c-.91-.9-.8-1.21-1.56-1.75a4.42,4.42,0,0,0-2.27-.83,5,5,0,0,0-3,.83c-1,.57-.9.88-1.63,1.14a2.78,2.78,0,0,1-2.87-.44,2.85,2.85,0,0,1-.2-3.1c.22-.4.43-.5.55-1,.16-.64,0-1.58-.51-1.85S100.76,108.21,100.68,108.28Z"/><path class="cls-22" d="M81.89,88.76a10.19,10.19,0,0,0-7.57,7.66c-1,4.77,1.87,9,5.11,11.14a11.62,11.62,0,0,0,10.81.86c3.32-1.44,7-5,6.55-8.52a6.15,6.15,0,0,0-1.62-3.14C92.28,93.19,87.71,87.54,81.89,88.76Z"/><path class="cls-23" d="M80.67,98.36c-1.4,1-2.29,2.77-1.91,3.15s1.16-.21,1.91-.62a3.76,3.76,0,0,0,2-1.85c0-.09.35-1,0-1.3S80.75,98.31,80.67,98.36Z"/><path class="cls-24" d="M84.13,101.39c-.61,1.23-.57,2.82-.16,2.94s.74-.58,1.12-1.16a3,3,0,0,0,.68-2c0-.08-.12-.83-.49-.92S84.16,101.33,84.13,101.39Z"/><path class="cls-25" d="M83.62,93.51c-.83.43-.67,2.57-.1,3.93a4.58,4.58,0,0,0,3.83,2.92c.32,0,1.74,0,2.12-.7C90.34,97.91,85.2,92.7,83.62,93.51Z"/><path d="M103.91,96.63c.71-.95,5.88-7.88,3-13.62-2.25-4.48-7.94-5.35-9.78-5.63s-8.17-1.24-12,3.13a11.49,11.49,0,0,0-1.75,11.62c2.89,7.26,13.33,10.11,18.3,6.88A8.51,8.51,0,0,0,103.91,96.63Z"/><path class="cls-26" d="M85.33,85.14c-2.08,5,1.76,9.91,4.33,12A10.16,10.16,0,0,0,95,99.56a10.13,10.13,0,0,0,10.24-14.3c-2.57-5.37-8.88-5.84-9.32-5.87C92.06,79.16,87.09,80.92,85.33,85.14Z"/><path d="M99.67,79.37a11.85,11.85,0,0,0-5.18,3.92,13.45,13.45,0,0,0-2.2,10.33c.34,1.66.95,4.58,3.26,5.87,3,1.68,7-.42,9-2.6a11.17,11.17,0,0,0,1.79-12.67A10.19,10.19,0,0,0,99.67,79.37Z"/><path class="cls-27" d="M100.63,81.69a9.17,9.17,0,0,0-5.18,3.14,9.58,9.58,0,0,0-2,5.77c-.11,1.79-.29,4.48,1.62,6.45a6.19,6.19,0,0,0,4.58,1.84c4-.38,6.39-6,6.69-9.9a6.87,6.87,0,0,0-1-4.93A6.56,6.56,0,0,0,100.63,81.69Z"/><path d="M99.2,85.85c1.1-.28,2.46,1.1,3,2.39s.53,3.46-.94,4.51a3,3,0,0,1-3.49.08c-1-.89-.55-2.57-.17-4.08C97.91,87.46,98.26,86.1,99.2,85.85Z"/><polygon class="cls-12" points="97.84 84.11 96.05 85.9 96.94 88.71 99.38 86.84 97.84 84.11"/><path class="cls-28" d="M100.24,91.85a2.57,2.57,0,0,0,.09,2.9,2.42,2.42,0,0,0,3.15,0c1.31-1.13.88-3.81-.34-4.34C102.22,90,100.84,90.78,100.24,91.85Z"/><path d="M82.73,86.08c-1.24-1.72-3.41-5-2.26-5.39.37-.13,1.35-.07,4.42,1.83"/><path d="M86.08,80.39c-.17-2.12-.35-6,.85-5.79.38.08,1.18.64,2.84,3.85"/><path d="M93.4,78.78c.56-2,1.72-5.8,2.76-5.15.33.2.9,1,1.37,4.58"/><path class="cls-22" d="M146.39,99.78a10.21,10.21,0,0,1,5.38,9.34c-.21,4.88-4.11,8.28-7.78,9.48a11.6,11.6,0,0,1-10.67-1.92c-2.85-2.24-5.51-6.6-4.17-9.9a6,6,0,0,1,2.36-2.63C135.21,101.43,141.07,97.13,146.39,99.78Z"/><path class="cls-23" d="M145.13,109.38c1.1,1.32,1.51,3.26,1.05,3.53s-1.07-.49-1.69-1.08a3.69,3.69,0,0,1-1.44-2.29c0-.1-.1-1.05.33-1.25C144,108,145.07,109.31,145.13,109.38Z"/><path class="cls-24" d="M141,111.44c.28,1.34-.16,2.86-.59,2.88s-.57-.76-.78-1.4a2.93,2.93,0,0,1-.15-2.16c0-.07.33-.77.71-.76S141,111.37,141,111.44Z"/><path class="cls-25" d="M143.51,103.94c.7.63,0,2.66-.9,3.83a4.6,4.6,0,0,1-4.45,1.85c-.31-.07-1.69-.4-1.87-1.22C135.89,106.49,142.19,102.76,143.51,103.94Z"/><path d="M123.09,101.81c-.44-1.11-3.69-9.12.56-13.94,3.3-3.77,9-3.16,10.88-3s8.22.88,10.85,6.08a11.5,11.5,0,0,1-1.26,11.69c-4.64,6.29-15.46,6.39-19.45,2A8.69,8.69,0,0,1,123.09,101.81Z"/><path class="cls-26" d="M144,95.41c.74,5.34-4.23,9.14-7.24,10.51a10.16,10.16,0,0,1-5.82,1,10.13,10.13,0,0,1-6.27-16.43c3.85-4.54,10.07-3.4,10.5-3.31C139,87.92,143.36,90.89,144,95.41Z"/><path d="M131.58,86.19a11.82,11.82,0,0,1,4,5.11,13.46,13.46,0,0,1-.49,10.54c-.76,1.53-2.08,4.19-4.65,4.86-3.32.86-6.63-2.18-8.09-4.82a11.17,11.17,0,0,1,1.5-12.71A10.17,10.17,0,0,1,131.58,86.19Z"/><path class="cls-29" d="M130.06,88.19a9.19,9.19,0,0,1,4.22,4.36,9.61,9.61,0,0,1,.45,6.07c-.34,1.76-.86,4.42-3.2,5.83a6.18,6.18,0,0,1-4.9.62c-3.81-1.39-4.65-7.48-3.95-11.28a6.84,6.84,0,0,1,2.25-4.5A6.59,6.59,0,0,1,130.06,88.19Z"/><path d="M130.39,92.58c-1-.56-2.66.44-3.49,1.55s-1.39,3.21-.24,4.6a3,3,0,0,0,3.35,1c1.18-.62,1.19-2.36,1.21-3.91C131.23,94.46,131.24,93.06,130.39,92.58Z"/><polygon class="cls-12" points="132.15 91.24 133.42 93.42 131.84 95.91 129.96 93.48 132.15 91.24"/><path class="cls-28" d="M127.85,98.12a2.54,2.54,0,0,1-.81,2.77,2.41,2.41,0,0,1-3.05-.8c-1-1.42.11-3.9,1.43-4.11C126.41,95.83,127.55,96.93,127.85,98.12Z"/><path d="M146.26,97c1.63-1.36,4.57-4,3.55-4.65-.32-.21-1.28-.4-4.74.65"/><path d="M144.47,90.63c.7-2,1.87-5.75.65-5.81-.39,0-1.31.31-3.73,3"/><path d="M137.79,87.21c0-2.12-.18-6-1.36-5.68-.37.11-1.12.73-2.48,4.08"/><path class="cls-30" d="M123.93,76.47A7.05,7.05,0,0,0,120.65,72a3.71,3.71,0,0,1,0,4,3.79,3.79,0,0,1-3,1.5,3.71,3.71,0,0,1-3.3-2.22,4,4,0,0,1,1.37-4.56,7,7,0,0,0-6,5.59c-.53,3.61,2.44,6.32,4.8,7.33.49.21,3.83,1.64,6.72-.35A6.71,6.71,0,0,0,123.93,76.47Z"/><path class="cls-31" d="M124.42,76.34a7.7,7.7,0,0,0-3.52-4.82.5.5,0,0,0-.68.68,3.15,3.15,0,0,1-.42,4,3.36,3.36,0,0,1-2.13.76,3.17,3.17,0,0,1-3-2.3A3.6,3.6,0,0,1,116.1,71c.43-.36-.06-.9-.49-.84a7.78,7.78,0,0,0-5.56,3.74,6.49,6.49,0,0,0,.39,6.91c2.38,3.43,7.65,5.36,11.29,2.71a7.3,7.3,0,0,0,2.69-7.22c-.12-.63-1.08-.37-1,.26a6.34,6.34,0,0,1-1.85,5.78,6.12,6.12,0,0,1-6,1.07c-3.39-1-6.58-4.71-5-8.48a6.74,6.74,0,0,1,5.22-3.8l-.48-.84A4.54,4.54,0,0,0,113.76,75a4.2,4.2,0,0,0,3.7,2.94,4.26,4.26,0,0,0,3.18-1.18,4.17,4.17,0,0,0,.44-5.07l-.68.68a6.69,6.69,0,0,1,3,4.22C123.59,77.23,124.55,77,124.42,76.34Z"/></g></g></svg>