<svg xmlns="http://www.w3.org/2000/svg" xmlns:xlink="http://www.w3.org/1999/xlink" viewBox="0 0 223.83 223.83"><defs><style>.cls-1{fill:url(#radial-gradient);}.cls-2{fill:#fff;}.cls-3,.cls-6{fill:none;stroke-miterlimit:10;}.cls-3{stroke:#f1f2f2;stroke-width:2.5px;}.cls-4{fill:url(#radial-gradient-2);}.cls-5{fill:url(#radial-gradient-3);}.cls-6{stroke:#fafae3;stroke-width:3px;}.cls-7{fill:#b86934;}.cls-8{fill:#fbb35a;}.cls-9{fill:#72a2cd;}.cls-10{fill:#144577;}.cls-11{fill:#5853a3;}.cls-12{fill:#c09555;}.cls-13{fill:#fbb578;}.cls-14{fill:#c98354;}.cls-15{fill:#f68a58;}.cls-16{fill:#dd6459;}.cls-17{fill:#f9a059;}.cls-18{fill:#2e2d76;}</style><radialGradient id="radial-gradient" cx="111.92" cy="111.92" r="111.92" gradientUnits="userSpaceOnUse"><stop offset="0" stop-color="#f6dde0"/><stop offset="1" stop-color="#5cb7b6"/></radialGradient><radialGradient id="radial-gradient-2" cx="56.12" cy="160.54" r="5.46" gradientUnits="userSpaceOnUse"><stop offset="0" stop-color="#fff"/><stop offset="1" stop-color="#fafae3"/></radialGradient><radialGradient id="radial-gradient-3" cx="63.65" cy="172.53" r="3.8" xlink:href="#radial-gradient-2"/></defs><g id="Layer_2" data-name="Layer 2"><g id="Layer_1-2" data-name="Layer 1"><rect class="cls-1" width="223.83" height="223.83"/><circle class="cls-2" cx="61.77" cy="27.68" r="3.57"/><circle class="cls-2" cx="29.43" cy="42.66" r="3.57"/><circle class="cls-2" cx="38.11" cy="64.59" r="3.57"/><circle class="cls-2" cx="29.43" cy="90.15" r="3.57"/><circle class="cls-2" cx="9.01" cy="77.43" r="3.57"/><line class="cls-3" x1="61.77" y1="27.68" x2="29.43" y2="42.66"/><line class="cls-3" x1="38.11" y1="64.59" x2="29.43" y2="42.66"/><line class="cls-3" x1="29.43" y1="90.15" x2="38.11" y2="64.59"/><line class="cls-3" x1="9.01" y1="77.43" x2="29.43" y2="90.15"/><circle class="cls-2" cx="182.5" cy="110.1" r="3.57"/><circle class="cls-2" cx="162.38" cy="92.11" r="3.57"/><line class="cls-3" x1="162.38" y1="92.11" x2="182.5" y2="110.1"/><polygon class="cls-4" points="55.74 154.24 51.65 160.85 56.76 166.85 60.59 160.54 55.74 154.24"/><polygon class="cls-5" points="63.65 168.13 60.59 171.32 63.65 176.94 66.72 172.79 63.65 168.13"/><polygon class="cls-6" points="161.39 33.65 157.92 39.27 162.25 44.36 165.51 39.01 161.39 33.65"/></g><g id="Layer_2-2" data-name="Layer 2"><polygon class="cls-7" points="68.78 116.63 80.18 137.66 83.73 135.55 71.79 115.7 68.78 116.63"/><polygon class="cls-8" points="116.22 161.4 115.45 168.74 132.18 170.4 133.66 157.93 116.6 160 116.22 161.4"/><polygon class="cls-8" points="108.02 161.08 108.78 168.42 92.06 170.08 90.57 157.61 107.63 159.68 108.02 161.08"/><path class="cls-9" d="M113.46,182.67c.29-2.35.42-2,.64-3.89s.92-7.85.32-10.21a1.5,1.5,0,0,1,.06-1.15,1.85,1.85,0,0,1,1.4-.7c3.17-.42,12.59,4.71,16.47,2.23.76-.49,1.37-1.3,1.79-1.08.76.38-.11,3.58-.19,3.89-.59,2.15-1.16,2.35-1.21,3.76a8.15,8.15,0,0,0,.83,3.39c.79,2.14,1.21,2.2,1.78,4a11.21,11.21,0,0,1,.4,1.59l-22.5-.06C113.31,183.87,113.38,183.31,113.46,182.67Z"/><path class="cls-10" d="M121.4,188.16a20,20,0,0,0,10-.25,19.44,19.44,0,0,0,4.53-2c0,.31,0,.6,0,.84.07,1.81.11,3.11-.7,3.89a3.48,3.48,0,0,1-2.68.64c-6.89-.42-8.34,1.43-14.36-.13-2.54-.65-3.9-1-4.66-2.29-.58-1-.58-2.21-.36-4.29A22.16,22.16,0,0,0,121.4,188.16Z"/><path class="cls-9" d="M121.4,188.16a22.16,22.16,0,0,1-8.17-3.58,1.1,1.1,0,0,0,0-.18l22.5.06c.1.54.16,1,.2,1.46a19.44,19.44,0,0,1-4.53,2A20,20,0,0,1,121.4,188.16Z"/><path class="cls-9" d="M111.53,182.34c-.3-2.36-.42-2-.64-3.9s-.93-7.84-.32-10.21a1.57,1.57,0,0,0-.07-1.15,1.87,1.87,0,0,0-1.4-.7c-3.16-.42-12.58,4.72-16.47,2.23-.76-.48-1.36-1.3-1.79-1.08-.75.39.11,3.58.2,3.89.58,2.16,1.15,2.35,1.21,3.77a8.48,8.48,0,0,1-.83,3.38c-.79,2.15-1.22,2.2-1.79,4a11.79,11.79,0,0,0-.39,1.59l22.49-.06C111.67,183.54,111.61,183,111.53,182.34Z"/><path class="cls-10" d="M103.58,187.83a20.16,20.16,0,0,1-10-.26,19.12,19.12,0,0,1-4.52-2c0,.32,0,.6-.05.84-.06,1.82-.11,3.11.71,3.9a3.45,3.45,0,0,0,2.68.63c6.89-.42,8.33,1.43,14.36-.12,2.54-.66,3.9-1,4.66-2.3.57-1,.58-2.21.35-4.29A21.91,21.91,0,0,1,103.58,187.83Z"/><path class="cls-9" d="M103.58,187.83a21.91,21.91,0,0,0,8.17-3.59,1.1,1.1,0,0,0,0-.18l-22.49.06a11.46,11.46,0,0,0-.2,1.46,19.12,19.12,0,0,0,4.52,2A20.16,20.16,0,0,0,103.58,187.83Z"/><path class="cls-8" d="M72.23,119.82a17.76,17.76,0,0,0-7.15,5.1,20.2,20.2,0,0,0-4.66,9.19c-.52,2.27-.93,4.16.13,5.37,1.27,1.45,3.9,1,6,.63,3-.52,5-1.59,12.06-5.29,2.23-1.18,3-1.24,3.41-1.66l.23-.26c1.55-1.92.68-12.48-4.79-14C75.81,118.47,74.35,119,72.23,119.82Z"/><path class="cls-8" d="M151.61,116a17.91,17.91,0,0,1,7.15,5.1,20.28,20.28,0,0,1,4.66,9.2c.51,2.26.92,4.16-.13,5.36-1.27,1.45-3.91,1-6,.64-3-.53-5-1.6-12.06-5.3-2.24-1.18-2.95-1.24-3.42-1.66,0,0-.12-.13-.22-.26-1.55-1.91-.69-12.48,4.78-14C148,114.69,149.48,115.24,151.61,116Z"/><path class="cls-11" d="M122.6,166.12a10.53,10.53,0,0,1,2.36-.19c2.12-.05,3.2-.06,4.28.39a3.3,3.3,0,0,1,2,1.53c.25.57.11,1-.32,2.93s-.66,2.94-.7,3.39c-.18,2.06.33,3.27-.13,3.51s-.74-.51-1.53-.9c-2.71-1.32-6.54,2.58-8.36,1.34a1.88,1.88,0,0,1-.71-.89,2.37,2.37,0,0,1,.26-1.6c.12-.32.18-.6-.13-4.14-.24-2.76-.3-2.88-.13-3.26C120.14,166.78,122,166.27,122.6,166.12Z"/><path class="cls-12" d="M130.46,173.93c-4.69-.23-5.94-.62-7.66-.27s-2.33,1.15-3,.78-1-1.95-.39-3c1.61-2.7,8.37-1.48,10.07-1.18a3.29,3.29,0,0,1,1.8.85c.72.76.92,2,.32,2.57A1.63,1.63,0,0,1,130.46,173.93Z"/><path class="cls-12" d="M129.37,179.43c-3.89-.16-4.93-.47-6.35-.19s-1.94.9-2.52.62a1.71,1.71,0,0,1-.31-2.34c1.34-2.11,6.94-1.18,8.35-.94a2.72,2.72,0,0,1,1.49.65c.59.59.76,1.59.26,2A1.41,1.41,0,0,1,129.37,179.43Z"/><path class="cls-11" d="M101.63,165.8a11.18,11.18,0,0,0-2.36-.19c-2.11-.05-3.19-.06-4.28.39a3.28,3.28,0,0,0-2,1.53c-.26.58-.12,1,.31,2.93s.67,2.94.71,3.39c.18,2.07-.34,3.28.12,3.51s.74-.51,1.54-.9c2.7-1.32,6.54,2.58,8.36,1.34a1.89,1.89,0,0,0,.7-.89,2.28,2.28,0,0,0-.26-1.59c-.12-.33-.18-.61.13-4.15.24-2.76.31-2.88.13-3.26C104.09,166.46,102.19,166,101.63,165.8Z"/><path class="cls-12" d="M93.77,173.61c4.69-.22,6-.62,7.67-.27s2.32,1.15,3,.78,1-2,.4-3c-1.62-2.7-8.37-1.48-10.07-1.17a3.17,3.17,0,0,0-1.8.84c-.73.76-.93,2.05-.33,2.57A1.64,1.64,0,0,0,93.77,173.61Z"/><path class="cls-12" d="M94.86,179c3.89-.16,4.93-.47,6.36-.19s1.93.9,2.51.62a1.72,1.72,0,0,0,.32-2.34c-1.35-2.11-6.94-1.18-8.36-.94a2.7,2.7,0,0,0-1.48.65c-.6.59-.76,1.59-.26,2A1.38,1.38,0,0,0,94.86,179Z"/><path class="cls-13" d="M143.22,125.59a34.79,34.79,0,0,0,3.35-6.44l1.8-7.42c-6.93-1.68-4.68-1.83-10.66-3.1-15.52-3.27-40.19-4.25-49.53-.17-.66.29-2.06,1-4.22,1.71-3.6,1.24-5.4,1.34-9,2.48.56.66,1.13,1.34,1.71,2.09a56.12,56.12,0,0,1,3.76,5.62c4.13,6.7,4.58,9.22,4.73,10.34a15.86,15.86,0,0,1,.13,1.93A7.14,7.14,0,0,1,82.39,139l-.09.17c-.67,1.22-1.46,5.3-.09,7.83l58.55.06a22.83,22.83,0,0,0,.23-2.62,32.6,32.6,0,0,0,.08-4.51c-.17-.92-.47-1.88,0-2.21.26-.2.57,0,1.06,0-1.28-1.39-2.8-3.49-2.64-5.94C139.6,129.59,140.88,129.07,143.22,125.59Z"/><path class="cls-14" d="M106.64,154.89A67.09,67.09,0,0,1,98,153.61a59.4,59.4,0,0,1-15-5.54c.52.43.86.38,1.12,1,.51,1.22-.15,3.09-.26,4.64a2,2,0,0,0,.13.89,2.34,2.34,0,0,0,.38.6c1.66,1.79,9.79,3.53,9.79,3.53,3,.64,2.29.7,4.89,1.23a59.47,59.47,0,0,0,12.09,1.15A87.25,87.25,0,0,0,125.84,160a63.35,63.35,0,0,0,8.46-2.21c1.76-.52,4.16-1.27,4.81-3.11a5.49,5.49,0,0,0,.26-1.44c.13-1.87-.58-2.73-.09-3.79a1.42,1.42,0,0,1,.13-.22,48,48,0,0,1-16.68,5.71A68.49,68.49,0,0,1,106.64,154.89Z"/><path class="cls-14" d="M82.81,129l-8.93-16c-4.44,1.55-4.95,2.5-5.06,3.1-.19,1,.49,1.76,1.36,2.9a74.29,74.29,0,0,1,5.44,8.68A41.89,41.89,0,0,1,79,134.85c.3.89,1,3.28,2,3.8l-1.45-10.57A8.24,8.24,0,0,1,82.81,129Z"/><path class="cls-13" d="M84.82,131a4.76,4.76,0,0,1,.51,1.68,15.86,15.86,0,0,0-.13-1.93c-.15-1.12-.6-3.64-4.73-10.34a56.12,56.12,0,0,0-3.76-5.62c-.58-.75-1.15-1.43-1.71-2.09l-.74.24-.38.13,8.93,16A4.85,4.85,0,0,1,84.82,131Z"/><path class="cls-13" d="M148.26,113.59c.14-.66.24-1.27.32-1.81l-.21,0-1.8,7.42A32,32,0,0,0,148.26,113.59Z"/><path class="cls-14" d="M85.33,132.63c0,.33,0,.63,0,.88L82.81,129a8.24,8.24,0,0,0-3.23-.93L81,138.65a.6.6,0,0,0,.38.11c.43,0,.91-.45,1.06-.3s0,.34-.08.52A7.14,7.14,0,0,0,85.33,132.63Z"/><path class="cls-13" d="M82.81,129l2.52,4.5c0-.25,0-.55,0-.88a4.76,4.76,0,0,0-.51-1.68A4.85,4.85,0,0,0,82.81,129Z"/><path class="cls-13" d="M82.44,147.7a3.21,3.21,0,0,0,.38.37,59.35,59.35,0,0,0,15,5.54,67,67,0,0,0,8.62,1.28,68.4,68.4,0,0,0,16.08,0,48,48,0,0,0,16.68-5.71c.2-.29.42-.29.81-.8a2.87,2.87,0,0,0,.54-1.34L82,147A4.3,4.3,0,0,0,82.44,147.7Z"/><path class="cls-14" d="M154.92,114.68c-.91-1.69-3-2-6.89-2.9h0c-.08.57-.19,1.2-.34,1.89a33.78,33.78,0,0,1-1.83,5.82L141,138.84a3.6,3.6,0,0,0,2.36-1.61c4.81-5.9,4-4.47,5.17-6.36a55.78,55.78,0,0,0,5-9.21C155,118,155.71,116.15,154.92,114.68Z"/><path class="cls-14" d="M142.18,126.22c-2.53,3.63-3.93,4.18-4.09,6.41-.17,2.56,1.47,4.76,2.87,6.21l4.87-19.35A35.7,35.7,0,0,1,142.18,126.22Z"/><circle class="cls-8" cx="111.79" cy="74.34" r="42.3"/><path class="cls-15" d="M104.07,67c-.49.37-4.84,3.76-4.6,8.85a8.45,8.45,0,0,0,1.54,4.6c3.52,4.79,12.41,4.4,18,1.53,1.7-.86,4-2.06,4.93-4.59,1.52-4.34-2.62-8.74-2.89-9C116.91,64,109,63.25,104.07,67Z"/><line class="cls-16" x1="104.76" y1="74.72" x2="119.23" y2="74.55"/><path class="cls-16" d="M104.76,76.59l14.47-.17c2.41,0,2.42-3.78,0-3.75l-14.47.17c-2.41,0-2.42,3.78,0,3.75Z"/><path class="cls-17" d="M76.64,75.9c-4.11,6-2.45,13.31-2.36,13.68a18.07,18.07,0,0,0,9.85,11.75c1.78.76,7.28,3.1,11.3-.15,2.16-1.76,2.91-4.33,3.55-6.55a21.51,21.51,0,0,0-.27-12.34c-.59-1.81-2.06-6.11-6-8.92C92,72.86,86.31,69,80.85,71.88A11.64,11.64,0,0,0,76.64,75.9Z"/><path class="cls-17" d="M147.27,77.47c4.31,5.42,2.57,11.94,2.48,12.27a14.48,14.48,0,0,1-3.31,5.74,17.35,17.35,0,0,1-7,4.8c-1.87.68-7.65,2.79-11.86-.13-2.27-1.57-3-3.88-3.73-5.87a16.68,16.68,0,0,1,.28-11.07,15.32,15.32,0,0,1,6.34-8c.75-.45,6.68-3.91,12.41-1.33A11.57,11.57,0,0,1,147.27,77.47Z"/><circle class="cls-18" cx="91.3" cy="72.5" r="4.94"/><circle class="cls-18" cx="135.21" cy="73.35" r="4.94"/><path class="cls-14" d="M113.85,122.08l3.14,6.35a.87.87,0,0,0,.65.48l7,1a.87.87,0,0,1,.48,1.48l-5.07,4.95a.85.85,0,0,0-.25.77l1.2,7a.87.87,0,0,1-1.26.91l-6.27-3.29a.83.83,0,0,0-.81,0L106.4,145a.87.87,0,0,1-1.26-.91l1.2-7a.85.85,0,0,0-.25-.77L101,131.4a.87.87,0,0,1,.48-1.48l7-1a.87.87,0,0,0,.65-.48l3.14-6.35A.87.87,0,0,1,113.85,122.08Z"/></g></g></svg>