<svg xmlns="http://www.w3.org/2000/svg" xmlns:xlink="http://www.w3.org/1999/xlink" viewBox="0 0 223.83 223.83"><defs><style>.cls-1{fill:url(#radial-gradient);}.cls-2{fill:#d87127;}.cls-3{fill:#f9f9fa;}.cls-4{fill:#f1843d;}.cls-5,.cls-8{fill:#fff;}.cls-6{fill:#923e20;}.cls-7{fill:none;}.cls-7,.cls-8{stroke:#fff;stroke-miterlimit:10;}</style><radialGradient id="radial-gradient" cx="111.92" cy="111.92" r="111.92" gradientUnits="userSpaceOnUse"><stop offset="0" stop-color="#f6dde0"/><stop offset="1" stop-color="#719c6f"/></radialGradient></defs><g id="Layer_2" data-name="Layer 2"><g id="Layer_1-2" data-name="Layer 1"><rect class="cls-1" width="223.83" height="223.83"/><path class="cls-2" d="M153.37,151.35c-6.56-6.65-10.26-10.45-12.46-12.42-.16-.57-.33-1.15-.52-1.71a14.12,14.12,0,0,0-5-7.31,12.32,12.32,0,0,0-2.82-1.48l-28.7-.53a48.11,48.11,0,0,0-6,8.74c-1.6.65-5.07,4.27-14.74,14.09-4.86,4.93-6.4,6.47-6.06,8.56.58,3.48,6.07,6.45,10.44,5.42,3.15-.73,4.9-3.34,6.68-6.4.11,1.45.21,3.27.32,5.61.61,14.3.92,21.46-.11,26.8-1.12,5.81-2.58,8.62-.83,11.76,2.4,4.32,8.54,5,9.91,5.19,1.68.19,7.64.88,10.33-2.65,1.84-2.4,1.43-5.79.94-9.75-.61-5-2.43-8.67-.52-10.69a3.51,3.51,0,0,1,.84-.64c2.49-1.58,6.19-1.39,7,.11.22.4,0,.58-.21,3.07-.12,1.21-.1,1.36-.21,2.54-.58,6.56-1.87,9.33-.73,12.08,1.49,3.57,6.11,4.73,8.35,5.29,1.75.44,5.92,1.49,9.6-.84a8.3,8.3,0,0,0,3.76-4.77c.38-1.58-.06-2.56-.42-4.77-.29-1.8-.24-2.63-.2-7.73.07-10.14-.16-20.28.1-30.41,1.87,3.25,3.63,6.06,6.92,6.83,4.38,1,9.86-1.94,10.44-5.43C159.76,157.83,158.23,156.29,153.37,151.35Z"/><path class="cls-3" d="M107.27,130.51c-7.59,8.82-7.43,19.66-7.38,23.52.08,5.53.15,10.3,3.62,14.33,4.07,4.73,10.29,5.52,14.06,6,3.12.39,6.66.83,10.57-1a16.76,16.76,0,0,0,7.52-7.37c2.36-4.24,2.36-8.1,2.36-12.67a34.92,34.92,0,0,0-4.31-18.09,30.53,30.53,0,0,0-4-5.56c-2.4-2.62-5.69-6.19-9.74-6.68C114.32,122.31,109.59,127.81,107.27,130.51Z"/><path class="cls-4" d="M77.21,58.42c-2.22,10-3.77,17.75-4.73,23.94-.42,2.66-.81,5.57-3.06,8.07-2.6,2.88-5.11,2.39-7.52,5.57-1.57,2.07-3.07,5.67-1.67,7.79s5,2.18,6.4,2.23c2.88.1,4.67-.78,5.57.28a2.8,2.8,0,0,1,.28,2.36c-.53,2-2.45,2-3.9,4-.09.13-2,2.9-1,5.7A6.07,6.07,0,0,0,72,122c2.36.51,5-.56,7.24-1.46,1.33-.54,2.18-1,3.41-.83a5,5,0,0,1,2.92,1.81c1.65,1.81,4.74,2.92,10.92,5.14,8.18,2.95,18,3,22.62,3.07,9.36,0,17.68.07,26.58-4.32a47.17,47.17,0,0,0,8.83-5.77c5-4.11,7.51-6.17,8.28-9.33.38-1.52.43-3.37,1.74-4,.94-.48,1.68.08,3.48.34,1.09.17,4.53.68,6.82-1.18a6.12,6.12,0,0,0,2.09-5.77c-.34-1.62-1.38-2.57-3.13-4.18-2.32-2.13-3.41-2.16-4.94-3.62-1.76-1.67-2.44-3.65-3.2-6.4a159.58,159.58,0,0,1-3.9-18.85c-1-7-1.49-10.57-1.67-13.64-.4-7,.31-7-.14-12.6-.46-5.74-1.56-9.37-3.76-16.63-1.28-4.25-2.44-7.24-5.35-9.18-1.21-.8-2.15-1.51-3.41-1.46-4.26.16-7.09,8.35-9.67,15.79a88.79,88.79,0,0,0-2.86,10.37,27.92,27.92,0,0,1-1,5.77,4,4,0,0,1-.56,1.54c-1.17,1.38-3.87.78-5.56.48-1.45-.25-8.8-1.54-14.76-.21-1.79.41-3.51.37-7,.28a2.67,2.67,0,0,1-1.53-.42c-1.49-1-1.3-3.64-1.26-4.45.16-3.11-2.19-9.78-6.89-23.1a10.2,10.2,0,0,0-3.89-5.5c-.52-.32-2.53-1.58-4.46-.9a3.93,3.93,0,0,0-1.46,1,22,22,0,0,0-4.66,7.31C79.81,27,78.78,30,78,34.28c-.34,2-.57,5.41-1,12.18a60.66,60.66,0,0,0-.07,9C77,56.72,77.12,57.72,77.21,58.42Z"/><path class="cls-2" d="M163,106.31a16.89,16.89,0,0,1,4,5.36,6.65,6.65,0,0,1,.83,3.15,6.22,6.22,0,0,1-1.9,4,7.71,7.71,0,0,1-5.59,2,9.74,9.74,0,0,1-5.83-2"/><path class="cls-5" d="M79.16,105.38a111.94,111.94,0,0,1,12.38,4.07c2,.8,4,1.65,6.54,1.26a11.24,11.24,0,0,0,5.71-2.95c3.44-3,2.57-5,5.43-7.71,3.26-3.14,7.54-3.6,9.32-3.79a18.49,18.49,0,0,1,9.19,1.4c1.85.76,3.68,1.51,5,3.37.88,1.24.68,1.77,1.8,3.65a12.37,12.37,0,0,0,3.48,4.07c2.51,1.66,5.43,1.25,7.38,1,3.52-.5,4-1.66,8.91-3.23,3.94-1.26,6.62-2.11,7.93-.84,1.78,1.73-.26,6.58-.56,7.3-5.32,12.59-24.19,16.34-27.41,17-7.47,1.48-13.36,1.09-20.18.63-6.36-.43-12.47-.88-19.9-3.72A42.58,42.58,0,0,1,78,115.76c-3.27-3.7-4.11-6.22-3.54-8.14A3.74,3.74,0,0,1,76.51,105,3.35,3.35,0,0,1,79.16,105.38Z"/><path class="cls-6" d="M133.5,67.57c-.76.17-2.1.47-2.5,1.47-.48,1.17.67,2.6,1.35,3.44a8.51,8.51,0,0,0,6.27,3.34c.89,0,2.86,0,3.65-1.25,1-1.55-.54-3.85-.84-4.28C139.59,67.62,136,67,133.5,67.57Z"/><path class="cls-6" d="M102.29,68.51A7.94,7.94,0,0,0,98,72.06a2.78,2.78,0,0,0-.41,2.3c.62,1.38,3.32,1.28,4.07,1.25a8.73,8.73,0,0,0,4.69-1.67c1-.7,3.17-2.29,2.82-4-.29-1.39-2.14-2-2.4-2.09C105.12,67.34,103.63,68,102.29,68.51Z"/><circle cx="104.22" cy="89.75" r="3.39"/><circle cx="135.48" cy="89.75" r="3.39"/><rect x="117.06" y="97.53" width="6.73" height="3.78" rx="1.89"/><polygon class="cls-2" points="100.33 132.5 93.26 140.47 97.27 141.24 100.54 132.5 100.33 132.5"/><polygon class="cls-2" points="136.2 130.56 146.27 144.15 138.39 144.15 136.2 130.56"/><path class="cls-5" d="M85.64,25.66c-1.41,1.95-4.6,6.94-5.29,21.16-.29,6,.16,7.58,1.25,8.21,1.33.76,3.27-.06,7.1-1.67a23.39,23.39,0,0,0,5.57-2.78,20.11,20.11,0,0,0,1.81-1.67c4.26-4.74-2.13-26.37-7.48-26C87.6,23,86.93,23.88,85.64,25.66Z"/><path class="cls-5" d="M150.71,26.43c1.4,1.94,4.6,6.94,5.28,21.15.29,6-.16,7.58-1.25,8.21-1.32.77-3.26,0-7.1-1.67-2.49-1-4-1.6-5.56-2.78a16.17,16.17,0,0,1-1.81-1.67c-4.26-4.74,2.12-26.37,7.48-26C148.75,23.75,149.41,24.64,150.71,26.43Z"/><path d="M111.13,107.1a4.29,4.29,0,0,0,.91,1.6,3.76,3.76,0,0,0,1.78,1.41,3.31,3.31,0,0,0,2-.08,5.49,5.49,0,0,0,1.85-1.09,7.52,7.52,0,0,0,1.24-1.1c.44-.5.55-.8,1-1a1.38,1.38,0,0,1,1.06,0,1.47,1.47,0,0,1,.55.49c.31.38.66.74,1,1.11a5.22,5.22,0,0,0,1.82,1.37,3.88,3.88,0,0,0,2.08.42,3.66,3.66,0,0,0,1.88-.74,4,4,0,0,0,1.07-1.39c.54-1,.56-1.37.53-1.52s-.2-.66-.48-.72-.61.31-.89.64c-.56.68-.46,1-.87,1.41a2.38,2.38,0,0,1-1.48.7,2.76,2.76,0,0,1-1.78-.73,7.08,7.08,0,0,1-1.56-1.64c-.45-.65-.45-.82-.79-1.06a2.31,2.31,0,0,0-1.74-.29c-.51.14-.77.42-1.41,1.07-2,2-2.38,2.26-2.67,2.4a2.51,2.51,0,0,1-2,.38,2.92,2.92,0,0,1-1.35-1.67c-.19-.54-.1-.79-.38-1.12s-1-.65-1.31-.43S111,106.78,111.13,107.1Z"/><polygon class="cls-7" points="46.33 44.74 44.89 48.99 47.58 52.58 43.09 52.53 40.5 56.19 39.17 51.9 34.88 50.57 38.55 47.98 38.49 43.49 42.08 46.18 46.33 44.74"/><polygon class="cls-8" points="49.44 56.8 48.69 59.02 50.09 60.89 47.75 60.86 46.41 62.77 45.71 60.53 43.48 59.84 45.39 58.49 45.36 56.16 47.23 57.55 49.44 56.8"/><polygon class="cls-8" points="55.9 44.14 55.15 46.35 56.55 48.23 54.21 48.2 52.86 50.11 52.17 47.87 49.94 47.18 51.84 45.83 51.81 43.49 53.69 44.89 55.9 44.14"/><polygon class="cls-7" points="164.37 156.8 161.59 153.27 157.12 153.56 159.61 149.83 157.95 145.66 162.27 146.88 165.72 144.01 165.9 148.5 169.69 150.9 165.48 152.45 164.37 156.8"/><polygon class="cls-8" points="152.56 152.83 151.12 150.99 148.78 151.14 150.08 149.2 149.22 147.03 151.47 147.66 153.26 146.17 153.36 148.51 155.33 149.76 153.14 150.56 152.56 152.83"/><polygon class="cls-8" points="160.31 41.58 158.86 39.74 156.53 39.9 157.83 37.95 156.96 35.78 159.21 36.42 161.01 34.92 161.1 37.26 163.08 38.51 160.88 39.32 160.31 41.58"/></g></g></svg>