<svg xmlns="http://www.w3.org/2000/svg" xmlns:xlink="http://www.w3.org/1999/xlink" viewBox="0 0 223.83 223.83"><defs><style>.cls-1{fill:url(#radial-gradient);}.cls-10,.cls-2{fill:none;}.cls-2{stroke:#fafae3;stroke-miterlimit:10;stroke-width:3px;}.cls-3{fill:url(#radial-gradient-2);}.cls-4{fill:url(#radial-gradient-3);}.cls-5{fill:#47b75a;}.cls-6{fill:#9c7ab7;}.cls-7{fill:#cf729e;}.cls-8{fill:#4d4d4d;}.cls-9{fill:#dadada;}.cls-11{fill:#d3d059;opacity:0.8;}.cls-12{fill:#baba4c;}.cls-13{fill:#865ca6;}</style><radialGradient id="radial-gradient" cx="111.92" cy="111.92" r="111.92" gradientUnits="userSpaceOnUse"><stop offset="0" stop-color="#fff"/><stop offset="1" stop-color="#f0d966"/></radialGradient><radialGradient id="radial-gradient-2" cx="66.57" cy="162.93" r="4.85" gradientUnits="userSpaceOnUse"><stop offset="0" stop-color="#fff"/><stop offset="1" stop-color="#fafae3"/></radialGradient><radialGradient id="radial-gradient-3" cx="57.25" cy="183.36" r="3.13" xlink:href="#radial-gradient-2"/></defs><g id="Layer_2" data-name="Layer 2"><g id="Layer_1-2" data-name="Layer 1"><rect class="cls-1" width="223.83" height="223.83"/><line class="cls-2" x1="185.14" y1="131.92" x2="183.29" y2="141.94"/><line class="cls-2" x1="185.54" y1="132.28" x2="187.55" y2="142.26"/><line class="cls-2" x1="196.77" y1="143.43" x2="186.83" y2="141.21"/><line class="cls-2" x1="196.26" y1="143.78" x2="186.26" y2="145.7"/><line class="cls-2" x1="185.62" y1="154.53" x2="187.47" y2="144.52"/><line class="cls-2" x1="185.22" y1="154.18" x2="183.21" y2="144.19"/><line class="cls-2" x1="173.42" y1="143.25" x2="183.36" y2="145.47"/><line class="cls-2" x1="173.93" y1="142.9" x2="183.93" y2="140.98"/><line class="cls-2" x1="47.12" y1="51.03" x2="46.1" y2="56.56"/><line class="cls-2" x1="47.34" y1="51.22" x2="48.45" y2="56.74"/><line class="cls-2" x1="53.55" y1="57.39" x2="48.05" y2="56.16"/><line class="cls-2" x1="53.27" y1="57.58" x2="47.74" y2="58.64"/><line class="cls-2" x1="47.38" y1="63.53" x2="48.4" y2="57.99"/><line class="cls-2" x1="47.17" y1="63.33" x2="46.05" y2="57.81"/><line class="cls-2" x1="40.64" y1="57.29" x2="46.14" y2="58.51"/><line class="cls-2" x1="40.92" y1="57.1" x2="46.45" y2="56.03"/><polygon class="cls-3" points="66.57 156.93 63.25 163.31 66.57 168.93 69.89 162.93 66.57 156.93"/><polygon class="cls-4" points="56.61 179.66 54.82 184.25 58.4 187.06 59.67 180.86 56.61 179.66"/></g><g id="Layer_2-2" data-name="Layer 2"><g id="Layer_3" data-name="Layer 3"><path class="cls-5" d="M130.86,162.84l-13.69,1.35L115.47,182a3,3,0,0,0-.6,1.75c0,2.43,3.22,4.41,7.2,4.41s7.19-2,7.19-4.41a2.94,2.94,0,0,0-.47-1.56Z"/><path class="cls-5" d="M76.23,146.28a4.54,4.54,0,0,0,.45-.21l10.13-3.8L80.5,130.44l-9.64,4.47,0,.12c-1.53,1.3-2,4.1-1,6.87C71.16,145.16,74,147.12,76.23,146.28Z"/><path class="cls-5" d="M156,136.85a3,3,0,0,0-.42-.27l-8.67-6.47-6.54,11.7,9,5.7.07-.11c1.92.59,4.53-.54,6.3-2.9C157.8,141.72,157.93,138.29,156,136.85Z"/><path class="cls-6" d="M138.36,145.4l10.21-18.26-13.63-5.21H91.78l-13.23,5,9.77,18.51L92.79,137l-8.43,21.45h.13c0,1.32,4.1,2.25,9,3.38s9.59,1.46,19,2.16l.67,0a61.08,61.08,0,0,0,18-1.25l.88-.2c.45-.11,9.77-2.39,9.77-4.14H142l-8.24-21Z"/><path class="cls-7" d="M129.63,174.41c-4.4,1.41-8.8-1.23-13.2-2.41l-1,10.05a3,3,0,0,0-.6,1.75c0,2.44,3.22,4.41,7.2,4.41s7.19-2,7.19-4.41a3,3,0,0,0-.47-1.56Z"/><path class="cls-5" d="M95.93,162.17l13.69,1.34,1.7,17.83a3,3,0,0,1,.6,1.75c0,2.43-3.22,4.4-7.2,4.4s-7.2-2-7.2-4.4a3,3,0,0,1,.48-1.56Z"/><path class="cls-7" d="M97.16,173.7c4.4,1.41,8.8-1.24,13.2-2.42l1,10.06a3,3,0,0,1,.6,1.75c0,2.43-3.22,4.4-7.2,4.4s-7.2-2-7.2-4.4a3,3,0,0,1,.48-1.56Z"/><path class="cls-8" d="M106.3,170.85a2,2,0,0,0-1.32-.73,5.09,5.09,0,0,0-3.28.17,1.49,1.49,0,0,0-.72.56,1.56,1.56,0,0,0-.13,1.23l1.4,8.26c0,.31,1.19.69,2.09.76a1.55,1.55,0,0,0,1.34-.3.85.85,0,0,0,.21-.46h0l.35-6h0c.07-.38.12-1.14.21-2.33A1.9,1.9,0,0,0,106.3,170.85Z"/><path class="cls-9" d="M101.4,176.8c2.4-.29,3-.56,3.92-.42s1.22.57,1.57.34A1.46,1.46,0,0,0,107,175c-.91-1.5-4.33-.55-5.19-.32a1.66,1.66,0,0,0-.9.56c-.34.46-.41,1.21-.08,1.49A.72.72,0,0,0,101.4,176.8Z"/><path class="cls-9" d="M102.14,180.09a15.38,15.38,0,0,1,3.25-.33c.75.11,1,.45,1.31.26a1.07,1.07,0,0,0,.08-1.35c-.75-1.17-3.59-.44-4.3-.25a1.32,1.32,0,0,0-.74.43c-.29.36-.34.94-.07,1.16A.64.64,0,0,0,102.14,180.09Z"/><path class="cls-8" d="M120.59,170.58A2,2,0,0,1,122,170a5.06,5.06,0,0,1,3.27.39,1.51,1.51,0,0,1,.69.61,1.56,1.56,0,0,1,0,1.24l-2,8.18c0,.31-1.23.61-2.14.62a1.54,1.54,0,0,1-1.32-.39.87.87,0,0,1-.18-.48h0l.06-6h0c0-.38,0-1.14,0-2.34A1.86,1.86,0,0,1,120.59,170.58Z"/><path class="cls-9" d="M125.09,176.89c-2.38-.46-3-.78-3.9-.7s-1.27.5-1.6.24a1.47,1.47,0,0,1,0-1.76c1-1.44,4.38-.26,5.23,0a1.64,1.64,0,0,1,.86.61c.31.49.32,1.25,0,1.5A.77.77,0,0,1,125.09,176.89Z"/><path class="cls-9" d="M124.12,180.13a15,15,0,0,0-3.23-.55c-.76.06-1,.38-1.33.17a1.08,1.08,0,0,1,0-1.36c.83-1.12,3.62-.19,4.33,0a1.43,1.43,0,0,1,.71.48c.26.38.28,1,0,1.17A.64.64,0,0,1,124.12,180.13Z"/><path class="cls-10" d="M96.47,82.9l-.12-.18a1.51,1.51,0,0,1,.1.17Z"/><path class="cls-10" d="M85.2,74.16c-.25-.06-.49-.12-.75-.16l0,0C84.73,74.07,85,74.1,85.2,74.16Z"/><path class="cls-10" d="M97.2,84.23c-.23-.45-.47-.89-.73-1.32h0C96.72,83.34,97,83.78,97.2,84.23Z"/><path class="cls-10" d="M84.45,74l-.87-.13c.29,0,.58.1.87.16Z"/><path class="cls-5" d="M96.45,82.89a1.51,1.51,0,0,0-.1-.17l-.07-.12c-.32-.51-.65-1-1-1.48s-.72-.93-1.1-1.36l-.09-.11c-.37-.41-.75-.8-1.15-1.18l-.15-.14c-.38-.36-.78-.7-1.19-1l-.19-.15c-.41-.32-.83-.61-1.25-.88l-.22-.13a14.31,14.31,0,0,0-1.32-.74l-.21-.11c-.46-.22-.92-.42-1.4-.6l-.19-.06c-.49-.18-1-.33-1.49-.46l-.13,0c-.23-.06-.47-.09-.7-.13Z"/><path class="cls-11" d="M100,96.26c0-.69,0-1.37-.08-2.05a.92.92,0,0,0,0-.16c0-.64-.13-1.27-.22-1.9l0-.24c-.1-.61-.22-1.2-.36-1.79l-.06-.27c-.14-.58-.3-1.15-.47-1.71l-.09-.27c-.18-.56-.38-1.1-.6-1.63,0-.08-.06-.16-.1-.25q-.33-.8-.72-1.56a1.86,1.86,0,0,0-.1-.2c-.23-.45-.48-.89-.74-1.32l-14,7.91,2-16.8c-.29-.06-.58-.12-.87-.16a14.6,14.6,0,0,0-1.88-.12c-.43,0-.85,0-1.27.06l-.4,0-.88.13-.42.08-.89.2-.34.09c-.4.12-.8.25-1.19.39l-.17.08c-.34.13-.66.27-1,.42l-.36.18-.78.41-.37.22-.52.33c-.29.19-.57.39-.85.59l-.46.35q-.42.33-.81.69c-.14.12-.27.23-.4.36-.33.3-.65.63-1,1l-.18.18c-.36.4-.71.82-1,1.26-.1.12-.19.26-.29.39-.23.31-.46.63-.68,1l-.33.51c-.19.32-.38.63-.56,1l-.3.55c-.18.35-.35.71-.52,1.07-.08.17-.16.33-.23.5-.23.54-.45,1.08-.65,1.64,0,.09,0,.18,0,.28,0,12.63,7.23,23.86,18.46,31.06C92.68,117.69,100,108,100,96.26Z"/><path class="cls-12" d="M73.42,76.17l-.3.2.52-.33Z"/><path class="cls-12" d="M84.5,74l0,0h0v0Z"/><path class="cls-12" d="M96.46,82.91h0Z"/><polygon class="cls-12" points="96.47 82.91 96.47 82.9 96.47 82.91 96.47 82.91"/><polygon class="cls-12" points="84.45 73.99 84.45 74 84.45 74 84.45 73.99"/><path d="M120.91,59.07c-.46.16-.63.94-.73,1.3a6.56,6.56,0,0,1-2.34,3.07,6.52,6.52,0,0,1-3.79,1.83,5.92,5.92,0,0,1-3.3-.71,7.8,7.8,0,0,1-3.4-3.72c-.31-.71-.54-1.54-1.12-1.71a1,1,0,0,0-1.12.47c-.59,1.18,1.44,4.35,3.64,6.2a7.86,7.86,0,0,0,3.07,1.77A7.34,7.34,0,0,0,118.23,66c2.51-2.13,3.93-6,3.36-6.73A.65.65,0,0,0,120.91,59.07Z"/><circle cx="81.26" cy="52.74" r="4.26"/><circle cx="142.58" cy="52.74" r="4.26"/><path class="cls-5" d="M129.61,84.23l14.24-9.36C138.38,75.48,133.19,78.94,129.61,84.23Z"/><path class="cls-11" d="M149,75.17a15.32,15.32,0,0,0-5.17-.3l-1.27,18.64-13-9.28a28.14,28.14,0,0,0-4,9.32c-2.92,12.5,2.84,24.53,12.86,26.88l.26,0c12.94-7,21.48-19.12,21.48-32.85a32.59,32.59,0,0,0-.2-3.44A16.78,16.78,0,0,0,149,75.17Z"/><polygon class="cls-12" points="129.61 84.23 129.61 84.23 129.61 84.23 129.61 84.23"/><polygon class="cls-12" points="143.85 74.87 143.85 74.87 143.85 74.87 143.85 74.87"/><path class="cls-5" d="M160.17,55c0-10.71-8.25-19.4-18.42-19.4A18.56,18.56,0,0,0,124.1,49.48a57.77,57.77,0,0,0-24.56.31A18.54,18.54,0,0,0,82.09,36.56c-10.18,0-18.43,8.69-18.43,19.41a19.82,19.82,0,0,0,6.06,14.35,33.67,33.67,0,0,0-4.86,17c.2-.56.42-1.1.65-1.64.07-.17.15-.33.23-.5.17-.36.34-.72.52-1.07l.3-.55c.18-.33.37-.64.56-1l.33-.51c.22-.34.45-.66.68-1,.1-.13.19-.27.29-.39.33-.44.68-.86,1-1.26l.18-.18c.31-.33.63-.66,1-1,.13-.13.26-.24.4-.36s.53-.47.81-.69l.46-.35c.28-.2.56-.4.85-.59l.3-.2.22-.13.37-.22.78-.41.36-.18c.33-.15.65-.29,1-.42l.17-.08c.39-.14.79-.27,1.19-.39l.34-.09.89-.2.42-.08.88-.13.4,0c.42,0,.84-.06,1.27-.06a14.6,14.6,0,0,1,1.88.12l.87.13h0c.26,0,.5.1.75.16l.13,0c.5.13,1,.28,1.49.46l.19.06c.48.18.94.38,1.4.6l.21.11a14.31,14.31,0,0,1,1.32.74l.22.13c.42.27.84.56,1.25.88l.19.15c.41.32.81.66,1.19,1l.15.14c.4.38.78.77,1.15,1.18l.09.11c.38.43.75.89,1.1,1.36s.68,1,1,1.48l.07.12.12.18h0c.26.43.5.87.73,1.32a1.86,1.86,0,0,1,.1.2q.39.76.72,1.56c0,.09.07.17.1.25.22.53.42,1.07.6,1.63l.09.27c.17.56.33,1.13.47,1.71l.06.27c.14.59.26,1.18.36,1.79l0,.24c.09.63.17,1.26.22,1.9a.92.92,0,0,1,0,.16c.05.68.08,1.36.08,2.05,0,11.77-7.36,21.43-16.73,22.43a54.17,54.17,0,0,0,29.2,8.26,54.88,54.88,0,0,0,26.18-6.47l-.26,0c-10-2.35-15.78-14.38-12.86-26.88a28.14,28.14,0,0,1,4-9.32h0c3.58-5.29,8.77-8.75,14.24-9.36l-14.24,9.36h0l13,9.28,1.27-18.64a15.32,15.32,0,0,1,5.17.3,16.78,16.78,0,0,1,10.95,9A34.19,34.19,0,0,0,154.5,69,19.86,19.86,0,0,0,160.17,55ZM81.26,57a4.26,4.26,0,1,1,4.25-4.25A4.25,4.25,0,0,1,81.26,57Zm37,9a7.34,7.34,0,0,1-6.41,1.59,7.86,7.86,0,0,1-3.07-1.77c-2.2-1.85-4.23-5-3.64-6.2a1,1,0,0,1,1.12-.47c.58.17.81,1,1.12,1.71a7.8,7.8,0,0,0,3.4,3.72,5.92,5.92,0,0,0,3.3.71,6.52,6.52,0,0,0,3.79-1.83,6.56,6.56,0,0,0,2.34-3.07c.1-.36.27-1.14.73-1.3a.65.65,0,0,1,.68.18C122.16,60,120.74,63.85,118.23,66Zm24.35-9a4.26,4.26,0,1,1,4.25-4.25A4.25,4.25,0,0,1,142.58,57Z"/><path class="cls-5" d="M96.45,82.89,84.5,74h0l-2,16.8,14-7.91Z"/><polygon class="cls-13" points="138.36 145.4 137.65 147.34 133.76 137.42 138.36 145.4"/><polygon class="cls-13" points="88.32 145.4 88.92 146.8 92.79 136.97 88.32 145.4"/></g></g></g></svg>