<svg id="Layer_1" data-name="Layer 1" xmlns="http://www.w3.org/2000/svg" xmlns:xlink="http://www.w3.org/1999/xlink" viewBox="0 0 476.46 207.28"><defs><style>.cls-1{fill:#ede66b;stroke:#ede66b;stroke-miterlimit:10;stroke-width:3px;}.cls-2{fill:#ddbd36;}.cls-3{fill:#89620c;}.cls-4{fill:#cc4c4c;}.cls-5{fill:#a162d3;}.cls-6{fill:#f93073;}.cls-7{fill:#1c6618;}.cls-8{fill:url(#radial-gradient);}.cls-9{font-size:38px;fill:#d1d0cf;font-family:BalooBhaina-Regular, Baloo Bhaina;}.cls-10{letter-spacing:0em;}.cls-11{letter-spacing:-0.04em;}.cls-12{letter-spacing:0em;}.cls-13{letter-spacing:0em;}.cls-14{letter-spacing:0em;}.cls-15{letter-spacing:-0.03em;}.cls-16{letter-spacing:0.02em;}.cls-17{letter-spacing:0em;}.cls-18{letter-spacing:-0.01em;}.cls-19{letter-spacing:-0.03em;}.cls-20{fill:#e5e5e5;}.cls-21{fill:#f1ff8d;}.cls-22{fill:#7695b7;}.cls-23{fill:#df87e8;}.cls-24{fill:#f1ff66;}.cls-25{fill:#e8a76d;}.cls-26{fill:#e5c36e;}.cls-27{fill:#8a70b2;}.cls-28{fill:#a2dddd;}.cls-29{fill:#f96262;}.cls-30{fill:#275596;}.cls-31{fill:#52ccc9;}.cls-32{fill:#49cebe;}</style><radialGradient id="radial-gradient" cx="237.78" cy="106.72" r="132.09" gradientUnits="userSpaceOnUse"><stop offset="0" stop-color="#679b4b"/><stop offset="1" stop-color="#7ab55e"/></radialGradient></defs><rect class="cls-1" x="390.82" y="63.69" width="49.46" height="216.99" rx="14.38" transform="translate(432.96 581.24) rotate(-120.05)"/><path class="cls-2" d="M333.66,206.44,386.4,176,470,127.75l19.35-11.16a1.5,1.5,0,0,0-1.51-2.59l-52.74,30.43L351.5,192.68l-19.35,11.16a1.5,1.5,0,0,0,1.51,2.6Z" transform="translate(-41.62 -36.86)"/><path class="cls-3" d="M355.79,233.35l-5.36-9.28a1.5,1.5,0,0,0-2.59,1.52l5.36,9.28a1.5,1.5,0,0,0,2.59-1.52Z" transform="translate(-41.62 -36.86)"/><path class="cls-3" d="M370.35,224.83,365,215.55a1.5,1.5,0,0,0-2.59,1.52l5.37,9.28a1.5,1.5,0,0,0,2.59-1.52Z" transform="translate(-41.62 -36.86)"/><path class="cls-3" d="M385,216.46l-8-13.82a1.5,1.5,0,0,0-2.59,1.51l8,13.82a1.5,1.5,0,0,0,2.59-1.51Z" transform="translate(-41.62 -36.86)"/><path class="cls-3" d="M400.18,208.47l-5.37-9.28a1.5,1.5,0,0,0-2.59,1.52l5.37,9.28a1.5,1.5,0,0,0,2.59-1.52Z" transform="translate(-41.62 -36.86)"/><path class="cls-3" d="M414.74,200l-5.37-9.28a1.5,1.5,0,0,0-2.59,1.52l5.37,9.28a1.5,1.5,0,0,0,2.59-1.52Z" transform="translate(-41.62 -36.86)"/><path class="cls-3" d="M429.39,191.58l-8-13.82a1.5,1.5,0,0,0-2.59,1.51l8,13.82a1.5,1.5,0,0,0,2.59-1.51Z" transform="translate(-41.62 -36.86)"/><path class="cls-3" d="M444,182.62l-5.37-9.28a1.5,1.5,0,0,0-2.59,1.52l5.37,9.28a1.5,1.5,0,0,0,2.59-1.52Z" transform="translate(-41.62 -36.86)"/><path class="cls-3" d="M458.5,174.11l-5.36-9.28a1.5,1.5,0,0,0-2.59,1.51l5.36,9.28a1.5,1.5,0,0,0,2.59-1.51Z" transform="translate(-41.62 -36.86)"/><path class="cls-3" d="M473.15,165.73l-8-13.82a1.5,1.5,0,0,0-2.59,1.52l8,13.81a1.5,1.5,0,0,0,2.59-1.51Z" transform="translate(-41.62 -36.86)"/><path class="cls-3" d="M487.81,156.94l-5.36-9.28a1.5,1.5,0,0,0-2.59,1.51l5.36,9.28a1.5,1.5,0,0,0,2.59-1.51Z" transform="translate(-41.62 -36.86)"/><path class="cls-3" d="M502.37,148.42,497,139.14a1.5,1.5,0,0,0-2.6,1.51l5.37,9.28a1.5,1.5,0,0,0,2.59-1.51Z" transform="translate(-41.62 -36.86)"/><path class="cls-4" d="M356.74,107.62l-8.28-34.07-1.74,3.08,34.07-8.28-3.08-1.74L386,100.68l1.75-3.08-34.08,8.28c-3.12.76-1.8,5.58,1.33,4.82l34.08-8.28a2.53,2.53,0,0,0,1.74-3.07l-8.27-34.07a2.55,2.55,0,0,0-3.08-1.75l-34.07,8.28a2.54,2.54,0,0,0-1.75,3.07L351.92,109C352.68,112.08,357.5,110.76,356.74,107.62Z" transform="translate(-41.62 -36.86)"/><path class="cls-5" d="M111.38,37.36A63.88,63.88,0,0,0,41.69,85.49a2.53,2.53,0,0,0,1.75,3.07l59.11,13.84c1.18.28,2.89-.36,3.08-1.74l8.16-60.14c.43-3.15-4.39-4.51-4.82-1.33l-8.16,60.14,3.07-1.75L44.77,83.74l1.74,3.07a59,59,0,0,1,64.87-44.45C114.57,42.75,114.54,37.75,111.38,37.36Z" transform="translate(-41.62 -36.86)"/><path class="cls-6" d="M127.43,57c-1.89-.45-3.78-.78-5.67-1l-8.16,60.13,34.14-50.18A60.51,60.51,0,0,0,127.43,57Z" transform="translate(-41.62 -36.86)"/><path class="cls-6" d="M128.1,54.56c-1.89-.41-3.76-.75-5.67-1-1.2-.18-2.88.28-3.08,1.74l-8.16,60.14c-.37,2.73,2.88,4.41,4.57,1.92l34.13-50.18a2.54,2.54,0,0,0-.89-3.42,67.08,67.08,0,0,0-20.9-9.16c-3.12-.78-4.46,4-1.33,4.82A62.7,62.7,0,0,1,146.47,68l-.89-3.43L111.44,114.8l4.57,1.93,8.16-60.14-3.07,1.75c1.91.29,3.78.63,5.67,1C129.91,60.06,131.25,55.24,128.1,54.56Z" transform="translate(-41.62 -36.86)"/><path class="cls-7" d="M145.58,64.61,111.44,114.8l2.82-1.15L55.15,99.81a2.54,2.54,0,0,0-3.08,1.75c-8,35.88,16.19,72,53,77.09s70.8-23.87,71.78-61C177.38,96.09,166.53,76,149,63.72c-2.65-1.85-5.15,2.48-2.53,4.32,29.56,20.64,33.9,64.21,7.86,89.62-23.79,23.21-63.45,21.49-85-3.85a58.81,58.81,0,0,1-12.4-50.92l-3.07,1.74,59.11,13.84a2.59,2.59,0,0,0,2.83-1.15l34.13-50.18C151.71,64.47,147.38,62,145.58,64.61Z" transform="translate(-41.62 -36.86)"/><ellipse class="cls-8" cx="237.78" cy="106.72" rx="178.96" ry="53.54"/><text class="cls-9" transform="translate(98.33 103.53)"><tspan class="cls-10">M</tspan><tspan class="cls-11" x="30.48" y="0">A</tspan><tspan class="cls-12" x="52.97" y="0">T</tspan><tspan class="cls-13" x="74.1" y="0">E</tspan><tspan class="cls-14" x="95.08" y="0">M</tspan><tspan class="cls-15" x="125.55" y="0">Á</tspan><tspan x="148.05" y="0">TI</tspan><tspan class="cls-16" x="180.76" y="0">C</tspan><tspan class="cls-17" x="203.03" y="0">A </tspan><tspan class="cls-18" x="234.46" y="0">D</tspan><tspan class="cls-17" x="259.5" y="0">A </tspan><tspan x="101.27" y="45.6">F</tspan><tspan class="cls-19" x="121.45" y="45.6">L</tspan><tspan x="139.8" y="45.6">OR</tspan></text><ellipse class="cls-20" cx="410.45" cy="84.47" rx="1.68" ry="9.29"/><ellipse class="cls-20" cx="455.42" cy="121.86" rx="9.29" ry="1.68" transform="translate(167.74 487.13) rotate(-73.52)"/><ellipse class="cls-20" cx="458.54" cy="123.39" rx="9.29" ry="1.68" transform="translate(4.08 321.13) rotate(-44.67)"/><ellipse class="cls-20" cx="460.53" cy="126.14" rx="9.29" ry="1.68" transform="translate(-46.59 195.62) rotate(-28.19)"/><ellipse class="cls-20" cx="461.8" cy="128.54" rx="9.29" ry="1.68" transform="translate(-58.03 58.66) rotate(-11.6)"/><ellipse class="cls-20" cx="461.96" cy="131.93" rx="1.68" ry="9.29" transform="translate(249.61 544.14) rotate(-85.12)"/><ellipse class="cls-20" cx="461.09" cy="135.3" rx="1.68" ry="9.29" transform="translate(50.93 406.8) rotate(-56.27)"/><ellipse class="cls-20" cx="458.8" cy="137.8" rx="1.68" ry="9.29" transform="translate(-23.54 288.67) rotate(-39.79)"/><ellipse class="cls-20" cx="455.24" cy="138.76" rx="1.68" ry="9.29" transform="translate(-62.11 115) rotate(-18.53)"/><ellipse class="cls-20" cx="451.89" cy="139.33" rx="1.68" ry="9.29" transform="matrix(1, -0.04, 0.04, 1, -46.31, -20.63)"/><ellipse class="cls-20" cx="448.44" cy="138.87" rx="9.29" ry="1.68" transform="translate(80.67 439.66) rotate(-63.2)"/><ellipse class="cls-20" cx="445.69" cy="136.89" rx="9.29" ry="1.68" transform="translate(-1.15 330.62) rotate(-46.72)"/><ellipse class="cls-20" cx="443.71" cy="135.02" rx="9.29" ry="1.68" transform="translate(-49.43 204.14) rotate(-30.13)"/><ellipse class="cls-20" cx="442.49" cy="131.85" rx="9.29" ry="1.68" transform="translate(-60.24 71.3) rotate(-13.65)"/><ellipse class="cls-20" cx="442.24" cy="128.38" rx="1.68" ry="9.29" transform="translate(160.8 484.64) rotate(-74.8)"/><ellipse class="cls-20" cx="443.63" cy="125.29" rx="1.68" ry="9.29" transform="translate(62.41 400.15) rotate(-58.32)"/><ellipse class="cls-20" cx="445.68" cy="122.71" rx="1.68" ry="9.29" transform="translate(-24.36 259.47) rotate(-37.45)"/><ellipse class="cls-20" cx="448.66" cy="121.09" rx="1.68" ry="9.29" transform="translate(-55.23 131.74) rotate(-20.97)"/><circle class="cls-21" cx="410.28" cy="93.1" r="3.17"/><ellipse class="cls-22" cx="153.82" cy="49.76" rx="1.56" ry="8.65"/><ellipse class="cls-22" cx="198.56" cy="87.11" rx="8.65" ry="1.56" transform="translate(17.07 215.94) rotate(-73.52)"/><ellipse class="cls-22" cx="201.47" cy="88.54" rx="8.65" ry="1.56" transform="translate(-45.67 130.34) rotate(-44.67)"/><ellipse class="cls-22" cx="203.32" cy="91.1" rx="8.65" ry="1.56" transform="translate(-60.54 69.97) rotate(-28.19)"/><ellipse class="cls-22" cx="204.51" cy="93.35" rx="8.65" ry="1.56" transform="translate(-56.21 6.18) rotate(-11.6)"/><ellipse class="cls-22" cx="204.66" cy="96.5" rx="1.56" ry="8.65" transform="translate(49.48 255.35) rotate(-85.12)"/><ellipse class="cls-22" cx="203.85" cy="99.64" rx="1.56" ry="8.65" transform="translate(-33.83 176.99) rotate(-56.27)"/><ellipse class="cls-22" cx="201.71" cy="101.97" rx="1.56" ry="8.65" transform="translate(-60.16 115.84) rotate(-39.79)"/><ellipse class="cls-22" cx="198.39" cy="102.87" rx="1.56" ry="8.65" transform="translate(-64.02 31.52) rotate(-18.53)"/><ellipse class="cls-22" cx="195.27" cy="103.39" rx="1.56" ry="8.65" transform="translate(-45.19 -29.82) rotate(-2.05)"/><ellipse class="cls-22" cx="192.06" cy="102.97" rx="8.65" ry="1.56" transform="translate(-28.06 191.1) rotate(-63.2)"/><ellipse class="cls-22" cx="189.5" cy="101.12" rx="8.65" ry="1.56" transform="translate(-55.66 132.87) rotate(-46.72)"/><ellipse class="cls-22" cx="187.65" cy="99.38" rx="8.65" ry="1.56" transform="translate(-66.14 70.77) rotate(-30.13)"/><ellipse class="cls-22" cx="186.51" cy="96.43" rx="8.65" ry="1.56" transform="translate(-59.11 9.88) rotate(-13.65)"/><ellipse class="cls-22" cx="186.28" cy="93.2" rx="1.56" ry="8.65" transform="translate(5.89 211.67) rotate(-74.8)"/><ellipse class="cls-22" cx="187.57" cy="90.31" rx="1.56" ry="8.65" transform="translate(-29.41 165.64) rotate(-58.32)"/><ellipse class="cls-22" cx="189.48" cy="87.91" rx="1.56" ry="8.65" transform="translate(-56.01 96.49) rotate(-37.45)"/><ellipse class="cls-22" cx="192.26" cy="86.4" rx="1.56" ry="8.65" transform="translate(-59.8 37.67) rotate(-20.97)"/><circle class="cls-21" cx="153.66" cy="57.8" r="2.95"/><ellipse class="cls-23" cx="104.75" cy="134.04" rx="1.56" ry="8.65"/><ellipse class="cls-23" cx="149.48" cy="171.39" rx="8.65" ry="1.56" transform="translate(-98.89 229.24) rotate(-73.52)"/><ellipse class="cls-23" cx="152.4" cy="172.81" rx="8.65" ry="1.56" transform="translate(-119.09 120.18) rotate(-44.67)"/><ellipse class="cls-23" cx="154.24" cy="175.38" rx="8.65" ry="1.56" transform="translate(-106.16 56.79) rotate(-28.19)"/><ellipse class="cls-23" cx="155.43" cy="177.62" rx="8.65" ry="1.56" transform="translate(-74.17 -1.97) rotate(-11.6)"/><ellipse class="cls-23" cx="155.58" cy="180.78" rx="1.56" ry="8.65" transform="translate(-79.39 283.56) rotate(-85.12)"/><ellipse class="cls-23" cx="154.77" cy="183.92" rx="1.56" ry="8.65" transform="translate(-125.74 173.65) rotate(-56.27)"/><ellipse class="cls-23" cx="152.63" cy="186.24" rx="1.56" ry="8.65" transform="translate(-125.46 103.95) rotate(-39.79)"/><ellipse class="cls-23" cx="149.31" cy="187.14" rx="1.56" ry="8.65" transform="translate(-93.35 20.29) rotate(-18.53)"/><ellipse class="cls-23" cx="146.2" cy="187.67" rx="1.56" ry="8.65" transform="translate(-48.23 -31.52) rotate(-2.05)"/><ellipse class="cls-23" cx="142.99" cy="187.24" rx="8.65" ry="1.56" transform="translate(-130.23 193.57) rotate(-63.2)"/><ellipse class="cls-23" cx="140.42" cy="185.4" rx="8.65" ry="1.56" transform="translate(-132.43 123.64) rotate(-46.72)"/><ellipse class="cls-23" cx="138.58" cy="183.65" rx="8.65" ry="1.56" transform="translate(-115.09 57.52) rotate(-30.13)"/><ellipse class="cls-23" cx="137.43" cy="180.7" rx="8.65" ry="1.56" transform="translate(-80.38 0.68) rotate(-13.65)"/><ellipse class="cls-23" cx="137.2" cy="177.47" rx="1.56" ry="8.65" transform="translate(-111.65 226.49) rotate(-74.8)"/><ellipse class="cls-23" cx="138.5" cy="174.59" rx="1.56" ry="8.65" transform="translate(-124.43 163.89) rotate(-58.32)"/><ellipse class="cls-23" cx="140.41" cy="172.18" rx="1.56" ry="8.65" transform="translate(-117.38 84.02) rotate(-37.45)"/><ellipse class="cls-23" cx="143.18" cy="170.67" rx="1.56" ry="8.65" transform="translate(-93.22 25.69) rotate(-20.97)"/><circle class="cls-21" cx="104.58" cy="142.08" r="2.95"/><circle class="cls-24" cx="178.45" cy="25.77" r="3.06"/><circle class="cls-25" cx="153.27" cy="175.97" r="4.02"/><circle class="cls-26" cx="370.04" cy="13.94" r="4.02"/><circle class="cls-27" cx="111.02" cy="36.92" r="6.21"/><circle class="cls-28" cx="267.54" cy="181.43" r="9.48"/><circle class="cls-29" cx="442.24" cy="72.86" r="5.68"/><circle class="cls-30" cx="403.3" cy="153.87" r="3.06"/><circle class="cls-30" cx="32.23" cy="103.53" r="3.06"/><circle class="cls-31" cx="279.02" cy="41.11" r="5.79"/><path class="cls-32" d="M232.71,203.92,214,174a2.53,2.53,0,0,0-2.16-1.24L176.54,174a2.52,2.52,0,0,0-2.16,1.24l-16.55,31.19a2.55,2.55,0,0,0,0,2.52L168,225.2l6.12,9.79c.83,1.32,1.88,4,3.34,4.8s4,.24,5.53.19l11.88-.43,19.14-.68a2.52,2.52,0,0,0,2.16-1.24l16.54-31.18c1.51-2.84-2.8-5.37-4.31-2.53l-16.55,31.19,2.16-1.24-35.28,1.26,2.15,1.24-18.73-29.92V209l16.55-31.19L176.54,179l35.28-1.26-2.16-1.24,18.74,29.93C230.1,209.17,234.43,206.66,232.71,203.92Z" transform="translate(-41.62 -36.86)"/></svg>