<svg id="Layer_1" data-name="Layer 1" xmlns="http://www.w3.org/2000/svg" xmlns:xlink="http://www.w3.org/1999/xlink" viewBox="0 0 1920 1080"><defs><style>.cls-1{fill:#5b5653;}.cls-2{fill:#56514f;}.cls-3{fill:none;stroke:#666463;stroke-miterlimit:10;stroke-width:1.5px;}.cls-4{fill:#7c6a60;}.cls-5{fill:#66554a;}.cls-6{fill:#68a4bc;}.cls-7{fill:#333232;}.cls-8{fill:url(#linear-gradient);}.cls-9{fill:url(#linear-gradient-2);}.cls-10{fill:#2b2b2b;}.cls-11{fill:#5b3e06;}.cls-12{fill:#4c4744;}.cls-13{fill:#3d3937;}.cls-14{fill:#844725;}.cls-15{fill:#6d3f29;}.cls-16{fill:#231b0c;}</style><linearGradient id="linear-gradient" x1="960" y1="1080.18" x2="960" y2="956.5" gradientUnits="userSpaceOnUse"><stop offset="0" stop-color="#603813"/><stop offset="1" stop-color="#42210b"/></linearGradient><linearGradient id="linear-gradient-2" x1="1300.31" y1="493.65" x2="1300.31" y2="425.75" gradientUnits="userSpaceOnUse"><stop offset="0" stop-color="#754c24"/><stop offset="0.57" stop-color="#42210b"/><stop offset="1" stop-color="#42210b"/></linearGradient></defs><rect class="cls-1" y="0.18" width="1920" height="1080"/><path class="cls-2" d="M358,410.47H265.1a15.42,15.42,0,0,1-15.42-15.42V371a15.42,15.42,0,0,1,15.42-15.42H358A15.42,15.42,0,0,1,373.44,371v24.05A15.42,15.42,0,0,1,358,410.47Z"/><path class="cls-2" d="M228,410.69H135.13a15.42,15.42,0,0,1-15.42-15.42V371.21a15.42,15.42,0,0,1,15.42-15.42H228a15.42,15.42,0,0,1,15.42,15.42v24.06A15.42,15.42,0,0,1,228,410.69Z"/><path class="cls-2" d="M294.68,349.43H201.77A15.42,15.42,0,0,1,186.35,334V310a15.42,15.42,0,0,1,15.42-15.42h92.91A15.42,15.42,0,0,1,310.1,310V334A15.42,15.42,0,0,1,294.68,349.43Z"/><path class="cls-2" d="M423.71,349.43H330.79A15.42,15.42,0,0,1,315.37,334V310a15.42,15.42,0,0,1,15.42-15.42h92.92A15.42,15.42,0,0,1,439.13,310V334A15.42,15.42,0,0,1,423.71,349.43Z"/><path class="cls-2" d="M328.51,610.07H235.6a15.42,15.42,0,0,1-15.42-15.42v-24a15.42,15.42,0,0,1,15.42-15.42h92.91a15.42,15.42,0,0,1,15.42,15.42v24A15.42,15.42,0,0,1,328.51,610.07Z"/><path class="cls-2" d="M395.15,548.82H302.24a15.42,15.42,0,0,1-15.42-15.42v-24a15.42,15.42,0,0,1,15.42-15.42h92.91a15.42,15.42,0,0,1,15.42,15.42v24A15.42,15.42,0,0,1,395.15,548.82Z"/><path class="cls-2" d="M710.88,844.11H618a15.42,15.42,0,0,1-15.42-15.42V804.64A15.43,15.43,0,0,1,618,789.22h92.92a15.43,15.43,0,0,1,15.42,15.42v24.05A15.42,15.42,0,0,1,710.88,844.11Z"/><path class="cls-2" d="M580.9,844.33H488a15.43,15.43,0,0,1-15.42-15.42v-24A15.42,15.42,0,0,1,488,789.44H580.9a15.42,15.42,0,0,1,15.42,15.42v24A15.42,15.42,0,0,1,580.9,844.33Z"/><path class="cls-2" d="M647.54,783.07H554.63a15.42,15.42,0,0,1-15.42-15.42v-24a15.42,15.42,0,0,1,15.42-15.42h92.91A15.42,15.42,0,0,1,663,743.6v24A15.42,15.42,0,0,1,647.54,783.07Z"/><path class="cls-2" d="M776.57,783.07H683.65a15.42,15.42,0,0,1-15.42-15.42v-24a15.43,15.43,0,0,1,15.42-15.42h92.92A15.43,15.43,0,0,1,792,743.6v24A15.42,15.42,0,0,1,776.57,783.07Z"/><path class="cls-2" d="M1682.89,377.47h87.79A14.57,14.57,0,0,1,1785.25,392v22.72a14.57,14.57,0,0,1-14.57,14.57h-87.79a14.57,14.57,0,0,1-14.57-14.57V392A14.57,14.57,0,0,1,1682.89,377.47Z"/><path class="cls-2" d="M1805.69,377.27h87.79a14.57,14.57,0,0,1,14.57,14.57v22.72a14.57,14.57,0,0,1-14.57,14.57h-87.79a14.57,14.57,0,0,1-14.57-14.57V391.84A14.57,14.57,0,0,1,1805.69,377.27Z"/><path class="cls-2" d="M1742.73,435.14h87.79a14.56,14.56,0,0,1,14.56,14.57v22.72A14.56,14.56,0,0,1,1830.52,487h-87.79a14.57,14.57,0,0,1-14.57-14.57V449.71A14.57,14.57,0,0,1,1742.73,435.14Z"/><path class="cls-2" d="M1620.83,435.14h87.78a14.57,14.57,0,0,1,14.57,14.57v22.72A14.57,14.57,0,0,1,1708.61,487h-87.78a14.57,14.57,0,0,1-14.57-14.57V449.71A14.57,14.57,0,0,1,1620.83,435.14Z"/><path class="cls-2" d="M1767.77,261.57h87.78a14.57,14.57,0,0,1,14.57,14.57v22.72a14.57,14.57,0,0,1-14.57,14.57h-87.78a14.57,14.57,0,0,1-14.57-14.57V276.14A14.57,14.57,0,0,1,1767.77,261.57Z"/><path class="cls-2" d="M1704.81,319.44h87.78A14.57,14.57,0,0,1,1807.16,334v22.73a14.57,14.57,0,0,1-14.57,14.57h-87.78a14.57,14.57,0,0,1-14.57-14.57V334A14.57,14.57,0,0,1,1704.81,319.44Z"/><path class="cls-2" d="M1614.91,42.67h87.79a14.57,14.57,0,0,1,14.57,14.57V80a14.57,14.57,0,0,1-14.57,14.57h-87.79A14.57,14.57,0,0,1,1600.34,80V57.24A14.57,14.57,0,0,1,1614.91,42.67Z"/><path class="cls-2" d="M1737.71,42.47h87.79A14.57,14.57,0,0,1,1840.07,57V79.76a14.57,14.57,0,0,1-14.57,14.57h-87.79a14.57,14.57,0,0,1-14.57-14.57V57A14.57,14.57,0,0,1,1737.71,42.47Z"/><path class="cls-2" d="M1674.75,100.34h87.79a14.56,14.56,0,0,1,14.56,14.57v22.72a14.56,14.56,0,0,1-14.56,14.57h-87.79a14.57,14.57,0,0,1-14.57-14.57V114.91A14.57,14.57,0,0,1,1674.75,100.34Z"/><path class="cls-2" d="M1552.85,100.34h87.78a14.57,14.57,0,0,1,14.57,14.57v22.72a14.57,14.57,0,0,1-14.57,14.57h-87.78a14.57,14.57,0,0,1-14.57-14.57V114.91A14.57,14.57,0,0,1,1552.85,100.34Z"/><path class="cls-2" d="M861.12,484.25H948.9a14.57,14.57,0,0,1,14.57,14.57v22.73a14.57,14.57,0,0,1-14.57,14.57H861.12a14.57,14.57,0,0,1-14.57-14.57V498.82A14.57,14.57,0,0,1,861.12,484.25Z"/><path class="cls-2" d="M983.92,484.05h87.78a14.57,14.57,0,0,1,14.57,14.57v22.73a14.57,14.57,0,0,1-14.57,14.57H983.92a14.57,14.57,0,0,1-14.57-14.57V498.62A14.57,14.57,0,0,1,983.92,484.05Z"/><path class="cls-2" d="M921,541.93h87.78a14.57,14.57,0,0,1,14.57,14.57v22.72a14.57,14.57,0,0,1-14.57,14.57H921a14.57,14.57,0,0,1-14.57-14.57V556.5A14.57,14.57,0,0,1,921,541.93Z"/><path class="cls-2" d="M799.05,541.93h87.79a14.57,14.57,0,0,1,14.57,14.57v22.72a14.57,14.57,0,0,1-14.57,14.57H799.05a14.57,14.57,0,0,1-14.57-14.57V556.5A14.57,14.57,0,0,1,799.05,541.93Z"/><path class="cls-2" d="M946,368.36h87.79a14.57,14.57,0,0,1,14.57,14.56v22.73a14.57,14.57,0,0,1-14.57,14.57H946a14.57,14.57,0,0,1-14.57-14.57V382.92A14.57,14.57,0,0,1,946,368.36Z"/><path class="cls-2" d="M883,426.23h87.79a14.57,14.57,0,0,1,14.57,14.57v22.72a14.57,14.57,0,0,1-14.57,14.57H883a14.57,14.57,0,0,1-14.57-14.57V440.8A14.57,14.57,0,0,1,883,426.23Z"/><path class="cls-2" d="M617.79,146.23h87.79a14.58,14.58,0,0,1,14.57,14.57v22.73a14.58,14.58,0,0,1-14.57,14.57H617.79a14.58,14.58,0,0,1-14.57-14.57V160.8A14.58,14.58,0,0,1,617.79,146.23Z"/><path class="cls-2" d="M740.59,146h87.79A14.57,14.57,0,0,1,843,160.6v22.73a14.57,14.57,0,0,1-14.57,14.56H740.59A14.57,14.57,0,0,1,726,183.33V160.6A14.57,14.57,0,0,1,740.59,146Z"/><path class="cls-2" d="M677.63,203.91h87.79A14.56,14.56,0,0,1,780,218.47V241.2a14.56,14.56,0,0,1-14.56,14.57H677.63a14.57,14.57,0,0,1-14.57-14.57V218.47A14.56,14.56,0,0,1,677.63,203.91Z"/><path class="cls-2" d="M555.73,203.91h87.78a14.56,14.56,0,0,1,14.57,14.56V241.2a14.57,14.57,0,0,1-14.57,14.57H555.73a14.57,14.57,0,0,1-14.57-14.57V218.47A14.56,14.56,0,0,1,555.73,203.91Z"/><path class="cls-3" d="M1338.83,740.14H1251a14.57,14.57,0,0,1-14.57-14.57V702.85A14.57,14.57,0,0,1,1251,688.28h87.79a14.56,14.56,0,0,1,14.56,14.57v22.72A14.56,14.56,0,0,1,1338.83,740.14Z"/><path class="cls-3" d="M1401.79,682.27H1314a14.58,14.58,0,0,1-14.57-14.57V645A14.58,14.58,0,0,1,1314,630.4h87.79A14.58,14.58,0,0,1,1416.36,645V667.7A14.58,14.58,0,0,1,1401.79,682.27Z"/><path class="cls-2" d="M1755.35,939.75h-87.78A14.57,14.57,0,0,1,1653,925.18V902.46a14.57,14.57,0,0,1,14.57-14.57h87.78a14.57,14.57,0,0,1,14.57,14.57v22.72A14.57,14.57,0,0,1,1755.35,939.75Z"/><path class="cls-2" d="M1632.56,940h-87.79a14.57,14.57,0,0,1-14.57-14.57V902.66a14.57,14.57,0,0,1,14.57-14.57h87.79a14.56,14.56,0,0,1,14.56,14.57v22.72A14.56,14.56,0,0,1,1632.56,940Z"/><path class="cls-2" d="M1695.52,882.08h-87.79a14.57,14.57,0,0,1-14.57-14.57V844.78a14.57,14.57,0,0,1,14.57-14.56h87.79a14.57,14.57,0,0,1,14.57,14.56v22.73A14.57,14.57,0,0,1,1695.52,882.08Z"/><path class="cls-2" d="M1817.42,882.08h-87.78a14.57,14.57,0,0,1-14.57-14.57V844.78a14.56,14.56,0,0,1,14.57-14.56h87.78A14.56,14.56,0,0,1,1832,844.78v22.73A14.57,14.57,0,0,1,1817.42,882.08Z"/><path class="cls-2" d="M120,77H27.09A15.43,15.43,0,0,1,11.67,61.59V37.54A15.42,15.42,0,0,1,27.09,22.12H120a15.42,15.42,0,0,1,15.42,15.42V61.59A15.43,15.43,0,0,1,120,77Z"/><path class="cls-2" d="M186.65,138.26H93.73a15.42,15.42,0,0,1-15.42-15.42v-24A15.42,15.42,0,0,1,93.73,83.37h92.92a15.42,15.42,0,0,1,15.42,15.42v24A15.42,15.42,0,0,1,186.65,138.26Z"/><path class="cls-4" d="M548.88,657.14a3.8,3.8,0,0,1-7.59,0v-17H517.74v17a3.8,3.8,0,0,1-7.59,0v-17H477.81v17a3.8,3.8,0,0,1-7.59,0v-17H445.56v17a3.8,3.8,0,0,1-7.59,0v-17h-.9l-31.44,32.75H564V640.12H548.88Z"/><path class="cls-5" d="M437.07,605.15H425.46a3.83,3.83,0,0,1,0-7.65h11.61V525.78H425.46a3.83,3.83,0,0,1-3.82-3.82h0a3.83,3.83,0,0,1,3.82-3.83h11.61V444h-8.86a3.83,3.83,0,0,1,0-7.66h8.86V362.25H425.46a3.83,3.83,0,0,1,0-7.65h11.61V280.48h-8.86a3.83,3.83,0,0,1,0-7.65h8.86V243.31q-.94-12-1-24.6c0-9,.38-17.86,1.11-26.46h-9a3.83,3.83,0,0,1,0-7.66H438V122.77c-20.16,28.71-33.3,75.65-33.3,128.7,0,8.36.33,16.58,1,24.6v396.8l31.44-32.75Z"/><path class="cls-5" d="M464,98.39a67.09,67.09,0,0,0-18.46,14.8v30.68C450.26,126.52,456.54,111.1,464,98.39Z"/><rect class="cls-6" x="517.74" y="280.48" width="23.55" height="74.11"/><rect class="cls-6" x="517.74" y="192.25" width="23.55" height="80.59"/><rect class="cls-6" x="517.74" y="605.15" width="23.55" height="34.96"/><rect class="cls-6" x="517.74" y="444.02" width="23.55" height="74.11"/><path class="cls-6" d="M541.29,184.59V140.77c-6.73-13.67-14.7-24.93-23.55-33.05v76.87Z"/><rect class="cls-6" x="517.74" y="525.78" width="23.55" height="71.72"/><rect class="cls-6" x="517.74" y="362.25" width="23.55" height="74.11"/><rect class="cls-6" x="437.07" y="362.25" width="0.9" height="74.11"/><rect class="cls-6" x="437.07" y="605.15" width="0.9" height="34.96"/><rect class="cls-6" x="437.07" y="525.78" width="0.9" height="71.72"/><rect class="cls-6" x="437.07" y="280.48" width="0.9" height="74.11"/><rect class="cls-6" x="437.07" y="444.02" width="0.9" height="74.11"/><path class="cls-6" d="M438,192.25h-.75c-.73,8.6-1.11,17.44-1.11,26.46q0,12.56,1,24.6v29.52h.9Z"/><rect class="cls-6" x="477.81" y="605.15" width="32.34" height="34.96"/><path class="cls-6" d="M510.15,184.59V101.67c-8.1-5.5-16.77-8.49-25.8-8.49a40.84,40.84,0,0,0-6.54.55v90.86Z"/><rect class="cls-6" x="477.81" y="362.25" width="32.34" height="74.11"/><rect class="cls-6" x="477.81" y="444.02" width="32.34" height="74.11"/><rect class="cls-6" x="477.81" y="280.48" width="32.34" height="74.11"/><rect class="cls-6" x="477.81" y="525.78" width="32.34" height="71.72"/><rect class="cls-6" x="477.81" y="192.25" width="32.34" height="80.59"/><rect class="cls-6" x="445.56" y="192.25" width="24.66" height="80.59"/><rect class="cls-6" x="445.56" y="525.78" width="24.66" height="71.72"/><path class="cls-6" d="M445.56,184.59h24.66V95.69a48.89,48.89,0,0,0-6.2,2.7c-7.48,12.71-13.76,28.13-18.46,45.48Z"/><rect class="cls-6" x="445.56" y="605.15" width="24.66" height="34.96"/><rect class="cls-6" x="445.56" y="444.02" width="24.66" height="74.11"/><rect class="cls-6" x="445.56" y="362.25" width="24.66" height="74.11"/><rect class="cls-6" x="445.56" y="280.48" width="24.66" height="74.11"/><path class="cls-6" d="M548.88,518.13h13.61a3.72,3.72,0,0,1,1.53.33V444H548.88Z"/><path class="cls-6" d="M548.88,362.25v74.11H564V361.92a3.72,3.72,0,0,1-1.53.33Z"/><path class="cls-6" d="M548.88,280.48V354.6h13.61a3.88,3.88,0,0,1,1.53.32V280.48Z"/><path class="cls-6" d="M548.88,605.15v35H564V604.83a3.88,3.88,0,0,1-1.53.32Z"/><path class="cls-6" d="M556.57,184.59a229.91,229.91,0,0,0-7.69-26v26Z"/><path class="cls-6" d="M548.88,525.78V597.5h13.61a3.72,3.72,0,0,1,1.53.33V525.46a3.88,3.88,0,0,1-1.53.32Z"/><path class="cls-6" d="M548.88,272.83H564V238.64h-.26a292.12,292.12,0,0,0-5.52-46.39h-9.36Z"/><path class="cls-7" d="M438,657.14a3.8,3.8,0,0,0,7.59,0v-17H438Z"/><path class="cls-7" d="M445.56,143.87V113.19a98.76,98.76,0,0,0-7.59,9.58v61.82A269.8,269.8,0,0,1,445.56,143.87Z"/><rect class="cls-7" x="437.97" y="525.78" width="7.59" height="71.72"/><path class="cls-7" d="M445.56,143.87A269.8,269.8,0,0,0,438,184.59h7.59Z"/><rect class="cls-7" x="437.97" y="192.25" width="7.59" height="80.59"/><rect class="cls-7" x="437.97" y="444.02" width="7.59" height="74.11"/><rect class="cls-7" x="437.97" y="362.25" width="7.59" height="74.11"/><rect class="cls-7" x="437.97" y="280.48" width="7.59" height="74.11"/><rect class="cls-7" x="437.97" y="605.15" width="7.59" height="34.96"/><path class="cls-7" d="M470.22,657.14a3.8,3.8,0,0,0,7.59,0v-17h-7.59Z"/><rect class="cls-7" x="470.22" y="362.25" width="7.59" height="74.11"/><rect class="cls-7" x="470.22" y="605.15" width="7.59" height="34.96"/><rect class="cls-7" x="470.22" y="444.02" width="7.59" height="74.11"/><rect class="cls-7" x="470.22" y="280.48" width="7.59" height="74.11"/><rect class="cls-7" x="470.22" y="192.25" width="7.59" height="80.59"/><path class="cls-7" d="M477.81,184.59V93.73a43.2,43.2,0,0,0-7.59,2v88.9Z"/><rect class="cls-7" x="470.22" y="525.78" width="7.59" height="71.72"/><path class="cls-7" d="M510.15,657.14a3.8,3.8,0,0,0,7.59,0v-17h-7.59Z"/><path class="cls-7" d="M517.74,184.59V107.72a66.38,66.38,0,0,0-7.59-6v82.92Z"/><rect class="cls-7" x="510.15" y="605.15" width="7.59" height="34.96"/><rect class="cls-7" x="510.15" y="362.25" width="7.59" height="74.11"/><rect class="cls-7" x="510.15" y="280.48" width="7.59" height="74.11"/><rect class="cls-7" x="510.15" y="525.78" width="7.59" height="71.72"/><rect class="cls-7" x="510.15" y="192.25" width="7.59" height="80.59"/><rect class="cls-7" x="510.15" y="444.02" width="7.59" height="74.11"/><path class="cls-7" d="M541.29,657.14a3.8,3.8,0,0,0,7.59,0v-17h-7.59Z"/><rect class="cls-7" x="541.29" y="525.78" width="7.59" height="71.72"/><rect class="cls-7" x="541.29" y="362.25" width="7.59" height="74.11"/><rect class="cls-7" x="541.29" y="192.25" width="7.59" height="80.59"/><rect class="cls-7" x="541.29" y="280.48" width="7.59" height="74.11"/><rect class="cls-7" x="541.29" y="444.02" width="7.59" height="74.11"/><path class="cls-7" d="M548.88,184.59v-26a180,180,0,0,0-7.59-17.87v43.82Z"/><rect class="cls-7" x="541.29" y="605.15" width="7.59" height="34.96"/><path class="cls-7" d="M428.21,184.59a3.83,3.83,0,0,0,0,7.66h9q.33-3.87.75-7.66Z"/><rect class="cls-7" x="517.74" y="184.59" width="23.55" height="7.65"/><path class="cls-7" d="M438,184.59q-.42,3.79-.75,7.66H438Z"/><rect class="cls-7" x="477.81" y="184.59" width="32.34" height="7.65"/><rect class="cls-7" x="445.56" y="184.59" width="24.66" height="7.65"/><path class="cls-7" d="M548.88,192.25h9.36q-.78-3.88-1.67-7.66h-7.69Z"/><rect class="cls-7" x="437.97" y="184.59" width="7.59" height="7.65"/><rect class="cls-7" x="470.22" y="184.59" width="7.59" height="7.65"/><rect class="cls-7" x="510.15" y="184.59" width="7.59" height="7.65"/><rect class="cls-7" x="541.29" y="184.59" width="7.59" height="7.65"/><path class="cls-7" d="M428.21,272.83a3.83,3.83,0,0,0,0,7.65h8.86v-7.65Z"/><rect class="cls-7" x="517.74" y="272.83" width="23.55" height="7.65"/><rect class="cls-7" x="437.07" y="272.83" width="0.9" height="7.65"/><rect class="cls-7" x="477.81" y="272.83" width="32.34" height="7.65"/><rect class="cls-7" x="445.56" y="272.83" width="24.66" height="7.65"/><rect class="cls-7" x="548.88" y="272.83" width="15.14" height="7.65"/><rect class="cls-7" x="437.97" y="272.83" width="7.59" height="7.65"/><rect class="cls-7" x="470.22" y="272.83" width="7.59" height="7.65"/><rect class="cls-7" x="510.15" y="272.83" width="7.59" height="7.65"/><rect class="cls-7" x="541.29" y="272.83" width="7.59" height="7.65"/><path class="cls-7" d="M425.46,354.6a3.83,3.83,0,0,0,0,7.65h11.61V354.6Z"/><rect class="cls-7" x="517.74" y="354.6" width="23.55" height="7.65"/><rect class="cls-7" x="437.07" y="354.6" width="0.9" height="7.65"/><rect class="cls-7" x="477.81" y="354.6" width="32.34" height="7.65"/><rect class="cls-7" x="445.56" y="354.6" width="24.66" height="7.65"/><path class="cls-7" d="M548.88,354.6v7.65h13.61a3.72,3.72,0,0,0,1.53-.33v-7a3.88,3.88,0,0,0-1.53-.32Z"/><rect class="cls-7" x="437.97" y="354.6" width="7.59" height="7.65"/><rect class="cls-7" x="470.22" y="354.6" width="7.59" height="7.65"/><rect class="cls-7" x="510.15" y="354.6" width="7.59" height="7.65"/><rect class="cls-7" x="541.29" y="354.6" width="7.59" height="7.65"/><path class="cls-7" d="M428.21,436.36a3.83,3.83,0,0,0,0,7.66h8.86v-7.66Z"/><rect class="cls-7" x="517.74" y="436.36" width="23.55" height="7.65"/><rect class="cls-7" x="437.07" y="436.36" width="0.9" height="7.65"/><rect class="cls-7" x="477.81" y="436.36" width="32.34" height="7.65"/><rect class="cls-7" x="445.56" y="436.36" width="24.66" height="7.65"/><rect class="cls-7" x="548.88" y="436.36" width="15.14" height="7.65"/><rect class="cls-7" x="437.97" y="436.36" width="7.59" height="7.65"/><rect class="cls-7" x="470.22" y="436.36" width="7.59" height="7.65"/><rect class="cls-7" x="510.15" y="436.36" width="7.59" height="7.65"/><rect class="cls-7" x="541.29" y="436.36" width="7.59" height="7.65"/><path class="cls-7" d="M425.46,518.13a3.83,3.83,0,0,0-3.82,3.83h0a3.83,3.83,0,0,0,3.82,3.82h11.61v-7.65Z"/><rect class="cls-7" x="517.74" y="518.13" width="23.55" height="7.65"/><rect class="cls-7" x="437.07" y="518.13" width="0.9" height="7.65"/><rect class="cls-7" x="477.81" y="518.13" width="32.34" height="7.65"/><rect class="cls-7" x="445.56" y="518.13" width="24.66" height="7.65"/><path class="cls-7" d="M548.88,518.13v7.65h13.61a3.88,3.88,0,0,0,1.53-.32v-7a3.72,3.72,0,0,0-1.53-.33Z"/><rect class="cls-7" x="437.97" y="518.13" width="7.59" height="7.65"/><rect class="cls-7" x="470.22" y="518.13" width="7.59" height="7.65"/><rect class="cls-7" x="510.15" y="518.13" width="7.59" height="7.65"/><rect class="cls-7" x="541.29" y="518.13" width="7.59" height="7.65"/><path class="cls-7" d="M425.46,597.5a3.83,3.83,0,0,0,0,7.65h11.61V597.5Z"/><rect class="cls-7" x="517.74" y="597.5" width="23.55" height="7.65"/><rect class="cls-7" x="437.07" y="597.5" width="0.9" height="7.65"/><rect class="cls-7" x="477.81" y="597.5" width="32.34" height="7.65"/><rect class="cls-7" x="445.56" y="597.5" width="24.66" height="7.65"/><path class="cls-7" d="M548.88,597.5v7.65h13.61a3.88,3.88,0,0,0,1.53-.32v-7a3.72,3.72,0,0,0-1.53-.33Z"/><rect class="cls-7" x="437.97" y="597.5" width="7.59" height="7.65"/><rect class="cls-7" x="470.22" y="597.5" width="7.59" height="7.65"/><rect class="cls-7" x="510.15" y="597.5" width="7.59" height="7.65"/><rect class="cls-7" x="541.29" y="597.5" width="7.59" height="7.65"/><rect class="cls-8" y="956.5" width="1920" height="123.68"/><rect class="cls-9" x="1194.93" y="425.75" width="210.75" height="67.9"/><path class="cls-10" d="M1429.26,169.31c0-67.33-57.73-121.92-129-121.92s-129,54.59-129,121.92c0,1.12,0,2.23.05,3.34h-.05V517.36l23.57-23.71V185.84h0c0-1,0-2,0-3,0-60.13,47.18-108.87,105.38-108.87s105.38,48.74,105.38,108.87c0,1,0,2,0,3h0V493.65l23.57,23.71V172.65h0C1429.24,171.54,1429.26,170.43,1429.26,169.31Z"/><path class="cls-11" d="M1405.69,185.84h0c0-1,0-2,0-3,0-60.13-47.18-108.87-105.38-108.87s-105.38,48.74-105.38,108.87c0,1,0,2,0,3h0V493.65h210.76Z"/><polygon class="cls-12" points="1194.93 493.65 1171.36 517.36 1429.26 517.36 1405.69 493.65 1194.93 493.65"/><polygon class="cls-13" points="1429.26 159.96 1405.69 197.51 1405.69 493.65 1429.26 517.36 1429.26 159.96"/><polygon class="cls-13" points="1171.36 159.96 1194.93 197.51 1194.93 493.65 1171.36 517.36 1171.36 159.96"/><rect class="cls-14" x="1141.26" y="534.15" width="313.07" height="67.04"/><rect class="cls-15" x="1135.72" y="530.84" width="324.14" height="6.61" rx="3.31"/><rect class="cls-15" x="1152.67" y="512.78" width="290.25" height="6.61" rx="3.13"/><polygon class="cls-15" points="1153.01 514.5 1136.23 532.4 1459.54 532.73 1442.09 513.8 1153.51 513.8 1153.01 514.5"/><rect class="cls-14" x="1127.66" y="592.86" width="344.68" height="73.81"/><rect class="cls-15" x="1121.56" y="589.22" width="356.87" height="7.28" rx="3.64"/><rect class="cls-15" x="1140.22" y="569.33" width="319.56" height="7.28" rx="3.45"/><polygon class="cls-15" points="1140.6 571.23 1122.12 590.94 1478.08 591.29 1458.86 570.45 1141.14 570.45 1140.6 571.23"/><rect class="cls-14" x="1111.81" y="661.73" width="376.38" height="80.59"/><rect class="cls-15" x="1105.16" y="657.75" width="389.69" height="7.95" rx="3.98"/><rect class="cls-15" x="1125.53" y="636.04" width="348.94" height="7.95" rx="3.76"/><polygon class="cls-15" points="1125.94 638.11 1105.76 659.63 1494.45 660.02 1473.47 637.26 1126.53 637.26 1125.94 638.11"/><rect class="cls-14" x="1096.72" y="743.38" width="406.55" height="87.05"/><rect class="cls-15" x="1089.54" y="739.08" width="420.93" height="8.59" rx="4.29"/><rect class="cls-15" x="1111.54" y="715.63" width="376.92" height="8.59" rx="4.06"/><polygon class="cls-15" points="1111.98 717.86 1090.19 741.11 1510.04 741.53 1487.37 716.95 1112.63 716.95 1111.98 717.86"/><rect class="cls-14" x="1079.06" y="833.16" width="442.57" height="94.77"/><rect class="cls-15" x="1071.23" y="828.49" width="458.22" height="9.35" rx="4.68"/><rect class="cls-15" x="1095.19" y="802.96" width="410.31" height="9.35" rx="4.42"/><polygon class="cls-15" points="1095.67 805.39 1071.95 830.7 1528.99 831.15 1504.32 804.39 1096.37 804.39 1095.67 805.39"/><rect class="cls-14" x="1055.81" y="948.03" width="488.38" height="104.58"/><rect class="cls-15" x="1047.17" y="942.87" width="505.66" height="10.32" rx="5.16"/><rect class="cls-15" x="1073.61" y="914.7" width="452.78" height="10.32" rx="4.88"/><polygon class="cls-15" points="1074.14 917.38 1047.96 945.31 1552.32 945.82 1525.09 916.28 1074.91 916.28 1074.14 917.38"/><circle class="cls-16" cx="1370.23" cy="290.33" r="15.61"/></svg>