<svg id="Layer_1" data-name="Layer 1" xmlns="http://www.w3.org/2000/svg" viewBox="0 0 1920 1080"><defs><style>.cls-1{fill:#d6ad2b;}.cls-2{fill:#d8cb2a;}.cls-3{fill:#c1be5b;}</style></defs><path class="cls-1" d="M967.13,806.63c132.87,0,240.58-107.72,240.58-240.59a239.57,239.57,0,0,0-51.44-148.7A240,240,0,0,0,973.34,333C840.47,333,732.76,440.72,732.76,573.6A239.57,239.57,0,0,0,784.2,722.3,240,240,0,0,0,967.13,806.63Z"/><path class="cls-2" d="M946.66,796.56c132.87,0,240.58-107.71,240.58-240.58a239.57,239.57,0,0,0-51.44-148.7A240,240,0,0,0,952.87,323C820,323,712.29,430.66,712.29,563.53a239.55,239.55,0,0,0,51.44,148.7A240,240,0,0,0,946.66,796.56Z"/><path class="cls-3" d="M1166.17,561c0-60.79-27.7-115.33-71.59-152.58a215.07,215.07,0,0,0-129.87-43.1c-116.47,0-210.88,91-210.88,203.23,0,60.79,27.7,115.34,71.59,152.58a215,215,0,0,0,129.87,43.1C1071.76,764.24,1166.17,673.25,1166.17,561Z"/></svg>