<svg id="Layer_1" data-name="Layer 1" xmlns="http://www.w3.org/2000/svg" viewBox="0 0 1920 1080"><defs><style>.cls-1{fill:#d6ad2b;}.cls-2{fill:#d8cb2a;}.cls-3{fill:#d8b775;}.cls-4{fill:#dbd675;}</style></defs><path class="cls-1" d="M967.13,781.84c132.87,0,240.58-107.71,240.58-240.58a239.53,239.53,0,0,0-51.44-148.7,240,240,0,0,0-182.93-84.34c-132.87,0-240.58,107.72-240.58,240.59a239.57,239.57,0,0,0,51.44,148.7A240,240,0,0,0,967.13,781.84Z"/><path class="cls-2" d="M946.66,771.78c132.87,0,240.58-107.72,240.58-240.59a239.57,239.57,0,0,0-51.44-148.7,240,240,0,0,0-182.93-84.33c-132.87,0-240.58,107.71-240.58,240.58a239.58,239.58,0,0,0,51.44,148.71A240.07,240.07,0,0,0,946.66,771.78Z"/><path class="cls-3" d="M757.13,548.81c0-112.24,94.41-203.24,210.88-203.24a217.11,217.11,0,0,1,78.42,14.53,216.55,216.55,0,0,0-90.35-19.56c-116.47,0-210.89,91-210.89,203.24,0,60.79,27.71,115.33,71.6,152.58a212.93,212.93,0,0,0,51.44,28.57,212.7,212.7,0,0,1-39.51-23.54C784.83,664.14,757.13,609.6,757.13,548.81Z"/><path class="cls-4" d="M1157.54,536.22c0-60.79-27.71-115.33-71.6-152.58a212.37,212.37,0,0,0-39.51-23.54A217.11,217.11,0,0,0,968,345.57c-116.47,0-210.88,91-210.88,203.24,0,60.79,27.7,115.33,71.59,152.58a212.7,212.7,0,0,0,39.51,23.54,217.15,217.15,0,0,0,78.42,14.53C1063.12,739.46,1157.54,648.47,1157.54,536.22Z"/><path class="cls-1" d="M908.31,616.07l-90.39,19.72a7.33,7.33,0,0,0,7.88,3.37l90.7-19.79-1.57-1.48A7.38,7.38,0,0,0,908.31,616.07Z"/><path class="cls-1" d="M1098.16,523.48,1012.73,486a7.37,7.37,0,0,1-4.28-5.37L990.9,389a7.39,7.39,0,0,0-9.56-5.62,7.59,7.59,0,0,1,.92,2.41l17.56,91.63a7.37,7.37,0,0,0,4.28,5.37l85.42,37.48a7.38,7.38,0,0,1,.6,13.22l-81.72,45a7.41,7.41,0,0,0-3.78,5.73l-9.25,92.83a7.3,7.3,0,0,1-5.35,6.36l1.6,1.5a7.37,7.37,0,0,0,12.38-4.65l9.26-92.83a7.37,7.37,0,0,1,3.78-5.73l81.71-45A7.38,7.38,0,0,0,1098.16,523.48Z"/><path class="cls-2" d="M916.94,619.28l-.44.09L983,681.7a7.25,7.25,0,0,0,7,1.71L923.56,621.1A7.37,7.37,0,0,0,916.94,619.28Z"/><path class="cls-2" d="M995.37,677.05l9.25-92.83a7.41,7.41,0,0,1,3.78-5.73l81.72-45a7.38,7.38,0,0,0-.6-13.22l-85.42-37.48a7.37,7.37,0,0,1-4.28-5.37l-17.56-91.63a7.59,7.59,0,0,0-.92-2.41,7.27,7.27,0,0,0-3.19,2.1l-62,69.66a7.38,7.38,0,0,1-6.43,2.42L817.1,445.93A7.38,7.38,0,0,0,809.82,457l47.08,80.54a7.37,7.37,0,0,1,.3,6.86l-39.65,84.44a7.26,7.26,0,0,0,.37,7l90.39-19.72a7.38,7.38,0,0,1,6.62,1.82l1.57,1.48.44-.09a7.37,7.37,0,0,1,6.62,1.82L990,683.41A7.3,7.3,0,0,0,995.37,677.05Z"/></svg>