<svg xmlns="http://www.w3.org/2000/svg" xmlns:xlink="http://www.w3.org/1999/xlink" viewBox="0 0 1920 1080"><defs><style>.cls-1{fill:#5b5653;}.cls-2{fill:#56514f;}.cls-3{fill:#7c6a60;}.cls-4{fill:#66554a;}.cls-5{fill:#68a4bc;}.cls-6{fill:#333232;}.cls-7{fill:url(#linear-gradient);}</style><linearGradient id="linear-gradient" x1="960" y1="1080" x2="960" y2="956.32" gradientUnits="userSpaceOnUse"><stop offset="0" stop-color="#603813"/><stop offset="1" stop-color="#42210b"/></linearGradient></defs><g id="Layer_2" data-name="Layer 2"><g id="Layer_1-2" data-name="Layer 1"><rect class="cls-1" width="1920" height="1080"/><path class="cls-2" d="M358,410.29H265.1a15.42,15.42,0,0,1-15.42-15.42V370.82A15.43,15.43,0,0,1,265.1,355.4H358a15.43,15.43,0,0,1,15.42,15.42v24.05A15.42,15.42,0,0,1,358,410.29Z"/><path class="cls-2" d="M228,410.51H135.13a15.42,15.42,0,0,1-15.42-15.42V371a15.42,15.42,0,0,1,15.42-15.42H228A15.42,15.42,0,0,1,243.46,371v24A15.42,15.42,0,0,1,228,410.51Z"/><path class="cls-2" d="M294.68,349.25H201.77a15.42,15.42,0,0,1-15.42-15.42V309.78a15.42,15.42,0,0,1,15.42-15.42h92.91a15.42,15.42,0,0,1,15.42,15.42v24.05A15.42,15.42,0,0,1,294.68,349.25Z"/><path class="cls-2" d="M423.71,349.25H330.79a15.42,15.42,0,0,1-15.42-15.42V309.78a15.42,15.42,0,0,1,15.42-15.42h92.92a15.42,15.42,0,0,1,15.42,15.42v24.05A15.42,15.42,0,0,1,423.71,349.25Z"/><path class="cls-2" d="M328.51,609.89H235.6a15.42,15.42,0,0,1-15.42-15.42V570.42A15.42,15.42,0,0,1,235.6,555h92.91a15.42,15.42,0,0,1,15.42,15.42v24.05A15.42,15.42,0,0,1,328.51,609.89Z"/><path class="cls-2" d="M395.15,548.64H302.24a15.42,15.42,0,0,1-15.42-15.42V509.17a15.42,15.42,0,0,1,15.42-15.42h92.91a15.42,15.42,0,0,1,15.42,15.42v24.05A15.42,15.42,0,0,1,395.15,548.64Z"/><path class="cls-2" d="M710.88,843.94H618a15.43,15.43,0,0,1-15.42-15.42V804.46A15.43,15.43,0,0,1,618,789h92.92a15.43,15.43,0,0,1,15.42,15.42v24.06A15.43,15.43,0,0,1,710.88,843.94Z"/><path class="cls-2" d="M580.9,844.15H488a15.42,15.42,0,0,1-15.42-15.42V804.68A15.42,15.42,0,0,1,488,789.26H580.9a15.42,15.42,0,0,1,15.42,15.42v24.05A15.42,15.42,0,0,1,580.9,844.15Z"/><path class="cls-2" d="M647.54,782.89H554.63a15.42,15.42,0,0,1-15.42-15.42V743.42A15.42,15.42,0,0,1,554.63,728h92.91A15.42,15.42,0,0,1,663,743.42v24.05A15.42,15.42,0,0,1,647.54,782.89Z"/><path class="cls-2" d="M776.57,782.89H683.65a15.42,15.42,0,0,1-15.42-15.42V743.42A15.43,15.43,0,0,1,683.65,728h92.92A15.43,15.43,0,0,1,792,743.42v24.05A15.42,15.42,0,0,1,776.57,782.89Z"/><path class="cls-2" d="M1682.89,377.29h87.79a14.57,14.57,0,0,1,14.57,14.57v22.72a14.57,14.57,0,0,1-14.57,14.57h-87.79a14.57,14.57,0,0,1-14.57-14.57V391.86A14.57,14.57,0,0,1,1682.89,377.29Z"/><path class="cls-2" d="M1805.69,377.09h87.79a14.57,14.57,0,0,1,14.57,14.57v22.72A14.57,14.57,0,0,1,1893.48,429h-87.79a14.57,14.57,0,0,1-14.57-14.57V391.66A14.57,14.57,0,0,1,1805.69,377.09Z"/><path class="cls-2" d="M1742.73,435h87.79a14.57,14.57,0,0,1,14.56,14.57v22.73a14.56,14.56,0,0,1-14.56,14.56h-87.79a14.56,14.56,0,0,1-14.57-14.56V449.53A14.57,14.57,0,0,1,1742.73,435Z"/><path class="cls-2" d="M1620.83,435h87.78a14.57,14.57,0,0,1,14.57,14.57v22.73a14.56,14.56,0,0,1-14.57,14.56h-87.78a14.56,14.56,0,0,1-14.57-14.56V449.53A14.57,14.57,0,0,1,1620.83,435Z"/><path class="cls-2" d="M1767.77,261.39h87.78A14.57,14.57,0,0,1,1870.12,276v22.72a14.57,14.57,0,0,1-14.57,14.57h-87.78a14.57,14.57,0,0,1-14.57-14.57V276A14.57,14.57,0,0,1,1767.77,261.39Z"/><path class="cls-2" d="M1704.81,319.26h87.78a14.57,14.57,0,0,1,14.57,14.57v22.73a14.57,14.57,0,0,1-14.57,14.57h-87.78a14.57,14.57,0,0,1-14.57-14.57V333.83A14.57,14.57,0,0,1,1704.81,319.26Z"/><path class="cls-2" d="M1614.91,42.49h87.79a14.57,14.57,0,0,1,14.57,14.57V79.78a14.57,14.57,0,0,1-14.57,14.57h-87.79a14.57,14.57,0,0,1-14.57-14.57V57.06A14.57,14.57,0,0,1,1614.91,42.49Z"/><path class="cls-2" d="M1737.71,42.29h87.79a14.57,14.57,0,0,1,14.57,14.57V79.58a14.57,14.57,0,0,1-14.57,14.57h-87.79a14.57,14.57,0,0,1-14.57-14.57V56.86A14.57,14.57,0,0,1,1737.71,42.29Z"/><path class="cls-2" d="M1674.75,100.16h87.79a14.57,14.57,0,0,1,14.56,14.57v22.73A14.57,14.57,0,0,1,1762.54,152h-87.79a14.57,14.57,0,0,1-14.57-14.57V114.73A14.57,14.57,0,0,1,1674.75,100.16Z"/><path class="cls-2" d="M1552.85,100.16h87.78a14.57,14.57,0,0,1,14.57,14.57v22.73A14.57,14.57,0,0,1,1640.63,152h-87.78a14.57,14.57,0,0,1-14.57-14.57V114.73A14.57,14.57,0,0,1,1552.85,100.16Z"/><path class="cls-2" d="M861.12,484.08H948.9a14.57,14.57,0,0,1,14.57,14.57v22.72a14.57,14.57,0,0,1-14.57,14.57H861.12a14.57,14.57,0,0,1-14.57-14.57V498.65A14.57,14.57,0,0,1,861.12,484.08Z"/><path class="cls-2" d="M983.92,483.87h87.78a14.57,14.57,0,0,1,14.57,14.57v22.73a14.57,14.57,0,0,1-14.57,14.57H983.92a14.57,14.57,0,0,1-14.57-14.57V498.44A14.57,14.57,0,0,1,983.92,483.87Z"/><path class="cls-2" d="M921,541.75h87.78a14.57,14.57,0,0,1,14.57,14.57V579a14.57,14.57,0,0,1-14.57,14.57H921A14.57,14.57,0,0,1,906.39,579V556.32A14.57,14.57,0,0,1,921,541.75Z"/><path class="cls-2" d="M799.05,541.75h87.79a14.57,14.57,0,0,1,14.57,14.57V579a14.57,14.57,0,0,1-14.57,14.57H799.05A14.57,14.57,0,0,1,784.48,579V556.32A14.57,14.57,0,0,1,799.05,541.75Z"/><path class="cls-2" d="M946,368.18h87.79a14.57,14.57,0,0,1,14.57,14.57v22.72A14.57,14.57,0,0,1,1033.78,420H946a14.57,14.57,0,0,1-14.57-14.57V382.75A14.57,14.57,0,0,1,946,368.18Z"/><path class="cls-2" d="M883,426.05h87.79a14.57,14.57,0,0,1,14.57,14.57v22.72a14.57,14.57,0,0,1-14.57,14.57H883a14.57,14.57,0,0,1-14.57-14.57V440.62A14.57,14.57,0,0,1,883,426.05Z"/><path class="cls-2" d="M617.79,146.05h87.79a14.58,14.58,0,0,1,14.57,14.57v22.73a14.58,14.58,0,0,1-14.57,14.57H617.79a14.58,14.58,0,0,1-14.57-14.57V160.62A14.58,14.58,0,0,1,617.79,146.05Z"/><path class="cls-2" d="M740.59,145.85h87.79A14.58,14.58,0,0,1,843,160.42v22.73a14.58,14.58,0,0,1-14.57,14.57H740.59A14.58,14.58,0,0,1,726,183.15V160.42A14.58,14.58,0,0,1,740.59,145.85Z"/><path class="cls-2" d="M677.63,203.73h87.79A14.56,14.56,0,0,1,780,218.3V241a14.56,14.56,0,0,1-14.56,14.57H677.63A14.57,14.57,0,0,1,663.06,241V218.3A14.57,14.57,0,0,1,677.63,203.73Z"/><path class="cls-2" d="M555.73,203.73h87.78a14.57,14.57,0,0,1,14.57,14.57V241a14.57,14.57,0,0,1-14.57,14.57H555.73A14.57,14.57,0,0,1,541.16,241V218.3A14.57,14.57,0,0,1,555.73,203.73Z"/><path class="cls-2" d="M1338.83,740H1251a14.57,14.57,0,0,1-14.57-14.57V702.67A14.57,14.57,0,0,1,1251,688.1h87.79a14.56,14.56,0,0,1,14.56,14.57v22.72A14.56,14.56,0,0,1,1338.83,740Z"/><path class="cls-2" d="M1401.79,682.09H1314a14.58,14.58,0,0,1-14.57-14.57V644.79A14.58,14.58,0,0,1,1314,630.22h87.79a14.58,14.58,0,0,1,14.57,14.57v22.73A14.58,14.58,0,0,1,1401.79,682.09Z"/><path class="cls-2" d="M1755.35,939.57h-87.78A14.57,14.57,0,0,1,1653,925V902.28a14.57,14.57,0,0,1,14.57-14.57h87.78a14.57,14.57,0,0,1,14.57,14.57V925A14.57,14.57,0,0,1,1755.35,939.57Z"/><path class="cls-2" d="M1632.56,939.77h-87.79a14.57,14.57,0,0,1-14.57-14.57V902.48a14.57,14.57,0,0,1,14.57-14.57h87.79a14.56,14.56,0,0,1,14.56,14.57V925.2A14.56,14.56,0,0,1,1632.56,939.77Z"/><path class="cls-2" d="M1695.52,881.9h-87.79a14.57,14.57,0,0,1-14.57-14.57V844.61A14.57,14.57,0,0,1,1607.73,830h87.79a14.57,14.57,0,0,1,14.57,14.57v22.72A14.57,14.57,0,0,1,1695.52,881.9Z"/><path class="cls-2" d="M1817.42,881.9h-87.78a14.57,14.57,0,0,1-14.57-14.57V844.61A14.57,14.57,0,0,1,1729.64,830h87.78A14.57,14.57,0,0,1,1832,844.61v22.72A14.57,14.57,0,0,1,1817.42,881.9Z"/><path class="cls-2" d="M120,76.83H27.09A15.42,15.42,0,0,1,11.67,61.41v-24A15.42,15.42,0,0,1,27.09,21.94H120a15.42,15.42,0,0,1,15.42,15.42v24A15.42,15.42,0,0,1,120,76.83Z"/><path class="cls-2" d="M186.65,138.08H93.73a15.42,15.42,0,0,1-15.42-15.42v-24A15.43,15.43,0,0,1,93.73,83.19h92.92a15.43,15.43,0,0,1,15.42,15.42v24A15.42,15.42,0,0,1,186.65,138.08Z"/><path class="cls-3" d="M548.88,657a3.8,3.8,0,0,1-7.59,0v-17H517.74v17a3.8,3.8,0,0,1-7.59,0v-17H477.81v17a3.8,3.8,0,0,1-7.59,0v-17H445.56v17a3.8,3.8,0,0,1-7.59,0v-17h-.9l-31.44,32.75H564V639.94H548.88Z"/><path class="cls-4" d="M437.07,605H425.46a3.83,3.83,0,0,1,0-7.66h11.61V525.6H425.46a3.83,3.83,0,0,1-3.82-3.82h0a3.83,3.83,0,0,1,3.82-3.83h11.61V443.84h-8.86a3.83,3.83,0,0,1,0-7.66h8.86V362.07H425.46a3.83,3.83,0,0,1,0-7.65h11.61V280.3h-8.86a3.83,3.83,0,0,1,0-7.65h8.86V243.13c-.63-8-1-16.23-1-24.6,0-9,.38-17.86,1.11-26.46h-9a3.83,3.83,0,0,1,0-7.66H438V122.59c-20.16,28.72-33.3,75.65-33.3,128.7q0,12.56,1,24.6v396.8l31.44-32.75Z"/><path class="cls-4" d="M464,98.21A67.09,67.09,0,0,0,445.56,113V143.7C450.26,126.34,456.54,110.92,464,98.21Z"/><rect class="cls-5" x="517.74" y="280.3" width="23.55" height="74.11"/><rect class="cls-5" x="517.74" y="192.07" width="23.55" height="80.59"/><rect class="cls-5" x="517.74" y="604.98" width="23.55" height="34.96"/><rect class="cls-5" x="517.74" y="443.84" width="23.55" height="74.11"/><path class="cls-5" d="M541.29,184.41V140.59c-6.73-13.67-14.7-24.92-23.55-33v76.87Z"/><rect class="cls-5" x="517.74" y="525.6" width="23.55" height="71.72"/><rect class="cls-5" x="517.74" y="362.07" width="23.55" height="74.11"/><rect class="cls-5" x="437.07" y="362.07" width="0.9" height="74.11"/><rect class="cls-5" x="437.07" y="604.98" width="0.9" height="34.96"/><rect class="cls-5" x="437.07" y="525.6" width="0.9" height="71.72"/><rect class="cls-5" x="437.07" y="280.3" width="0.9" height="74.11"/><rect class="cls-5" x="437.07" y="443.84" width="0.9" height="74.11"/><path class="cls-5" d="M438,192.07h-.75c-.73,8.6-1.11,17.44-1.11,26.46,0,8.37.33,16.59,1,24.6v29.52h.9Z"/><rect class="cls-5" x="477.81" y="604.98" width="32.34" height="34.96"/><path class="cls-5" d="M510.15,184.41V101.49C502.05,96,493.38,93,484.35,93a40.84,40.84,0,0,0-6.54.55v90.86Z"/><rect class="cls-5" x="477.81" y="362.07" width="32.34" height="74.11"/><rect class="cls-5" x="477.81" y="443.84" width="32.34" height="74.11"/><rect class="cls-5" x="477.81" y="280.3" width="32.34" height="74.11"/><rect class="cls-5" x="477.81" y="525.6" width="32.34" height="71.72"/><rect class="cls-5" x="477.81" y="192.07" width="32.34" height="80.59"/><rect class="cls-5" x="445.56" y="192.07" width="24.66" height="80.59"/><rect class="cls-5" x="445.56" y="525.6" width="24.66" height="71.72"/><path class="cls-5" d="M445.56,184.41h24.66V95.51a48.89,48.89,0,0,0-6.2,2.7c-7.48,12.71-13.76,28.13-18.46,45.49Z"/><rect class="cls-5" x="445.56" y="604.98" width="24.66" height="34.96"/><rect class="cls-5" x="445.56" y="443.84" width="24.66" height="74.11"/><rect class="cls-5" x="445.56" y="362.07" width="24.66" height="74.11"/><rect class="cls-5" x="445.56" y="280.3" width="24.66" height="74.11"/><path class="cls-5" d="M548.88,518h13.61a3.72,3.72,0,0,1,1.53.33V443.84H548.88Z"/><path class="cls-5" d="M548.88,362.07v74.11H564V361.74a3.72,3.72,0,0,1-1.53.33Z"/><path class="cls-5" d="M548.88,280.3v74.12h13.61a3.88,3.88,0,0,1,1.53.32V280.3Z"/><path class="cls-5" d="M548.88,605v35H564V604.65a3.72,3.72,0,0,1-1.53.33Z"/><path class="cls-5" d="M556.57,184.41a229.91,229.91,0,0,0-7.69-25.95v25.95Z"/><path class="cls-5" d="M548.88,525.6v71.72h13.61a3.72,3.72,0,0,1,1.53.33V525.28a3.88,3.88,0,0,1-1.53.32Z"/><path class="cls-5" d="M548.88,272.65H564V238.46h-.26a292.12,292.12,0,0,0-5.52-46.39h-9.36Z"/><path class="cls-6" d="M438,657a3.8,3.8,0,0,0,7.59,0v-17H438Z"/><path class="cls-6" d="M445.56,143.7V113a98.76,98.76,0,0,0-7.59,9.58v61.82A269.67,269.67,0,0,1,445.56,143.7Z"/><rect class="cls-6" x="437.97" y="525.6" width="7.59" height="71.72"/><path class="cls-6" d="M445.56,143.7A269.67,269.67,0,0,0,438,184.41h7.59Z"/><rect class="cls-6" x="437.97" y="192.07" width="7.59" height="80.59"/><rect class="cls-6" x="437.97" y="443.84" width="7.59" height="74.11"/><rect class="cls-6" x="437.97" y="362.07" width="7.59" height="74.11"/><rect class="cls-6" x="437.97" y="280.3" width="7.59" height="74.11"/><rect class="cls-6" x="437.97" y="604.98" width="7.59" height="34.96"/><path class="cls-6" d="M470.22,657a3.8,3.8,0,0,0,7.59,0v-17h-7.59Z"/><rect class="cls-6" x="470.22" y="362.07" width="7.59" height="74.11"/><rect class="cls-6" x="470.22" y="604.98" width="7.59" height="34.96"/><rect class="cls-6" x="470.22" y="443.84" width="7.59" height="74.11"/><rect class="cls-6" x="470.22" y="280.3" width="7.59" height="74.11"/><rect class="cls-6" x="470.22" y="192.07" width="7.59" height="80.59"/><path class="cls-6" d="M477.81,184.41V93.55a43.2,43.2,0,0,0-7.59,2v88.9Z"/><rect class="cls-6" x="470.22" y="525.6" width="7.59" height="71.72"/><path class="cls-6" d="M510.15,657a3.8,3.8,0,0,0,7.59,0v-17h-7.59Z"/><path class="cls-6" d="M517.74,184.41V107.54a67.49,67.49,0,0,0-7.59-6.05v82.92Z"/><rect class="cls-6" x="510.15" y="604.98" width="7.59" height="34.96"/><rect class="cls-6" x="510.15" y="362.07" width="7.59" height="74.11"/><rect class="cls-6" x="510.15" y="280.3" width="7.59" height="74.11"/><rect class="cls-6" x="510.15" y="525.6" width="7.59" height="71.72"/><rect class="cls-6" x="510.15" y="192.07" width="7.59" height="80.59"/><rect class="cls-6" x="510.15" y="443.84" width="7.59" height="74.11"/><path class="cls-6" d="M541.29,657a3.8,3.8,0,0,0,7.59,0v-17h-7.59Z"/><rect class="cls-6" x="541.29" y="525.6" width="7.59" height="71.72"/><rect class="cls-6" x="541.29" y="362.07" width="7.59" height="74.11"/><rect class="cls-6" x="541.29" y="192.07" width="7.59" height="80.59"/><rect class="cls-6" x="541.29" y="280.3" width="7.59" height="74.11"/><rect class="cls-6" x="541.29" y="443.84" width="7.59" height="74.11"/><path class="cls-6" d="M548.88,184.41V158.46a180,180,0,0,0-7.59-17.87v43.82Z"/><rect class="cls-6" x="541.29" y="604.98" width="7.59" height="34.96"/><path class="cls-6" d="M428.21,184.41a3.83,3.83,0,0,0,0,7.66h9c.22-2.57.47-5.13.75-7.66Z"/><rect class="cls-6" x="517.74" y="184.41" width="23.55" height="7.65"/><path class="cls-6" d="M438,184.41c-.28,2.53-.53,5.09-.75,7.66H438Z"/><rect class="cls-6" x="477.81" y="184.41" width="32.34" height="7.65"/><rect class="cls-6" x="445.56" y="184.41" width="24.66" height="7.65"/><path class="cls-6" d="M548.88,192.07h9.36q-.78-3.88-1.67-7.66h-7.69Z"/><rect class="cls-6" x="437.97" y="184.41" width="7.59" height="7.65"/><rect class="cls-6" x="470.22" y="184.41" width="7.59" height="7.65"/><rect class="cls-6" x="510.15" y="184.41" width="7.59" height="7.65"/><rect class="cls-6" x="541.29" y="184.41" width="7.59" height="7.65"/><path class="cls-6" d="M428.21,272.65a3.83,3.83,0,0,0,0,7.65h8.86v-7.65Z"/><rect class="cls-6" x="517.74" y="272.65" width="23.55" height="7.65"/><rect class="cls-6" x="437.07" y="272.65" width="0.9" height="7.65"/><rect class="cls-6" x="477.81" y="272.65" width="32.34" height="7.65"/><rect class="cls-6" x="445.56" y="272.65" width="24.66" height="7.65"/><rect class="cls-6" x="548.88" y="272.65" width="15.14" height="7.65"/><rect class="cls-6" x="437.97" y="272.65" width="7.59" height="7.65"/><rect class="cls-6" x="470.22" y="272.65" width="7.59" height="7.65"/><rect class="cls-6" x="510.15" y="272.65" width="7.59" height="7.65"/><rect class="cls-6" x="541.29" y="272.65" width="7.59" height="7.65"/><path class="cls-6" d="M425.46,354.42a3.83,3.83,0,0,0,0,7.65h11.61v-7.65Z"/><rect class="cls-6" x="517.74" y="354.42" width="23.55" height="7.65"/><rect class="cls-6" x="437.07" y="354.42" width="0.9" height="7.65"/><rect class="cls-6" x="477.81" y="354.42" width="32.34" height="7.65"/><rect class="cls-6" x="445.56" y="354.42" width="24.66" height="7.65"/><path class="cls-6" d="M548.88,354.42v7.65h13.61a3.72,3.72,0,0,0,1.53-.33v-7a3.88,3.88,0,0,0-1.53-.32Z"/><rect class="cls-6" x="437.97" y="354.42" width="7.59" height="7.65"/><rect class="cls-6" x="470.22" y="354.42" width="7.59" height="7.65"/><rect class="cls-6" x="510.15" y="354.42" width="7.59" height="7.65"/><rect class="cls-6" x="541.29" y="354.42" width="7.59" height="7.65"/><path class="cls-6" d="M428.21,436.18a3.83,3.83,0,0,0,0,7.66h8.86v-7.66Z"/><rect class="cls-6" x="517.74" y="436.18" width="23.55" height="7.65"/><rect class="cls-6" x="437.07" y="436.18" width="0.9" height="7.65"/><rect class="cls-6" x="477.81" y="436.18" width="32.34" height="7.65"/><rect class="cls-6" x="445.56" y="436.18" width="24.66" height="7.65"/><rect class="cls-6" x="548.88" y="436.18" width="15.14" height="7.65"/><rect class="cls-6" x="437.97" y="436.18" width="7.59" height="7.65"/><rect class="cls-6" x="470.22" y="436.18" width="7.59" height="7.65"/><rect class="cls-6" x="510.15" y="436.18" width="7.59" height="7.65"/><rect class="cls-6" x="541.29" y="436.18" width="7.59" height="7.65"/><path class="cls-6" d="M425.46,518a3.83,3.83,0,0,0-3.82,3.83h0a3.83,3.83,0,0,0,3.82,3.82h11.61V518Z"/><rect class="cls-6" x="517.74" y="517.95" width="23.55" height="7.65"/><rect class="cls-6" x="437.07" y="517.95" width="0.9" height="7.65"/><rect class="cls-6" x="477.81" y="517.95" width="32.34" height="7.65"/><rect class="cls-6" x="445.56" y="517.95" width="24.66" height="7.65"/><path class="cls-6" d="M548.88,518v7.65h13.61a3.88,3.88,0,0,0,1.53-.32v-7a3.72,3.72,0,0,0-1.53-.33Z"/><rect class="cls-6" x="437.97" y="517.95" width="7.59" height="7.65"/><rect class="cls-6" x="470.22" y="517.95" width="7.59" height="7.65"/><rect class="cls-6" x="510.15" y="517.95" width="7.59" height="7.65"/><rect class="cls-6" x="541.29" y="517.95" width="7.59" height="7.65"/><path class="cls-6" d="M425.46,597.32a3.83,3.83,0,0,0,0,7.66h11.61v-7.66Z"/><rect class="cls-6" x="517.74" y="597.32" width="23.55" height="7.65"/><rect class="cls-6" x="437.07" y="597.32" width="0.9" height="7.65"/><rect class="cls-6" x="477.81" y="597.32" width="32.34" height="7.65"/><rect class="cls-6" x="445.56" y="597.32" width="24.66" height="7.65"/><path class="cls-6" d="M548.88,597.32V605h13.61a3.72,3.72,0,0,0,1.53-.33v-7a3.72,3.72,0,0,0-1.53-.33Z"/><rect class="cls-6" x="437.97" y="597.32" width="7.59" height="7.65"/><rect class="cls-6" x="470.22" y="597.32" width="7.59" height="7.65"/><rect class="cls-6" x="510.15" y="597.32" width="7.59" height="7.65"/><rect class="cls-6" x="541.29" y="597.32" width="7.59" height="7.65"/><rect class="cls-7" y="956.32" width="1920" height="123.68"/></g></g></svg>