<svg xmlns="http://www.w3.org/2000/svg" viewBox="0 0 1920 1080"><defs><style>.cls-1{fill:#5b5653;}.cls-2{fill:#844725;}.cls-3{fill:#6d3f29;}.cls-4{fill:#2b2b2b;}.cls-5{fill:#5b3e06;}.cls-6{fill:#4c4744;}.cls-7{fill:#3d3937;}.cls-8{fill:#231b0c;}.cls-9{fill:#56514f;}</style></defs><g id="Layer_2" data-name="Layer 2"><g id="Layer_1-2" data-name="Layer 1"><path class="cls-1" d="M1920,0H0V1080H640.07v-59.3H635.5a6.79,6.79,0,0,1-6.76-6.77,6.71,6.71,0,0,1,1-3.57h0a6.86,6.86,0,0,1,1.8-1.92l32.54-34.71h0a6.86,6.86,0,0,1,1-1.44h0a6.38,6.38,0,0,1,4.7-2.08h581.09a6.38,6.38,0,0,1,4.7,2.08h0l33,35.8a6.76,6.76,0,0,1-3.39,12.61h-4.57V1080H1920Z"/><rect class="cls-2" x="640.07" y="1020.7" width="640.6" height="59.3"/><path class="cls-3" d="M629.77,1010.36l1.8-1.92A6.86,6.86,0,0,0,629.77,1010.36Z"/><path class="cls-3" d="M664.11,973.73l1-1.44A6.86,6.86,0,0,0,664.11,973.73Z"/><polygon class="cls-3" points="665.12 972.29 665.11 972.29 665.12 972.29 665.12 972.29"/><path class="cls-3" d="M1291.31,1011h0l0,0a6.85,6.85,0,0,0-2.68-2.91l-33-35.8a6.38,6.38,0,0,0-4.7-2.08H669.82a6.38,6.38,0,0,0-4.7,2.08h0l-1,1.44h0l-32.54,34.71-1.8,1.92a6.71,6.71,0,0,0-1,3.57,6.79,6.79,0,0,0,6.76,6.77h649.72a6.79,6.79,0,0,0,6.77-6.77A6.66,6.66,0,0,0,1291.31,1011Z"/><path class="cls-4" d="M1228.36,258.06c0-137.79-118.13-249.48-263.85-249.48S700.66,120.27,700.66,258.06c0,2.28,0,4.55.1,6.81h-.1V970.21l48.23-48.5V291.87H749q-.08-3-.08-6.09c0-123,96.54-222.77,215.62-222.77s215.62,99.74,215.62,222.77q0,3.06-.08,6.09h.08V921.71l48.23,48.5V264.87h-.1Q1228.36,261.48,1228.36,258.06Z"/><path class="cls-5" d="M1180.13,291.87h-.08q.08-3,.08-6.09c0-123-96.53-222.77-215.62-222.77S748.89,162.75,748.89,285.78q0,3.06.08,6.09h-.08V921.71h431.24Z"/><polygon class="cls-6" points="748.89 921.71 700.66 970.21 1228.36 970.21 1180.13 921.71 748.89 921.71"/><polygon class="cls-7" points="1228.36 238.92 1180.13 315.76 1180.13 921.71 1228.36 970.21 1228.36 238.92"/><polygon class="cls-7" points="700.66 238.92 748.89 315.76 748.89 921.71 700.66 970.21 700.66 238.92"/><circle class="cls-8" cx="1107.58" cy="505.67" r="31.95"/><ellipse cx="1110.5" cy="567.88" rx="7.01" ry="12.38"/><polygon points="1105.59 595.96 1119.15 595.96 1116.05 575.44 1105.59 575.44 1103.49 595.96 1105.59 595.96"/><path class="cls-9" d="M1463.28,182.36h131.8A21.89,21.89,0,0,1,1617,204.24v34.12a21.88,21.88,0,0,1-21.88,21.87h-131.8a21.87,21.87,0,0,1-21.88-21.87V204.24A21.88,21.88,0,0,1,1463.28,182.36Z"/><path class="cls-9" d="M1647.66,182.06h131.8a21.87,21.87,0,0,1,21.88,21.88v34.12a21.87,21.87,0,0,1-21.88,21.87h-131.8a21.88,21.88,0,0,1-21.88-21.87V203.94A21.88,21.88,0,0,1,1647.66,182.06Z"/><path class="cls-9" d="M1553.12,269h131.81a21.87,21.87,0,0,1,21.87,21.87V325a21.87,21.87,0,0,1-21.87,21.88H1553.12A21.87,21.87,0,0,1,1531.25,325V290.83A21.87,21.87,0,0,1,1553.12,269Z"/><path class="cls-9" d="M1370.08,269h131.81a21.88,21.88,0,0,1,21.88,21.87V325a21.88,21.88,0,0,1-21.88,21.88H1370.08A21.87,21.87,0,0,1,1348.21,325V290.83A21.87,21.87,0,0,1,1370.08,269Z"/><path class="cls-9" d="M331.46,845.4H463.27a21.88,21.88,0,0,1,21.88,21.87V901.4a21.88,21.88,0,0,1-21.88,21.87H331.46a21.87,21.87,0,0,1-21.87-21.87V867.27A21.87,21.87,0,0,1,331.46,845.4Z"/><path class="cls-9" d="M515.85,845.1h131.8A21.88,21.88,0,0,1,669.53,867v34.12A21.89,21.89,0,0,1,647.65,923H515.85A21.88,21.88,0,0,1,494,901.09V867A21.87,21.87,0,0,1,515.85,845.1Z"/><path class="cls-9" d="M421.31,932H553.12A21.88,21.88,0,0,1,575,953.87V988a21.87,21.87,0,0,1-21.87,21.87H421.31A21.87,21.87,0,0,1,399.44,988V953.87A21.88,21.88,0,0,1,421.31,932Z"/><path class="cls-9" d="M238.27,932H370.08A21.89,21.89,0,0,1,392,953.87V988a21.88,21.88,0,0,1-21.88,21.87H238.27A21.87,21.87,0,0,1,216.4,988V953.87A21.88,21.88,0,0,1,238.27,932Z"/><path class="cls-9" d="M458.9,671.38H590.71a21.88,21.88,0,0,1,21.88,21.87v34.12a21.88,21.88,0,0,1-21.88,21.88H458.9A21.87,21.87,0,0,1,437,727.37V693.25A21.87,21.87,0,0,1,458.9,671.38Z"/><path class="cls-9" d="M364.37,758.28H496.18a21.87,21.87,0,0,1,21.87,21.87v34.12a21.88,21.88,0,0,1-21.87,21.88H364.37a21.89,21.89,0,0,1-21.88-21.88V780.15A21.88,21.88,0,0,1,364.37,758.28Z"/></g></g></svg>