<svg id="Layer_1" data-name="Layer 1" xmlns="http://www.w3.org/2000/svg" viewBox="0 0 1920 1080"><defs><style>.cls-1{fill:#5b5653;}.cls-2{fill:#2b2b2b;}.cls-3{fill:#5b3e06;}.cls-4{fill:#3d3937;}.cls-5{fill:#231b0c;}.cls-6{fill:#56514f;}.cls-7{fill:#6d3f29;}.cls-8{fill:#d3b900;}.cls-9{fill:#844725;}</style></defs><rect x="673.56" y="970.21" width="573.61" height="13.53" rx="6.29"/><path class="cls-1" d="M991.32,1013.93H1280l-288.75-.32C991.28,1013.72,991.31,1013.82,991.32,1013.93Z"/><polygon class="cls-1" points="1019.16 970.22 1016.57 970.22 1014.5 972.29 1021.23 972.29 1019.16 970.22"/><path class="cls-1" d="M1920,0H0V1080H640.07v-66.07H908.61c0-.14,0-.27,0-.41l-268.59-.3,33.22-39.38,1-1.55h306l2.07-2.08H677.47V835.28a21.77,21.77,0,0,1,21.77-21.77h1.42V238.92l.69,1.1C711.13,110.66,825.21,8.58,964.51,8.58S1217.89,110.66,1227.67,240l.69-1.1V814.31a21.77,21.77,0,0,1,15.92,21V970.21H1040.21a9,9,0,0,1,.12,1.38c0,.24,0,.47,0,.7h205.18l34.55,41.64h.64V1080H1920ZM437,693.25a21.87,21.87,0,0,1,21.87-21.87H590.71a21.88,21.88,0,0,1,21.88,21.87v34.12a21.88,21.88,0,0,1-21.88,21.88H458.9A21.87,21.87,0,0,1,437,727.37Zm-94.54,86.9a21.88,21.88,0,0,1,21.88-21.87H496.18a21.87,21.87,0,0,1,21.87,21.87v34.12a21.88,21.88,0,0,1-21.87,21.88H364.37a21.89,21.89,0,0,1-21.88-21.88Zm-32.9,87.12a21.87,21.87,0,0,1,21.87-21.87H463.27a21.88,21.88,0,0,1,21.88,21.87V901.4a21.88,21.88,0,0,1-21.88,21.87H331.46a21.87,21.87,0,0,1-21.87-21.87ZM392,988a21.88,21.88,0,0,1-21.88,21.87H238.27A21.87,21.87,0,0,1,216.4,988V953.87A21.88,21.88,0,0,1,238.27,932H370.08A21.89,21.89,0,0,1,392,953.87Zm183,0a21.87,21.87,0,0,1-21.87,21.87H421.31A21.87,21.87,0,0,1,399.44,988V953.87A21.88,21.88,0,0,1,421.31,932H553.12A21.88,21.88,0,0,1,575,953.87Zm94.54-86.9A21.89,21.89,0,0,1,647.65,923H515.85A21.88,21.88,0,0,1,494,901.09V867a21.87,21.87,0,0,1,21.88-21.87h131.8A21.88,21.88,0,0,1,669.53,867ZM1441.4,204.24a21.88,21.88,0,0,1,21.88-21.88h131.8A21.88,21.88,0,0,1,1617,204.24v34.12a21.87,21.87,0,0,1-21.88,21.87h-131.8a21.87,21.87,0,0,1-21.88-21.87ZM1523.77,325a21.88,21.88,0,0,1-21.88,21.88H1370.08A21.87,21.87,0,0,1,1348.21,325V290.83A21.87,21.87,0,0,1,1370.08,269h131.81a21.88,21.88,0,0,1,21.88,21.87Zm183,0a21.87,21.87,0,0,1-21.87,21.88H1553.12A21.87,21.87,0,0,1,1531.25,325V290.83A21.87,21.87,0,0,1,1553.12,269h131.81a21.87,21.87,0,0,1,21.87,21.87Zm94.54-86.89a21.87,21.87,0,0,1-21.88,21.87h-131.8a21.88,21.88,0,0,1-21.88-21.87V203.94a21.88,21.88,0,0,1,21.88-21.88h131.8a21.87,21.87,0,0,1,21.88,21.88Z"/><path d="M950,977.41A41.45,41.45,0,0,1,970,982.56l10.27-10.27h-306l-1,1.55-33.22,39.38,268.59.3A41.69,41.69,0,0,1,950,977.41Z"/><path d="M1032.12,979.8a8.15,8.15,0,0,1-5.2-1.86h0l-.35-.35-.45-.44-4.87-4.87h-6.73l-27.57,27.57a41.42,41.42,0,0,1,4.34,13.75l288.75.32-34.55-41.64H1040.29A8.2,8.2,0,0,1,1032.12,979.8Z"/><path class="cls-2" d="M748.89,291.87H749q-.08-3-.08-6.09c0-123,96.54-222.77,215.62-222.77s215.62,99.74,215.62,222.77q0,3.06-.08,6.09h.08v23.89L1227.67,240C1217.89,110.66,1103.82,8.58,964.51,8.58S711.13,110.66,701.35,240l47.54,75.74Z"/><path class="cls-3" d="M748.89,813.51h431.24V291.87h-.08q.08-3,.08-6.09c0-123-96.53-222.77-215.62-222.77S748.89,162.75,748.89,285.78q0,3.06.08,6.09h-.08v23.89h0ZM1105.59,596h-2.1l2-19.44a18.23,18.23,0,0,1-2-8.64c0-6.84,3.14-12.38,7-12.38s7,5.54,7,12.38a19,19,0,0,1-1.47,7.56h0l3.1,20.52Zm2-122.24a31.95,31.95,0,1,1-31.95,31.95A32,32,0,0,1,1107.58,473.72Z"/><path class="cls-4" d="M1228.36,264.87v-6.81q0,3.42-.1,6.81Z"/><path class="cls-4" d="M1228.36,238.92l-.69,1.1q.67,8.94.69,18Z"/><path class="cls-4" d="M1180.13,813.51h42.39a21.67,21.67,0,0,1,5.84.8V264.87h-.1q.1-3.39.1-6.81,0-9.1-.69-18l-47.54,75.74Z"/><path class="cls-4" d="M700.66,238.92v19.14q0-9.1.69-18Z"/><path class="cls-4" d="M700.66,258.06v6.81h.1C700.7,262.61,700.66,260.34,700.66,258.06Z"/><path class="cls-4" d="M748.89,315.76,701.35,240q-.68,8.94-.69,18c0,2.28,0,4.55.1,6.81h-.1V813.51h48.23Z"/><rect class="cls-4" x="500.01" y="564.63" width="497.75" transform="translate(-179.91 694.92) rotate(-45)"/><path class="cls-5" d="M1107.58,537.62a31.95,31.95,0,1,0-31.95-31.95A31.94,31.94,0,0,0,1107.58,537.62Z"/><path d="M1116,575.44a19,19,0,0,0,1.47-7.56c0-6.84-3.14-12.38-7-12.38s-7,5.54-7,12.38a18.23,18.23,0,0,0,2,8.64l.11-1.08Z"/><path d="M1116,575.44c-1.28,2.93-3.28,4.82-5.54,4.82-2,0-3.74-1.44-5-3.74l-2,19.44h15.66l-3.1-20.52Z"/><path d="M1110.5,580.26c2.26,0,4.26-1.89,5.54-4.82h-10.45l-.11,1.08C1106.76,578.82,1108.53,580.26,1110.5,580.26Z"/><path class="cls-6" d="M1463.28,182.36h131.81A21.87,21.87,0,0,1,1617,204.24v34.12a21.87,21.87,0,0,1-21.87,21.87H1463.28a21.88,21.88,0,0,1-21.87-21.87V204.24A21.88,21.88,0,0,1,1463.28,182.36Z"/><path class="cls-6" d="M1647.66,182.06h131.81a21.88,21.88,0,0,1,21.88,21.88v34.12a21.88,21.88,0,0,1-21.87,21.88H1647.66a21.88,21.88,0,0,1-21.87-21.87V203.94A21.87,21.87,0,0,1,1647.66,182.06Z"/><path class="cls-6" d="M1553.12,269h131.81a21.88,21.88,0,0,1,21.88,21.88V325a21.87,21.87,0,0,1-21.87,21.87H1553.12A21.87,21.87,0,0,1,1531.25,325V290.83A21.87,21.87,0,0,1,1553.12,269Z"/><rect class="cls-6" x="1348.21" y="268.96" width="175.56" height="77.87" rx="21.87"/><rect class="cls-6" x="309.59" y="845.4" width="175.56" height="77.87" rx="21.87"/><path class="cls-6" d="M515.85,845.1H647.65A21.87,21.87,0,0,1,669.53,867v34.12A21.87,21.87,0,0,1,647.65,923H515.85A21.87,21.87,0,0,1,494,901.09V867A21.88,21.88,0,0,1,515.85,845.1Z"/><path class="cls-6" d="M421.31,932H553.12A21.87,21.87,0,0,1,575,953.87V988a21.87,21.87,0,0,1-21.87,21.87H421.31A21.88,21.88,0,0,1,399.44,988V953.87A21.88,21.88,0,0,1,421.31,932Z"/><path class="cls-6" d="M238.27,932H370.08A21.87,21.87,0,0,1,392,953.87V988a21.87,21.87,0,0,1-21.87,21.87H238.27A21.88,21.88,0,0,1,216.4,988V953.87A21.87,21.87,0,0,1,238.27,932Z"/><path class="cls-6" d="M458.9,671.38H590.71a21.88,21.88,0,0,1,21.88,21.88v34.12a21.87,21.87,0,0,1-21.87,21.87H458.9A21.88,21.88,0,0,1,437,727.37V693.25A21.87,21.87,0,0,1,458.9,671.38Z"/><path class="cls-6" d="M364.37,758.28H496.18a21.87,21.87,0,0,1,21.87,21.87v34.12a21.87,21.87,0,0,1-21.87,21.87H364.37a21.88,21.88,0,0,1-21.87-21.87V780.15A21.87,21.87,0,0,1,364.37,758.28Z"/><path class="cls-7" d="M699.24,813.51a21.77,21.77,0,0,0-21.77,21.77V970.21h23.19V813.51Z"/><path class="cls-7" d="M1244.28,970.21V835.28a21.77,21.77,0,0,0-15.92-21v155.9Z"/><rect class="cls-7" x="748.89" y="813.51" width="431.24" height="108.2"/><polygon class="cls-7" points="1017.87 968.92 1016.57 970.22 1019.16 970.22 1017.87 968.92"/><path class="cls-7" d="M1023.85,928.74l.33-.33h0a11.81,11.81,0,0,1,16.87,16.45l4,4a7.45,7.45,0,1,1-10.5,10.57l0,0-3.64-3.64-1.48,1.47,8.11,8.11a7.93,7.93,0,0,1,.71.71l.22.22h0a8.21,8.21,0,0,1,1.74,3.82h188.15l-48.23-48.5H748.89l-48.23,48.5H982.37l41.1-41.09Z"/><path class="cls-7" d="M1180.13,813.51v108.2l48.23,48.5V814.31a21.67,21.67,0,0,0-5.84-.8Z"/><polygon class="cls-7" points="748.89 813.51 700.66 813.51 700.66 970.22 748.89 921.71 748.89 813.51"/><rect class="cls-7" x="748.89" y="813.51" height="108.2"/><polygon class="cls-7" points="748.89 921.71 700.66 970.22 748.89 921.71 748.89 921.71"/><polygon class="cls-8" points="1016.57 970.22 982.37 970.22 980.3 972.29 1014.5 972.29 1016.57 970.22"/><path class="cls-8" d="M991.27,1013.61l-82.61-.09c0,.14,0,.27,0,.41h82.71C991.31,1013.82,991.28,1013.72,991.27,1013.61Z"/><path class="cls-8" d="M1021.23,972.29h19.06c0-.23,0-.46,0-.7a9,9,0,0,0-.12-1.38h-21.05Z"/><path class="cls-8" d="M986.93,999.86l27.57-27.57H980.3L970,982.56a41.68,41.68,0,0,0-61.37,31l82.61.09A41.42,41.42,0,0,0,986.93,999.86Z"/><path class="cls-8" d="M1026.1,977.16l.45.44.35.35h0a8.2,8.2,0,0,0,13.37-5.65h-19.06Z"/><path class="cls-8" d="M1017.87,968.92l1.29,1.29h21.05a8.21,8.21,0,0,0-1.74-3.82h0l-.22-.22a7.93,7.93,0,0,0-.71-.71l-8.11-8.11,1.48-1.47,3.64,3.64,0,0a7.45,7.45,0,1,0,10.5-10.57l-4-4a11.81,11.81,0,0,0-16.87-16.45h0l-.33.33-.38.38-41.1,41.09h34.2Z"/><path class="cls-9" d="M1280,1013.93H991.32a41.69,41.69,0,1,1-82.71,0H640.07V1080h640.59v-66.07Z"/><path class="cls-9" d="M950,1060.76a41.68,41.68,0,0,0,41.36-46.83H908.61A41.6,41.6,0,0,0,950,1060.76Z"/></svg>