<svg id="Layer_1" data-name="Layer 1" xmlns="http://www.w3.org/2000/svg" xmlns:xlink="http://www.w3.org/1999/xlink" viewBox="0 0 1920 1080"><defs><style>.cls-1{fill:#5b5653;}.cls-2{fill:#844725;}.cls-3{fill:#6d3f29;}.cls-4{fill:#2b2b2b;}.cls-5{fill:#4c4744;}.cls-6{fill:#3d3937;}.cls-7{fill:#56514f;}.cls-8{fill:url(#linear-gradient);}</style><linearGradient id="linear-gradient" x1="964.51" y1="919.79" x2="964.51" y2="64.9" gradientUnits="userSpaceOnUse"><stop offset="0" stop-color="#534741"/><stop offset="1" stop-color="#8c6239"/></linearGradient></defs><path class="cls-1" d="M1920,0H0V1080H640.07v-59.3H635.5a6.79,6.79,0,0,1-6.76-6.77,6.71,6.71,0,0,1,1-3.57h0a6.86,6.86,0,0,1,1.8-1.92l32.54-34.71h0a6.86,6.86,0,0,1,1-1.44h0a6.38,6.38,0,0,1,4.7-2.08h30.84V238.92l.69,1.1C711.13,110.66,825.21,8.58,964.51,8.58S1217.89,110.66,1227.67,240l.69-1.1V970.21h22.55a6.38,6.38,0,0,1,4.7,2.08l33,35.8a6.88,6.88,0,0,1,2.7,2.93h0a6.65,6.65,0,0,1,.67,2.91,6.79,6.79,0,0,1-6.76,6.77h-4.57V1080H1920ZM437,693.25a21.87,21.87,0,0,1,21.87-21.87H590.71a21.88,21.88,0,0,1,21.88,21.87v34.12a21.88,21.88,0,0,1-21.88,21.88H458.9A21.87,21.87,0,0,1,437,727.37Zm-94.54,86.9a21.89,21.89,0,0,1,21.88-21.88H496.18a21.88,21.88,0,0,1,21.87,21.88v34.12a21.88,21.88,0,0,1-21.87,21.88H364.37a21.89,21.89,0,0,1-21.88-21.88Zm-32.9,87.12a21.87,21.87,0,0,1,21.87-21.87H463.27a21.88,21.88,0,0,1,21.88,21.87V901.4a21.88,21.88,0,0,1-21.88,21.87H331.46a21.87,21.87,0,0,1-21.87-21.87ZM392,988a21.88,21.88,0,0,1-21.88,21.87H238.27A21.87,21.87,0,0,1,216.4,988V953.87A21.88,21.88,0,0,1,238.27,932H370.08A21.89,21.89,0,0,1,392,953.87Zm183,0a21.87,21.87,0,0,1-21.87,21.87H421.31A21.87,21.87,0,0,1,399.44,988V953.87A21.88,21.88,0,0,1,421.31,932H553.12A21.88,21.88,0,0,1,575,953.87Zm94.54-86.9A21.89,21.89,0,0,1,647.65,923H515.85A21.88,21.88,0,0,1,494,901.09V867a21.87,21.87,0,0,1,21.88-21.87h131.8A21.88,21.88,0,0,1,669.53,867ZM1441.4,204.24a21.88,21.88,0,0,1,21.88-21.88h131.8A21.89,21.89,0,0,1,1617,204.24v34.12a21.88,21.88,0,0,1-21.88,21.87h-131.8a21.87,21.87,0,0,1-21.88-21.87ZM1523.77,325a21.88,21.88,0,0,1-21.88,21.88H1370.08A21.87,21.87,0,0,1,1348.21,325V290.83A21.87,21.87,0,0,1,1370.08,269h131.81a21.88,21.88,0,0,1,21.88,21.87Zm183,0a21.87,21.87,0,0,1-21.87,21.88H1553.12A21.87,21.87,0,0,1,1531.25,325V290.83A21.87,21.87,0,0,1,1553.12,269h131.81a21.87,21.87,0,0,1,21.87,21.87Zm94.54-86.89a21.87,21.87,0,0,1-21.88,21.87h-131.8a21.88,21.88,0,0,1-21.88-21.87V203.94a21.88,21.88,0,0,1,21.88-21.88h131.8a21.87,21.87,0,0,1,21.88,21.88Z"/><rect class="cls-2" x="640.07" y="1020.7" width="640.6" height="59.3"/><path class="cls-3" d="M1280.66,1013.93v6.77h4.57a6.79,6.79,0,0,0,6.76-6.77,6.65,6.65,0,0,0-.67-2.91l-661.55-.66a6.71,6.71,0,0,0-1,3.57,6.79,6.79,0,0,0,6.76,6.77h4.57v-6.77Z"/><path class="cls-3" d="M1288.62,1008.09l2.7,2.93A6.88,6.88,0,0,0,1288.62,1008.09Z"/><path class="cls-3" d="M629.77,1010.36l1.8-1.92A6.86,6.86,0,0,0,629.77,1010.36Z"/><rect class="cls-3" x="640.07" y="1013.93" width="640.6" height="6.77"/><path class="cls-3" d="M1255.61,972.29a6.38,6.38,0,0,0-4.7-2.08H669.82a6.38,6.38,0,0,0-4.7,2.08Z"/><path class="cls-3" d="M664.11,973.73l1-1.44A6.86,6.86,0,0,0,664.11,973.73Z"/><polygon class="cls-3" points="665.12 972.29 665.12 972.29 665.12 972.29 665.12 972.29"/><path class="cls-3" d="M1285.23,1007.17a6.75,6.75,0,0,1,3.39.92l-33-35.8a6.34,6.34,0,0,1,1.71,4.33v.72a6.43,6.43,0,0,1-6.41,6.41H669.82a6.42,6.42,0,0,1-6.41-6.41v-.72a6.39,6.39,0,0,1,.7-2.89h0l-32.54,34.71a6.71,6.71,0,0,1,3.93-1.27Z"/><path class="cls-3" d="M1291.32,1011l-2.7-2.93a6.75,6.75,0,0,0-3.39-.92H635.5a6.71,6.71,0,0,0-3.93,1.27l-1.8,1.92h0l661.55.66Z"/><path class="cls-3" d="M663.41,977.34a6.42,6.42,0,0,0,6.41,6.41h581.09a6.43,6.43,0,0,0,6.41-6.41v-.72a6.34,6.34,0,0,0-1.71-4.33H665.11l-1,1.44a6.39,6.39,0,0,0-.7,2.89Z"/><path class="cls-4" d="M964.51,10.71c138.93,0,252.66,102,262,231.09l1.12-1.78C1217.89,110.66,1103.82,8.58,964.51,8.58S711.13,110.66,701.35,240l1.12,1.78C711.86,112.69,825.58,10.71,964.51,10.71Z"/><polygon class="cls-5" points="1226.24 968.08 702.78 968.08 700.66 970.21 1228.36 970.21 1226.24 968.08"/><path class="cls-6" d="M1228.36,264.87v-6.81q0,3.42-.1,6.81Z"/><path class="cls-6" d="M1228.36,238.92l-.69,1.1q.67,8.94.69,18Z"/><path class="cls-6" d="M1227.19,259.08q0,3.41-.1,6.79h.1V968.08h-1l2.12,2.13V264.87h-.1q.1-3.39.1-6.81,0-9.1-.69-18l-1.12,1.78Q1227.18,250.36,1227.19,259.08Z"/><path class="cls-6" d="M700.66,238.92v19.14q0-9.1.69-18Z"/><path class="cls-6" d="M700.66,258.06v6.81h.1C700.7,262.61,700.66,260.34,700.66,258.06Z"/><path class="cls-6" d="M701.83,968.08V265.87h.1q-.1-3.39-.1-6.79c0-5.81.23-11.57.64-17.28L701.35,240q-.68,8.94-.69,18c0,2.28,0,4.55.1,6.81h-.1V970.21l2.12-2.13Z"/><polygon class="cls-6" points="702.78 968.08 700.66 970.21 702.78 968.08 702.78 968.08"/><path class="cls-7" d="M1463.28,182.36h131.81A21.87,21.87,0,0,1,1617,204.24v34.12a21.87,21.87,0,0,1-21.87,21.87H1463.28a21.87,21.87,0,0,1-21.87-21.87V204.24a21.88,21.88,0,0,1,21.88-21.87Z"/><path class="cls-7" d="M1647.66,182.06h131.81a21.87,21.87,0,0,1,21.87,21.87v34.12a21.87,21.87,0,0,1-21.87,21.87H1647.66a21.88,21.88,0,0,1-21.87-21.87V203.94A21.88,21.88,0,0,1,1647.66,182.06Z"/><path class="cls-7" d="M1553.12,269h131.81a21.87,21.87,0,0,1,21.87,21.87V325a21.88,21.88,0,0,1-21.87,21.88H1553.12A21.87,21.87,0,0,1,1531.25,325V290.83A21.87,21.87,0,0,1,1553.12,269Z"/><path class="cls-7" d="M1370.08,269h131.81a21.87,21.87,0,0,1,21.87,21.87V325a21.88,21.88,0,0,1-21.87,21.88H1370.08A21.87,21.87,0,0,1,1348.21,325V290.83A21.87,21.87,0,0,1,1370.08,269Z"/><path class="cls-7" d="M331.46,845.4H463.27a21.87,21.87,0,0,1,21.87,21.87v34.12a21.88,21.88,0,0,1-21.87,21.88H331.46a21.87,21.87,0,0,1-21.87-21.87V867.27A21.87,21.87,0,0,1,331.46,845.4Z"/><path class="cls-7" d="M515.85,845.1H647.65A21.88,21.88,0,0,1,669.53,867v34.12A21.88,21.88,0,0,1,647.65,923H515.85A21.87,21.87,0,0,1,494,901.09V867A21.88,21.88,0,0,1,515.85,845.1Z"/><rect class="cls-7" x="399.44" y="931.99" width="175.56" height="77.87" rx="21.87"/><path class="cls-7" d="M238.27,932H370.08A21.87,21.87,0,0,1,392,953.87V988a21.87,21.87,0,0,1-21.87,21.87H238.27A21.87,21.87,0,0,1,216.4,988V953.87A21.88,21.88,0,0,1,238.27,932Z"/><path class="cls-7" d="M458.9,671.38H590.71a21.87,21.87,0,0,1,21.87,21.87v34.12a21.88,21.88,0,0,1-21.87,21.88H458.9A21.87,21.87,0,0,1,437,727.37V693.25A21.87,21.87,0,0,1,458.9,671.38Z"/><path class="cls-7" d="M364.37,758.27H496.18a21.87,21.87,0,0,1,21.87,21.87v34.12a21.88,21.88,0,0,1-21.87,21.88H364.37a21.87,21.87,0,0,1-21.87-21.87V780.15A21.87,21.87,0,0,1,364.37,758.27Z"/><path class="cls-4" d="M1180.13,291.87h-.08c0-2,.08-4.05.08-6.09,0-123-96.53-222.77-215.62-222.77S748.89,162.75,748.89,285.78c0,2,0,4.06.08,6.09h-.08v23.88h0v605l1-1v-627h.08q-.07-3-.08-6.06C749.85,164.19,846,64.9,964.51,64.9s214.67,99.29,214.67,221.78q0,3-.09,6.06h.09V919.79l1,1V291.87Z"/><path class="cls-4" d="M748.89,291.87H749c-.05-2-.08-4.05-.08-6.09,0-123,96.54-222.77,215.62-222.77s215.62,99.74,215.62,222.77c0,2,0,4.06-.08,6.09h.08v23.89l46.42-74c-9.38-129.11-123.11-231.09-262-231.09s-252.65,102-262,231.09l46.42,73.95Z"/><path class="cls-4" d="M1180.13,920.75l47.06,47.33V265.87h-.1q.11-3.39.1-6.79,0-8.71-.64-17.28l-46.42,74Z"/><rect class="cls-4" x="446.39" y="618.25" width="605" transform="translate(-197.43 400.18) rotate(-26.57)"/><path class="cls-4" d="M748.89,315.75,702.47,241.8c-.41,5.71-.64,11.47-.64,17.28q0,3.41.1,6.79h-.1V968.08l47.06-47.33Z"/><path class="cls-1" d="M1179.18,292.74h-.09q.09-3,.09-6.06c0-122.49-96.11-221.78-214.67-221.78S749.85,164.19,749.85,286.68q0,3,.08,6.06h-.08V919.79h429.33Z"/><path class="cls-8" d="M1179.18,292.74h-.09q.09-3,.09-6.06c0-122.49-96.11-221.78-214.67-221.78S749.85,164.19,749.85,286.68q0,3,.08,6.06h-.08V919.79h429.33Z"/><polygon class="cls-5" points="749.85 919.79 748.89 920.75 748.89 921.71 1180.13 921.71 1180.13 920.75 1179.17 919.79 749.85 919.79"/><polygon class="cls-5" points="748.89 921.71 702.78 968.08 1226.24 968.08 1180.13 921.71 748.89 921.71"/><polygon class="cls-5" points="1180.13 920.75 1180.13 921.71 1226.24 968.08 1227.19 968.08 1180.13 920.75"/><rect class="cls-5" x="748.89" y="920.75" height="0.95"/><polygon class="cls-5" points="748.89 920.75 701.83 968.08 702.78 968.08 748.89 921.71 748.89 920.75"/><rect class="cls-5" x="693.13" y="944.9" width="65.4" transform="translate(-455.99 793.36) rotate(-45.16)"/></svg>