<svg xmlns="http://www.w3.org/2000/svg" viewBox="0 0 240.77 180.72"><defs><style>.cls-1{fill:#844725;}.cls-2{fill:#6d3f29;}.cls-3{fill:#231005;}.cls-4{fill:#593020;}.cls-5{fill:#fff;}</style></defs><g id="Layer_2" data-name="Layer 2"><g id="Layer_1-2" data-name="Layer 1"><polygon class="cls-1" points="240.77 180.72 11.32 180.72 11.32 50.44 73.22 50.44 240.77 180.72"/><path class="cls-2" d="M.69,40.77l94.05-.09-6.61,3H11.32v6.76H6.76A6.78,6.78,0,0,1,0,43.68,6.63,6.63,0,0,1,.69,40.77Z"/><polygon class="cls-2" points="88.13 43.68 73.22 50.44 11.32 50.44 11.32 43.68 88.13 43.68"/><path class="cls-2" d="M36.37,2.07A6.36,6.36,0,0,1,41,0H184.4l-4.56,2.07Z"/><path class="cls-2" d="M34.64,7.12a6.42,6.42,0,0,0,6.4,6.4H154.59L103,36.92H6.76a6.75,6.75,0,0,0-3.44,1l33-35.82h0A6.36,6.36,0,0,0,34.64,6.4Z"/><path class="cls-2" d="M103,36.92l-8.29,3.76-94,.09a.08.08,0,0,1,0,0l2.61-2.84a6.75,6.75,0,0,1,3.44-1Z"/><path class="cls-2" d="M154.59,13.52H41a6.42,6.42,0,0,1-6.4-6.4V6.4a6.36,6.36,0,0,1,1.73-4.33H179.84Z"/><polygon class="cls-3" points="240.77 180.72 184.4 19.98 73.22 50.44 240.77 180.72"/><polygon class="cls-4" points="184.4 0 184.4 19.98 73.22 50.44 184.4 0"/><path class="cls-5" d="M66.62,60.39,85.13,75c3.5,2.76,8.48-2.16,5-5L71.57,55.44c-3.5-2.76-8.49,2.16-4.95,5Z"/><path class="cls-5" d="M94.4,83.88l18.52,14.63c3.49,2.76,8.48-2.16,5-5L99.35,78.93c-3.49-2.77-8.48,2.16-4.95,4.95Z"/><path class="cls-5" d="M122.38,105.16l18.52,14.63c3.49,2.76,8.48-2.16,4.95-5l-18.52-14.63c-3.49-2.77-8.48,2.15-5,5Z"/><path class="cls-5" d="M150.17,128.64l18.51,14.63c3.5,2.77,8.49-2.15,4.95-5l-18.51-14.63c-3.5-2.76-8.48,2.16-5,4.95Z"/><path class="cls-5" d="M180.6,150.77l18.51,14.63c3.5,2.77,8.48-2.15,4.95-5l-18.51-14.63c-3.5-2.76-8.49,2.16-5,5Z"/><path class="cls-5" d="M208.38,174.26l6.6,5.1c1.49,1.16,3.49,1.46,5,0,1.2-1.2,1.5-3.78,0-5l-6.6-5.1c-1.49-1.15-3.49-1.45-5,0-1.2,1.21-1.5,3.79,0,4.95Z"/></g></g></svg>