<svg xmlns="http://www.w3.org/2000/svg" viewBox="0 0 442.43 217.27"><defs><style>.cls-1{fill:#844725;}.cls-2{fill:#6d3f29;}.cls-3{fill:#231005;}.cls-4{fill:#593020;}.cls-5{fill:#fff;}</style></defs><g id="Layer_2" data-name="Layer 2"><g id="Layer_1-2" data-name="Layer 1"><polygon class="cls-1" points="13.61 60.64 13.61 217.27 359.44 217.27 199.73 60.64 13.61 60.64"/><path class="cls-2" d="M232.26,52.51l16.18-4L1.26,48.22A8,8,0,0,0,0,52.51a8.16,8.16,0,0,0,8.13,8.13h5.48V52.51Z"/><polygon class="cls-2" points="232.26 52.51 13.61 52.51 13.61 60.64 199.73 60.64 232.26 52.51"/><path class="cls-2" d="M442.43,0H49.34a7.65,7.65,0,0,0-5.62,2.49H432.47Z"/><path class="cls-2" d="M264.79,44.38,377.37,16.26h-328a7.72,7.72,0,0,1-7.69-7.7V7.69a7.6,7.6,0,0,1,1-3.66l-.13.19L3.34,46a8.08,8.08,0,0,1,4.79-1.6Z"/><path class="cls-2" d="M264.79,44.38H8.13A8.08,8.08,0,0,0,3.34,46l-2.06,2.2s0,0,0,0l247.18.25Z"/><path class="cls-2" d="M41.65,8.56a7.72,7.72,0,0,0,7.69,7.7h328l55.1-13.77H43.72l-.14.16L42.62,4a7.6,7.6,0,0,0-1,3.66Z"/><polygon class="cls-3" points="359.44 217.27 427.69 199.1 432.48 16.26 199.73 60.64 359.44 217.27"/><polygon class="cls-4" points="442.44 0 432.48 16.26 199.73 60.64 442.44 0"/><path class="cls-5" d="M187.6,70.42l17,16.37c3.25,3.12,8.21-1.82,5-5l-17-16.37c-3.24-3.12-8.2,1.82-5,5Z"/><path class="cls-5" d="M213,96.5l17,16.37c3.25,3.12,8.21-1.82,4.95-5l-17-16.37c-3.24-3.12-8.2,1.82-4.95,5Z"/><path class="cls-5" d="M238.75,120.4l17,16.36c3.25,3.13,8.2-1.82,4.95-4.95l-17-16.36c-3.25-3.12-8.2,1.82-4.95,5Z"/><path class="cls-5" d="M263.32,145.35l7.48,7.2c3.25,3.12,8.2-1.82,4.95-5l-7.48-7.2c-3.25-3.13-8.21,1.82-4.95,4.95Z"/></g></g></svg>