<svg xmlns="http://www.w3.org/2000/svg" viewBox="0 0 117.78 88.4"><defs><style>.cls-1{fill:#844725;}.cls-2{fill:#6d3f29;}.cls-3{fill:#231005;}.cls-4{fill:#593020;}</style></defs><g id="Layer_2" data-name="Layer 2"><g id="Layer_1-2" data-name="Layer 1"><polygon class="cls-1" points="117.78 88.4 5.54 88.4 5.54 24.67 35.82 24.67 117.78 88.4"/><path class="cls-2" d="M.34,19.94l46,0-3.23,1.47H5.54v3.3H3.31a3.28,3.28,0,0,1-3-4.73Z"/><polygon class="cls-2" points="43.11 21.37 35.82 24.67 5.54 24.67 5.54 21.37 43.11 21.37"/><path class="cls-2" d="M17.79,1a3.1,3.1,0,0,1,2.29-1H90.2L88,1Z"/><path class="cls-2" d="M17,3.48a3.13,3.13,0,0,0,3.13,3.13H75.62L50.4,18.06H3.31a3.2,3.2,0,0,0-1.68.48L17.78,1h0A3.1,3.1,0,0,0,17,3.13Z"/><path class="cls-2" d="M50.4,18.06,46.34,19.9l-46,0v0l1.28-1.38a3.2,3.2,0,0,1,1.68-.48Z"/><path class="cls-2" d="M75.62,6.61H20.08A3.13,3.13,0,0,1,17,3.48V3.13A3.1,3.1,0,0,1,17.79,1H88Z"/><polygon class="cls-3" points="117.78 88.4 90.2 9.77 35.82 24.67 117.78 88.4"/><polygon class="cls-4" points="90.2 0 90.2 9.77 35.82 24.67 90.2 0"/></g></g></svg>