<svg xmlns="http://www.w3.org/2000/svg" xmlns:xlink="http://www.w3.org/1999/xlink" viewBox="0 0 1921.99 1080"><defs><style>.cls-1{fill:#5b5653;}.cls-2{fill:#56514f;}.cls-3{fill:url(#linear-gradient);}.cls-4{fill:#844725;}.cls-5{fill:#6d3f29;}</style><linearGradient id="linear-gradient" x1="959.19" y1="1079.15" x2="959.19" y2="826.31" gradientUnits="userSpaceOnUse"><stop offset="0" stop-color="#603813"/><stop offset="1" stop-color="#42210b"/></linearGradient></defs><g id="Layer_2" data-name="Layer 2"><g id="Layer_1-2" data-name="Layer 1"><rect class="cls-1" x="1.99" width="1920" height="1080"/><path class="cls-2" d="M1603.74,784.15H1424.28a29.78,29.78,0,0,1-29.78-29.78V707.91a29.78,29.78,0,0,1,29.78-29.78h179.46a29.78,29.78,0,0,1,29.78,29.78v46.46A29.78,29.78,0,0,1,1603.74,784.15Z"/><path class="cls-2" d="M1352.7,784.56H1173.25a29.78,29.78,0,0,1-29.79-29.78V708.32a29.78,29.78,0,0,1,29.79-29.78H1352.7a29.78,29.78,0,0,1,29.79,29.78v46.46A29.78,29.78,0,0,1,1352.7,784.56Z"/><path class="cls-2" d="M1481.41,666.25H1302a29.79,29.79,0,0,1-29.79-29.78V590A29.78,29.78,0,0,1,1302,560.23h179.45A29.78,29.78,0,0,1,1511.2,590v46.46A29.79,29.79,0,0,1,1481.41,666.25Z"/><path class="cls-2" d="M1730.62,666.25H1551.16a29.79,29.79,0,0,1-29.78-29.78V590a29.78,29.78,0,0,1,29.78-29.78h179.46A29.78,29.78,0,0,1,1760.4,590v46.46A29.78,29.78,0,0,1,1730.62,666.25Z"/><rect class="cls-3" y="826.31" width="1918.37" height="252.83"/><rect class="cls-4" x="321.51" y="50.99" width="704.63" height="150.88"/><rect class="cls-5" x="309.05" y="43.55" width="729.55" height="14.89" rx="7.44"/><rect class="cls-5" x="347.19" y="2.9" width="653.26" height="14.89" rx="7.04"/><polygon class="cls-5" points="347.96 6.77 310.19 47.06 1037.86 47.79 998.58 5.18 349.07 5.18 347.96 6.77"/><rect class="cls-4" x="257.31" y="382.7" width="831.11" height="177.97"/><rect class="cls-5" x="242.61" y="373.92" width="860.5" height="17.56" rx="8.78"/><rect class="cls-5" x="287.6" y="325.98" width="770.53" height="17.56" rx="8.31"/><polygon class="cls-5" points="288.51 330.55 243.95 378.07 1102.25 378.93 1055.91 328.67 289.81 328.67 288.51 330.55"/><rect class="cls-4" x="221.2" y="566.25" width="904.74" height="193.73"/><rect class="cls-5" x="205.2" y="556.7" width="936.74" height="19.11" rx="9.56"/><rect class="cls-5" x="254.17" y="504.51" width="838.79" height="19.11" rx="9.04"/><polygon class="cls-5" points="255.16 509.48 206.66 561.21 1140.99 562.15 1090.55 507.44 256.58 507.44 255.16 509.48"/><rect class="cls-4" x="173.66" y="801.08" width="998.4" height="213.79"/><rect class="cls-5" x="156.01" y="790.53" width="1033.71" height="21.09" rx="10.55"/><rect class="cls-5" x="210.05" y="732.94" width="925.62" height="21.09" rx="9.98"/><polygon class="cls-5" points="211.14 738.42 157.62 795.51 1188.67 796.55 1133.01 736.17 212.71 736.17 211.14 738.42"/></g></g></svg>