<svg xmlns="http://www.w3.org/2000/svg" xmlns:xlink="http://www.w3.org/1999/xlink" viewBox="0 0 505.66 1007.05"><defs><style>.cls-1{fill:#2b2b2b;}.cls-2{fill:url(#linear-gradient);}.cls-3{fill:#4c4744;}.cls-4{fill:#844725;}.cls-5{fill:#6d3f29;}.cls-6{fill:url(#linear-gradient-2);}.cls-7{fill:#3d3937;}.cls-8{fill:#5b3e06;}.cls-9{fill:#231b0c;}</style><linearGradient id="linear-gradient" x1="253.14" y1="448.09" x2="253.14" y2="28.43" gradientUnits="userSpaceOnUse"><stop offset="0" stop-color="#534741"/><stop offset="1" stop-color="#8c6239"/></linearGradient><linearGradient id="linear-gradient-2" x1="253.14" y1="448.09" x2="253.14" y2="380.19" gradientUnits="userSpaceOnUse"><stop offset="0" stop-color="#754c24"/><stop offset="0.57" stop-color="#42210b"/><stop offset="1" stop-color="#42210b"/></linearGradient></defs><g id="Layer_2" data-name="Layer 2"><g id="Layer_1-2" data-name="Layer 1"><path class="cls-1" d="M382.09,123.75c0-67.33-57.74-121.92-128.95-121.92S124.19,56.42,124.19,123.75c0,1.12,0,2.23,0,3.34h0V471.8l23.57-23.71V140.28h0c0-1,0-2,0-3,0-60.13,47.18-108.87,105.38-108.87S358.52,77.17,358.52,137.3c0,1,0,2,0,3h0V448.09l23.57,23.71V127.09h0C382.07,126,382.09,124.87,382.09,123.75Z"/><path class="cls-2" d="M358.52,140.28h0c0-1,0-2,0-3,0-60.13-47.18-108.87-105.38-108.87S147.76,77.17,147.76,137.3c0,1,0,2,0,3h0V448.09H358.52Z"/><polygon class="cls-3" points="147.76 448.09 124.19 471.8 382.09 471.8 358.51 448.09 147.76 448.09"/><rect class="cls-4" x="80.49" y="547.3" width="344.68" height="73.81"/><rect class="cls-5" x="74.39" y="543.66" width="356.87" height="7.28" rx="3.64"/><rect class="cls-5" x="93.05" y="523.77" width="319.56" height="7.28" rx="3.45"/><polygon class="cls-5" points="93.43 525.67 74.95 545.38 430.9 545.73 411.69 524.89 93.97 524.89 93.43 525.67"/><rect class="cls-4" x="49.55" y="697.82" width="406.55" height="87.05"/><rect class="cls-5" x="42.36" y="693.52" width="420.93" height="8.59" rx="4.29"/><rect class="cls-5" x="64.37" y="670.07" width="376.92" height="8.59" rx="4.06"/><polygon class="cls-5" points="64.81 672.3 43.02 695.55 462.87 695.97 440.2 671.39 65.45 671.39 64.81 672.3"/><rect class="cls-4" x="8.64" y="902.47" width="488.38" height="104.58"/><rect class="cls-5" y="897.31" width="505.66" height="10.32" rx="5.16"/><rect class="cls-5" x="26.44" y="869.14" width="452.78" height="10.32" rx="4.88"/><polygon class="cls-5" points="26.97 871.83 0.79 899.75 505.14 900.26 477.92 870.72 27.74 870.72 26.97 871.83"/><rect class="cls-6" x="147.76" y="380.19" width="210.75" height="67.9"/><polygon class="cls-7" points="382.09 114.4 358.51 151.95 358.51 448.09 382.09 471.8 382.09 114.4"/><polygon class="cls-7" points="124.19 114.4 147.76 151.95 147.76 448.09 124.19 471.8 124.19 114.4"/><path class="cls-1" d="M381.21,121.92C381.21,54.59,323.48,0,252.26,0S123.31,54.59,123.31,121.92c0,1.12,0,2.23,0,3.34h0V470l23.57-23.71V138.45h0c0-1,0-2,0-3,0-60.13,47.18-108.87,105.38-108.87S357.64,75.34,357.64,135.47c0,1,0,2,0,3h0V446.26L381.21,470V125.26h0C381.19,124.15,381.21,123,381.21,121.92Z"/><path class="cls-8" d="M357.64,138.45h0c0-1,0-2,0-3,0-60.13-47.18-108.87-105.38-108.87S146.88,75.34,146.88,135.47c0,1,0,2,0,3h0V446.26H357.64Z"/><polygon class="cls-3" points="146.88 446.26 123.31 469.97 381.21 469.97 357.64 446.26 146.88 446.26"/><polygon class="cls-7" points="381.21 112.57 357.64 150.12 357.64 446.26 381.21 469.97 381.21 112.57"/><polygon class="cls-7" points="123.31 112.57 146.88 150.12 146.88 446.26 123.31 469.97 123.31 112.57"/><circle class="cls-9" cx="322.18" cy="242.94" r="15.61"/></g></g></svg>