<svg xmlns="http://www.w3.org/2000/svg" viewBox="0 0 597.45 221.1"><defs><style>.cls-1{fill:#844725;}.cls-2{fill:#6d3f29;}.cls-3{fill:#fff;}</style></defs><g id="Layer_2" data-name="Layer 2"><g id="Layer_1-2" data-name="Layer 1"><polygon class="cls-1" points="160.26 217.27 583.84 217.27 583.84 60.64 0.54 60.64 160.26 217.27"/><path class="cls-2" d="M596.63,49s0,0,0-.06l-3.15-3.41L553.75,2.49h0A7.65,7.65,0,0,0,548.11,0H243.25l-10,2.49L178.18,16.26,65.61,44.38,49.25,48.47l-16.18,4L.54,60.64H589.32a8.16,8.16,0,0,0,8.13-8.13A8,8,0,0,0,596.63,49Z"/><path class="cls-3" d="M10.68,221.08H34.27c4.51,0,4.51-7,0-7H10.68c-4.51,0-4.52,7,0,7Z"/><path class="cls-3" d="M46.84,221.1h23.6c4.5,0,4.51-7,0-7H46.84c-4.5,0-4.51,7,0,7Z"/><path class="cls-3" d="M83.21,220.59H106.8c4.51,0,4.51-7,0-7H83.21c-4.51,0-4.52,7,0,7Z"/><path class="cls-3" d="M120.8,220.77h23.59c4.51,0,4.51-7,0-7H120.8c-4.51,0-4.51,7,0,7Z"/><path class="cls-3" d="M0,73.18.14,96.77c0,4.51,7,4.52,7,0L7,73.18c0-4.51-7-4.52-7,0Z"/><path class="cls-3" d="M.19,109.34l.14,23.6c0,4.5,7,4.51,7,0l-.14-23.6c0-4.5-7-4.51-7,0Z"/><path class="cls-3" d="M.91,145.7l.14,23.6c0,4.5,7,4.51,7,0l-.14-23.6c0-4.5-7-4.51-7,0Z"/><path class="cls-3" d="M.93,183.29l.14,23.6c0,4.5,7,4.51,7,0l-.14-23.6c0-4.5-7-4.51-7,0Z"/></g></g></svg>