<svg xmlns="http://www.w3.org/2000/svg" viewBox="0 0 663.25 109.79"><defs><style>.cls-1{fill:#844725;}.cls-2{fill:#6d3f29;}</style></defs><g id="Layer_2" data-name="Layer 2"><g id="Layer_1-2" data-name="Layer 1"><rect class="cls-1" x="11.33" y="50.48" width="640.6" height="59.3"/><path class="cls-2" d="M651.93,43.72v6.76h4.56a6.75,6.75,0,0,0,3.39-12.6l2.7,2.93L1,40.15a6.71,6.71,0,0,0-1,3.57,6.79,6.79,0,0,0,6.77,6.76h4.56V43.72Z"/><rect class="cls-2" x="11.33" y="43.72" width="640.6" height="6.77"/><path class="cls-2" d="M622.18,0H41.08a6.41,6.41,0,0,0-4.7,2.07H626.87A6.37,6.37,0,0,0,622.18,0Z"/><path class="cls-2" d="M656.49,37a6.66,6.66,0,0,1,3.39.93l-33-35.81h0a6.34,6.34,0,0,1,1.71,4.33v.73a6.42,6.42,0,0,1-6.4,6.4H41.08a6.42,6.42,0,0,1-6.4-6.4V6.4a6.37,6.37,0,0,1,.69-2.88h0L2.83,38.23A6.72,6.72,0,0,1,6.77,37Z"/><path class="cls-2" d="M659.88,37.88a6.66,6.66,0,0,0-3.39-.93H6.77a6.72,6.72,0,0,0-3.94,1.28L1,40.15H1l661.55.66Z"/><path class="cls-2" d="M34.68,7.13a6.42,6.42,0,0,0,6.4,6.4h581.1a6.42,6.42,0,0,0,6.4-6.4V6.4a6.34,6.34,0,0,0-1.71-4.33H36.38l-1,1.44a6.37,6.37,0,0,0-.69,2.88Z"/></g></g></svg>