<svg xmlns="http://www.w3.org/2000/svg" viewBox="0 0 291.99 106.28"><defs><style>.cls-1{fill:#844725;}.cls-2{fill:#6d3f29;}</style></defs><g id="Layer_2" data-name="Layer 2"><g id="Layer_1-2" data-name="Layer 1"><polygon class="cls-1" points="78.13 106.28 285.33 106.28 285.33 29.66 0 29.66 78.13 106.28"/><path class="cls-2" d="M291.59,24,23.83,23.71l-7.92,2H285.33v4H288a4,4,0,0,0,4-4A3.91,3.91,0,0,0,291.59,24Z"/><polygon class="cls-2" points="15.91 25.69 0 29.66 285.33 29.66 285.33 25.69 15.91 25.69"/><path class="cls-2" d="M270.6,1.22A3.72,3.72,0,0,0,267.85,0H118.72l-4.87,1.22Z"/><path class="cls-2" d="M271.61,4.19A3.77,3.77,0,0,1,267.85,8H86.9L31.83,21.71H288a4,4,0,0,1,2,.57L270.61,1.22h0a3.69,3.69,0,0,1,1,2.54Z"/><path class="cls-2" d="M31.83,21.71l-8,2L291.59,24s0,0,0,0L290,22.28a4,4,0,0,0-2-.57Z"/><path class="cls-2" d="M86.9,8h181a3.77,3.77,0,0,0,3.76-3.76V3.76a3.69,3.69,0,0,0-1-2.54H113.85Z"/></g></g></svg>