<svg xmlns="http://www.w3.org/2000/svg" viewBox="0 0 216.42 106.28"><defs><style>.cls-1{fill:#844725;}.cls-2{fill:#6d3f29;}.cls-3{fill:#231005;}.cls-4{fill:#593020;}</style></defs><g id="Layer_2" data-name="Layer 2"><g id="Layer_1-2" data-name="Layer 1"><polygon class="cls-1" points="6.66 29.66 6.66 106.28 175.83 106.28 97.7 29.66 6.66 29.66"/><path class="cls-2" d="M113.61,25.69l7.92-2L.62,23.59A3.86,3.86,0,0,0,0,25.69a4,4,0,0,0,4,4H6.66v-4Z"/><polygon class="cls-2" points="113.61 25.69 6.66 25.69 6.66 29.66 97.7 29.66 113.61 25.69"/><path class="cls-2" d="M216.42,0H24.14a3.7,3.7,0,0,0-2.75,1.22H211.55Z"/><path class="cls-2" d="M129.53,21.71,184.6,8H24.14a3.78,3.78,0,0,1-3.77-3.76V3.76A3.77,3.77,0,0,1,20.85,2l-.07.1L1.63,22.49A4,4,0,0,1,4,21.71Z"/><path class="cls-2" d="M129.53,21.71H4a4,4,0,0,0-2.35.78l-1,1.08v0l120.91.12Z"/><path class="cls-2" d="M20.37,4.19A3.78,3.78,0,0,0,24.14,8H184.6l27-6.73H21.39a.27.27,0,0,0-.07.08L20.85,2a3.77,3.77,0,0,0-.48,1.79Z"/><polygon class="cls-3" points="175.83 106.28 209.21 97.39 211.55 7.95 97.7 29.66 175.83 106.28"/><polygon class="cls-4" points="216.42 0 211.55 7.95 97.7 29.66 216.42 0"/></g></g></svg>