<svg xmlns="http://www.w3.org/2000/svg" xmlns:xlink="http://www.w3.org/1999/xlink" viewBox="0 0 1921.24 1086.28"><defs><style>.cls-1,.cls-9{opacity:0.97;}.cls-2{fill:#776c64;}.cls-3{fill:#7f7f7f;}.cls-4{fill:#5b5855;}.cls-5{fill:#0a0a0a;}.cls-6{fill:#383736;}.cls-7{fill:#8e8e8e;}.cls-8{fill:#aa9c8f;}.cls-75,.cls-9{fill:#726962;}.cls-10{fill:#a8a7a7;opacity:0.5;}.cls-11{fill:#444240;}.cls-12{fill:#515151;}.cls-13{fill:#424242;}.cls-14{fill:#2d2d2d;}.cls-15{fill:#367036;}.cls-16{fill:#75aa75;}.cls-17{fill:#335b34;}.cls-18{fill:#62b762;}.cls-19{fill:#319b31;}.cls-20{fill:#0b510b;}.cls-21{fill:#4aaf3f;}.cls-22{fill:#268c18;}.cls-23{fill:#269b26;}.cls-24{fill:#448e44;}.cls-25{fill:#048704;}.cls-26{fill:#3d9957;}.cls-27{fill:url(#linear-gradient);}.cls-28{fill:url(#linear-gradient-2);}.cls-29{fill:#588758;}.cls-30{fill:#209620;}.cls-31{fill:#176017;}.cls-32{fill:#475945;}.cls-33{fill:#3d5639;}.cls-34{fill:url(#linear-gradient-3);}.cls-35{fill:url(#linear-gradient-4);}.cls-36{fill:url(#linear-gradient-5);}.cls-37{fill:url(#linear-gradient-6);}.cls-38{fill:#3f3330;}.cls-39{fill:#5b5654;}.cls-40{fill:#42723b;}.cls-41{fill:#4d8e42;}.cls-42{fill:url(#linear-gradient-7);}.cls-43{fill:url(#linear-gradient-8);}.cls-44{fill:url(#linear-gradient-9);}.cls-45{fill:url(#linear-gradient-10);}.cls-46{fill:url(#linear-gradient-11);}.cls-47{fill:url(#linear-gradient-12);}.cls-48{fill:url(#linear-gradient-13);}.cls-49{fill:url(#linear-gradient-14);}.cls-50{fill:url(#linear-gradient-15);}.cls-51{fill:url(#linear-gradient-16);}.cls-52{fill:url(#linear-gradient-17);}.cls-53{fill:url(#linear-gradient-18);}.cls-54{fill:url(#linear-gradient-19);}.cls-55{fill:url(#linear-gradient-20);}.cls-56{fill:url(#linear-gradient-21);}.cls-57{fill:url(#linear-gradient-22);}.cls-58{fill:#8c8b8b;}.cls-59{fill:#595959;}.cls-60{fill:url(#linear-gradient-23);}.cls-61{fill:url(#linear-gradient-24);}.cls-62{fill:#895d45;}.cls-63{fill:#6d402c;}.cls-64{fill:none;}.cls-65{fill:url(#linear-gradient-25);}.cls-66{fill:url(#linear-gradient-26);}.cls-67{fill:url(#linear-gradient-27);}.cls-68{fill:url(#linear-gradient-28);}.cls-69{fill:url(#linear-gradient-29);}.cls-70{fill:url(#linear-gradient-30);}.cls-71{fill:url(#linear-gradient-31);}.cls-72{fill:url(#linear-gradient-32);}.cls-73{fill:url(#linear-gradient-33);}.cls-74{fill:url(#linear-gradient-34);}</style><linearGradient id="linear-gradient" x1="1106.48" y1="235.86" x2="1135.73" y2="235.86" gradientUnits="userSpaceOnUse"><stop offset="0" stop-color="#209620"/><stop offset="1" stop-color="#0b510b"/></linearGradient><linearGradient id="linear-gradient-2" x1="1105.74" y1="238.7" x2="1135" y2="238.7" xlink:href="#linear-gradient"/><linearGradient id="linear-gradient-3" x1="710.21" y1="590.5" x2="724.36" y2="566" gradientUnits="userSpaceOnUse"><stop offset="0" stop-color="#75aa75"/><stop offset="1" stop-color="#367036"/></linearGradient><linearGradient id="linear-gradient-4" x1="712.79" y1="590.93" x2="726.94" y2="566.43" xlink:href="#linear-gradient-3"/><linearGradient id="linear-gradient-5" x1="697.76" y1="510.35" x2="724.9" y2="510.35" gradientUnits="userSpaceOnUse"><stop offset="0" stop-color="#209620"/><stop offset="1" stop-color="#176017"/></linearGradient><linearGradient id="linear-gradient-6" x1="696.61" y1="508.28" x2="723.75" y2="508.28" xlink:href="#linear-gradient-5"/><linearGradient id="linear-gradient-7" x1="721.62" y1="-2033.67" x2="748.77" y2="-2033.67" gradientTransform="translate(1114.43 -1654.92) rotate(170.59)" xlink:href="#linear-gradient-5"/><linearGradient id="linear-gradient-8" x1="720.47" y1="-2035.74" x2="747.62" y2="-2035.74" gradientTransform="translate(1114.43 -1654.92) rotate(170.59)" xlink:href="#linear-gradient-5"/><linearGradient id="linear-gradient-9" x1="1188.79" y1="400.82" x2="1215.94" y2="400.82" xlink:href="#linear-gradient-5"/><linearGradient id="linear-gradient-10" x1="1187.64" y1="398.75" x2="1214.78" y2="398.75" xlink:href="#linear-gradient-5"/><linearGradient id="linear-gradient-11" x1="1177.08" y1="479.12" x2="1191.23" y2="454.62" xlink:href="#linear-gradient-3"/><linearGradient id="linear-gradient-12" x1="1179.66" y1="479.55" x2="1193.81" y2="455.05" xlink:href="#linear-gradient-3"/><linearGradient id="linear-gradient-13" x1="1192.93" y1="340.03" x2="1220.07" y2="340.03" xlink:href="#linear-gradient-5"/><linearGradient id="linear-gradient-14" x1="1191.78" y1="337.96" x2="1218.92" y2="337.96" xlink:href="#linear-gradient-5"/><linearGradient id="linear-gradient-15" x1="1179.99" y1="295.47" x2="1194.13" y2="270.98" xlink:href="#linear-gradient-3"/><linearGradient id="linear-gradient-16" x1="1182.57" y1="295.9" x2="1196.71" y2="271.4" xlink:href="#linear-gradient-3"/><linearGradient id="linear-gradient-17" x1="1067.77" y1="200.94" x2="1097.03" y2="200.94" xlink:href="#linear-gradient"/><linearGradient id="linear-gradient-18" x1="1067.03" y1="203.78" x2="1096.29" y2="203.78" xlink:href="#linear-gradient"/><linearGradient id="linear-gradient-19" x1="1589.63" y1="-1814.63" x2="1616.78" y2="-1814.63" gradientTransform="matrix(-0.68, 0.57, -0.73, -0.58, 553.24, -1538)" xlink:href="#linear-gradient-5"/><linearGradient id="linear-gradient-20" x1="1588.48" y1="-1816.7" x2="1615.63" y2="-1816.7" gradientTransform="matrix(-0.68, 0.57, -0.73, -0.58, 553.24, -1538)" xlink:href="#linear-gradient-5"/><linearGradient id="linear-gradient-21" x1="122.34" y1="608.48" x2="136.49" y2="583.98" gradientTransform="matrix(0.84, -0.54, 0.37, 0.65, 436.38, 119.8)" xlink:href="#linear-gradient-3"/><linearGradient id="linear-gradient-22" x1="124.92" y1="608.9" x2="139.07" y2="584.4" gradientTransform="matrix(0.84, -0.54, 0.37, 0.65, 436.38, 119.8)" xlink:href="#linear-gradient-3"/><linearGradient id="linear-gradient-23" x1="315.57" y1="465.51" x2="337.51" y2="427.5" gradientTransform="translate(240.68 75.94) rotate(-6.42)" gradientUnits="userSpaceOnUse"><stop offset="0" stop-color="#595959"/><stop offset="1" stop-color="#1a1a1a"/></linearGradient><linearGradient id="linear-gradient-24" x1="316.9" y1="466.55" x2="338.85" y2="428.55" gradientTransform="matrix(0.11, -0.99, -0.99, -0.11, 1714.59, 859.54)" xlink:href="#linear-gradient-23"/><linearGradient id="linear-gradient-25" x1="295.91" y1="1127.66" x2="295.91" y2="1002.68" gradientUnits="userSpaceOnUse"><stop offset="0" stop-color="#006837"/><stop offset="0.4" stop-color="#398e3a"/><stop offset="1" stop-color="#8cc63f"/></linearGradient><linearGradient id="linear-gradient-26" x1="609.2" y1="1116.76" x2="609.2" y2="1020.61" xlink:href="#linear-gradient-25"/><linearGradient id="linear-gradient-27" x1="629.87" y1="1120.25" x2="629.87" y2="1011.63" xlink:href="#linear-gradient-25"/><linearGradient id="linear-gradient-28" x1="644.82" y1="1120.25" x2="644.82" y2="1011.63" xlink:href="#linear-gradient-25"/><linearGradient id="linear-gradient-29" x1="1576.9" y1="1142.01" x2="1576.9" y2="1014.6" xlink:href="#linear-gradient-25"/><linearGradient id="linear-gradient-30" x1="1806.3" y1="1142.01" x2="1806.3" y2="1014.6" xlink:href="#linear-gradient-25"/><linearGradient id="linear-gradient-31" x1="1902.19" y1="1131.11" x2="1902.19" y2="1034.97" xlink:href="#linear-gradient-25"/><linearGradient id="linear-gradient-32" x1="1870.25" y1="1141.85" x2="1870.25" y2="1014.43" xlink:href="#linear-gradient-25"/><linearGradient id="linear-gradient-33" x1="1615.11" y1="1142.87" x2="1615.11" y2="1015.45" xlink:href="#linear-gradient-25"/><linearGradient id="linear-gradient-34" x1="1902.35" y1="1130.94" x2="1902.35" y2="1034.8" xlink:href="#linear-gradient-25"/></defs><g id="Layer_2" data-name="Layer 2"><g id="Layer_1-2" data-name="Layer 1"><g class="cls-1"><rect class="cls-2" x="1.24" y="5.72" width="1920" height="1080"/><rect class="cls-2" x="1.24" y="5.72" width="1920" height="1080"/></g><rect class="cls-3" x="688.87" y="385.99" width="544.73" height="638.4"/><ellipse class="cls-3" cx="961.24" cy="385.99" rx="272.37" ry="204.03"/><path class="cls-4" d="M961.24,246.17c-114.22,0-206.81,84.39-206.81,188.48v589.73h413.62V434.65C1168.05,330.56,1075.46,246.17,961.24,246.17Z"/><rect class="cls-5" x="780.26" y="466.3" width="361.95" height="558.08"/><ellipse class="cls-5" cx="961.24" cy="466.3" rx="180.98" ry="178.36"/><polygon class="cls-6" points="780.26 466.3 754.43 504.13 754.43 1024.38 780.26 1024.38 780.26 466.3"/><polygon class="cls-6" points="1142.21 466.3 1168.05 504.13 1168.05 1024.38 1142.21 1024.38 1142.21 466.3"/><path class="cls-7" d="M768.12,546.22H671.83a7.2,7.2,0,0,1-7.21-7.2v-5.23a7.21,7.21,0,0,1,7.21-7.21h96.29a7.21,7.21,0,0,1,7.21,7.21V539A7.2,7.2,0,0,1,768.12,546.22Z"/><path class="cls-7" d="M772.67,566H666a7.56,7.56,0,0,1-7.56-7.56v-4.52a7.57,7.57,0,0,1,7.56-7.56H772.67a7.56,7.56,0,0,1,7.56,7.56v4.52A7.55,7.55,0,0,1,772.67,566Z"/><path class="cls-7" d="M1251.89,549.27H1155.6a7.21,7.21,0,0,1-7.21-7.21v-5.22a7.21,7.21,0,0,1,7.21-7.21h96.29a7.21,7.21,0,0,1,7.21,7.21v5.22A7.21,7.21,0,0,1,1251.89,549.27Z"/><path class="cls-7" d="M1256.44,569H1149.78a7.57,7.57,0,0,1-7.57-7.57v-4.51a7.56,7.56,0,0,1,7.57-7.56h106.66a7.55,7.55,0,0,1,7.56,7.56v4.51A7.56,7.56,0,0,1,1256.44,569Z"/><polygon class="cls-4" points="1168.05 745.34 1201.81 749.15 1168.05 749.15 1168.05 745.34"/><polygon class="cls-4" points="1233.61 796.13 1171.43 801.24 1233.61 801.24 1233.61 796.13"/><polygon class="cls-4" points="1233.61 991.19 1172.71 993.24 1233.61 993.24 1233.61 991.19"/><polygon class="cls-8" points="1233.61 1003.11 1228.88 995.96 1210.49 993.24 1233.61 993.24 1233.61 1003.11"/><polygon class="cls-4" points="688.87 939.45 749.77 941.49 688.87 941.49 688.87 939.45"/><polygon class="cls-8" points="688.87 951.36 693.6 944.21 711.98 941.49 688.87 941.49 688.87 951.36"/><polygon class="cls-4" points="1169.04 450.49 1202.8 454.3 1169.04 454.3 1169.04 450.49"/><polygon class="cls-4" points="1234.59 501.28 1172.42 506.38 1234.59 506.38 1234.59 501.28"/><polygon class="cls-4" points="688.87 572.81 732.88 575.63 688.87 575.63 688.87 572.81"/><polygon class="cls-4" points="754.43 602.02 692.26 596.91 754.43 596.91 754.43 602.02"/><polygon class="cls-8" points="1184.2 749.15 1169.39 751.32 1168.05 800.21 1192.72 799.49 1171.43 801.24 1168.05 801.24 1168.05 749.15 1184.2 749.15"/><polygon class="cls-8" points="715.79 596.91 751.22 596.03 754.43 576.04 695.39 576.34 746.34 575.63 754.43 575.63 754.43 596.91 715.79 596.91"/><polygon class="cls-4" points="719.34 292.14 775.33 321.24 720.99 289.79 719.34 292.14"/><polygon class="cls-4" points="853.52 273.73 827.77 219.62 855.35 272.72 853.52 273.73"/><polygon class="cls-4" points="975.87 182.25 975.87 243.11 977.13 181.96 975.87 182.25"/><polygon class="cls-4" points="1049.7 264.24 1092.79 215.53 1051.12 264.86 1049.7 264.24"/><polygon class="cls-4" points="1217.05 315.79 1151.94 361.61 1217.84 317.43 1217.05 315.79"/><polygon class="cls-4" points="755.5 464.65 688.87 458.6 755.01 466.15 755.5 464.65"/><polygon class="cls-4" points="688.1 422.01 721.86 425.81 688.1 425.81 688.1 422.01"/><path class="cls-9" d="M1693.77,1078.9H1539.51a25.6,25.6,0,0,1-25.6-25.6v-39.94a25.6,25.6,0,0,1,25.6-25.6h154.26a25.6,25.6,0,0,1,25.6,25.6v39.94A25.6,25.6,0,0,1,1693.77,1078.9Z"/><path class="cls-9" d="M1804.41,977.2H1650.15a25.6,25.6,0,0,1-25.6-25.6V911.66a25.6,25.6,0,0,1,25.6-25.6h154.26a25.6,25.6,0,0,1,25.6,25.6V951.6A25.6,25.6,0,0,1,1804.41,977.2Z"/><path class="cls-9" d="M1498,200.54H1343.69a25.6,25.6,0,0,1-25.6-25.6V135a25.6,25.6,0,0,1,25.6-25.6H1498a25.6,25.6,0,0,1,25.6,25.6v39.94A25.6,25.6,0,0,1,1498,200.54Z"/><path class="cls-9" d="M1386.47,91.14H1232.2a25.6,25.6,0,0,1-25.6-25.6V25.6A25.6,25.6,0,0,1,1232.2,0h154.27a25.6,25.6,0,0,1,25.6,25.6V65.54A25.6,25.6,0,0,1,1386.47,91.14Z"/><polygon class="cls-10" points="635.39 1086.28 1117.02 1024.38 635.39 1024.38 635.39 1086.28"/><polygon class="cls-11" points="353.57 700.49 427.1 700.49 427.1 669.67 378.08 669.67 353.57 700.49"/><path class="cls-4" d="M378.08,602.88c-14.28-27.62-24.51-102.13-24.51-189.73V700.49l24.51-30.82Z"/><path class="cls-12" d="M353.57,392.73v20.42c0-6.89.06-13.71.19-20.42Z"/><path class="cls-4" d="M378.08,382.33V361.91h.19c1.14-62.22,7.47-116.07,16.58-148.44a8.09,8.09,0,0,0-4.52-1.51c-19,0-34.7,79.25-36.57,180.77h24.32Z"/><path class="cls-4" d="M378.08,392.73H353.76c-.13,6.71-.19,13.53-.19,20.42,0,87.6,10.23,162.11,24.51,189.73Z"/><path class="cls-5" d="M414.85,583.52a8.09,8.09,0,0,1-4.52-1.51c-5.76,20.45-12.62,32.33-20,32.33-4.29,0-8.42-4-12.25-11.46v66.79h49V572.06C423.27,579.48,419.14,583.52,414.85,583.52Z"/><path class="cls-12" d="M378.08,361.91v20.42c0-6.89.06-13.71.19-20.42Z"/><path class="cls-12" d="M378.08,392.73h.05c0-3.45-.05-6.91-.05-10.4Z"/><path class="cls-5" d="M378.08,602.88c3.83,7.42,8,11.46,12.25,11.46,7.38,0,14.24-11.88,20-32.33-17.56-11.77-31.29-91.26-32.2-189.28h-.05Z"/><path class="cls-5" d="M425.9,361.91c-3.77-78.56-16-138.35-31-148.44-9.11,32.37-15.44,86.22-16.58,148.44Z"/><path class="cls-5" d="M414.85,583.52c4.29,0,8.42-4,12.25-11.46V413.15c0,70.77-6.68,133-16.77,168.86A8.09,8.09,0,0,0,414.85,583.52Z"/><path class="cls-12" d="M426.91,392.73c.13,6.71.19,13.53.19,20.42V392.73Z"/><path class="cls-5" d="M378.08,382.33c0,3.49,0,6.95.05,10.4h48.78q-.29-15.81-1-30.82H378.27C378.14,368.62,378.08,375.44,378.08,382.33Z"/><path class="cls-5" d="M378.13,392.73c.91,98,14.64,177.51,32.2,189.28,10.09-35.86,16.77-98.09,16.77-168.86,0-6.89-.06-13.71-.19-20.42Z"/><polygon class="cls-11" points="1568.91 705.61 1495.38 705.61 1495.38 674.79 1544.4 674.79 1568.91 705.61"/><path class="cls-4" d="M1544.4,608c14.28-27.62,24.51-102.13,24.51-189.73V705.61l-24.51-30.82Z"/><path class="cls-12" d="M1568.91,397.85v20.42c0-6.89-.07-13.71-.19-20.42Z"/><path class="cls-4" d="M1544.4,387.45V367h-.19c-1.15-62.22-7.47-116.06-16.59-148.44a8.12,8.12,0,0,1,4.52-1.51c19,0,34.71,79.25,36.58,180.77H1544.4Z"/><path class="cls-4" d="M1544.4,397.85h24.32c.12,6.71.19,13.53.19,20.42,0,87.6-10.23,162.11-24.51,189.73Z"/><path class="cls-5" d="M1507.63,588.65a8,8,0,0,0,4.52-1.52c5.75,20.45,12.62,32.33,20,32.33,4.3,0,8.42-4,12.26-11.46v66.79h-49V577.18C1499.21,584.6,1503.33,588.65,1507.63,588.65Z"/><path class="cls-12" d="M1544.4,367v20.42c0-6.89-.07-13.71-.19-20.42Z"/><path class="cls-12" d="M1544.4,397.85h-.05q0-5.16.05-10.4Z"/><path class="cls-5" d="M1544.4,608c-3.84,7.42-8,11.46-12.26,11.46-7.37,0-14.24-11.88-20-32.33,17.56-11.77,31.29-91.26,32.2-189.28h.05Z"/><path class="cls-5" d="M1496.58,367c3.77-78.56,16-138.35,31-148.44,9.12,32.38,15.44,86.22,16.59,148.44Z"/><path class="cls-5" d="M1507.63,588.65c-4.3,0-8.42-4-12.25-11.47V418.27c0,70.77,6.67,133,16.77,168.86A8,8,0,0,1,1507.63,588.65Z"/><path class="cls-12" d="M1495.56,397.85c-.12,6.71-.18,13.53-.18,20.42V397.85Z"/><path class="cls-5" d="M1544.4,387.45q0,5.24-.05,10.4h-48.79q.3-15.81,1-30.82h47.63C1544.33,373.74,1544.4,380.56,1544.4,387.45Z"/><path class="cls-5" d="M1544.35,397.85c-.91,98-14.64,177.51-32.2,189.28-10.1-35.86-16.77-98.09-16.77-168.86,0-6.89.06-13.71.18-20.42Z"/><path class="cls-13" d="M598.35,403.77a12,12,0,0,0-12,12V508.2a11.87,11.87,0,0,0,.84,4.39,12,12,0,0,1-6.78-10.78V409.37a12,12,0,0,1,12-12h34.91A12,12,0,0,1,638.47,405a11.84,11.84,0,0,0-5.21-1.21Z"/><path class="cls-14" d="M639.32,501.81a12,12,0,0,1-12,12H592.41a11.93,11.93,0,0,1-5.22-1.22,11.87,11.87,0,0,1-.84-4.39V415.77a12,12,0,0,1,12-12h34.91a11.84,11.84,0,0,1,5.21,1.21,11.71,11.71,0,0,1,.85,4.39Z"/><path class="cls-13" d="M1324.13,403.77a12,12,0,0,1,12,12V508.2a11.87,11.87,0,0,1-.85,4.39,12,12,0,0,0,6.78-10.78V409.37a12,12,0,0,0-12-12h-34.9A12,12,0,0,0,1284,405a11.89,11.89,0,0,1,5.22-1.21Z"/><path class="cls-14" d="M1283.16,501.81a12,12,0,0,0,12,12h34.9a11.89,11.89,0,0,0,5.22-1.22,11.87,11.87,0,0,0,.85-4.39V415.77a12,12,0,0,0-12-12h-34.91A11.89,11.89,0,0,0,1284,405a11.91,11.91,0,0,0-.84,4.39Z"/><path class="cls-15" d="M1144.11,220.25c-8.31-4-15.88-5.54-16.9-3.43l30.1,14.52C1158.33,229.22,1152.42,224.26,1144.11,220.25Z"/><path class="cls-16" d="M1140.41,227.91c8.31,4,15.88,5.54,16.9,3.43l-30.1-14.52C1126.19,218.93,1132.1,223.9,1140.41,227.91Z"/><path class="cls-17" d="M1142.77,211.08c-9.44,1-16.71,5.45-16.24,10l34.19-3.56C1160.24,213,1152.21,210.1,1142.77,211.08Z"/><path class="cls-18" d="M1144.48,227.48c9.44-1,16.71-5.45,16.24-10l-34.19,3.56C1127,225.59,1135,228.47,1144.48,227.48Z"/><path class="cls-19" d="M1141.71,226.71c-6.76-6.66-13.76-10.52-15.65-8.61l24.48,24.13C1152.42,240.32,1148.46,233.37,1141.71,226.71Z"/><path class="cls-20" d="M1134.89,233.62c6.76,6.66,13.87,10.41,15.88,8.37l-24.47-24.13C1124.29,219.9,1128.14,227,1134.89,233.62Z"/><path class="cls-15" d="M1074.49,193.65c-3.5,8.54-4.58,16.18-2.41,17.07l12.69-30.91C1082.59,178.92,1078,185.12,1074.49,193.65Z"/><path class="cls-16" d="M1082.36,196.88c3.5-8.54,4.58-16.18,2.41-17.07l-12.69,30.91C1074.26,211.62,1078.85,205.42,1082.36,196.88Z"/><path class="cls-21" d="M1066.9,204.5c.73,4.41,3.46,7.64,6.11,7.2l-2.65-16C1067.72,196.16,1066.17,200.09,1066.9,204.5Z"/><path class="cls-22" d="M1076.47,202.92c-.73-4.41-3.46-7.64-6.11-7.2l2.65,16C1075.65,211.26,1077.2,207.33,1076.47,202.92Z"/><path class="cls-17" d="M1089.29,215c-5.45-5.38-11.4-8.2-13.28-6.29l19.75,19.48C1097.64,226.3,1094.75,220.4,1089.29,215Z"/><path class="cls-18" d="M1082.48,221.93c5.46,5.37,11.4,8.19,13.28,6.28L1076,208.73C1074.13,210.64,1077,216.55,1082.48,221.93Z"/><path class="cls-17" d="M1108,245.26c3.89-5.47,4.72-11.55,1.85-13.59l-14.08,19.82C1098.63,253.52,1104.1,250.74,1108,245.26Z"/><path class="cls-23" d="M1097.62,237.89c-3.89,5.48-4.72,11.56-1.86,13.6l14.08-19.82C1107,229.64,1101.51,232.42,1097.62,237.89Z"/><path class="cls-24" d="M1165.59,266.57c4.76-2.49,7.62-6.42,6.38-8.8l-17.25,9C1156,269.13,1160.83,269.05,1165.59,266.57Z"/><path class="cls-24" d="M1161.1,258c-4.76,2.49-7.61,6.42-6.38,8.8l17.25-9C1170.73,255.4,1165.87,255.48,1161.1,258Z"/><path class="cls-17" d="M1126,210.3c-6.64,1.27-11.61,4.43-11.11,7.06l24-4.58C1138.42,210.14,1132.64,209,1126,210.3Z"/><path class="cls-18" d="M1127.82,219.83c6.63-1.26,11.61-4.42,11.11-7.05l-24,4.58C1115.39,220,1121.18,221.1,1127.82,219.83Z"/><path class="cls-25" d="M1097.82,214.53c-9.18,1-16.41,3.69-16.16,6l33.22-3.59C1114.63,214.62,1107,213.53,1097.82,214.53Z"/><path class="cls-26" d="M1098.73,223c9.18-1,16.41-3.69,16.15-6l-33.22,3.59C1081.92,222.89,1089.56,224,1098.73,223Z"/><path class="cls-15" d="M1188.2,260.09c-8.25-4.15-15.79-5.81-16.84-3.71l29.86,15C1202.27,269.29,1196.44,264.23,1188.2,260.09Z"/><path class="cls-16" d="M1184.38,267.68c8.25,4.14,15.78,5.8,16.84,3.71l-29.86-15C1170.31,258.48,1176.14,263.54,1184.38,267.68Z"/><path class="cls-15" d="M1163,248.17c-8.31-4-15.88-5.54-16.9-3.43l30.1,14.52C1177.22,257.15,1171.31,252.18,1163,248.17Z"/><path class="cls-16" d="M1159.3,255.83c8.32,4,15.88,5.55,16.9,3.43l-30.1-14.52C1145.08,246.86,1151,251.82,1159.3,255.83Z"/><path class="cls-17" d="M1161.66,239c-9.44,1-16.86,3.94-16.59,6.6l34.19-3.55C1179,239.38,1171.1,238,1161.66,239Z"/><path class="cls-18" d="M1162.67,248.65c9.44-1,16.86-3.94,16.59-6.6l-34.19,3.55C1145.35,248.27,1153.23,249.63,1162.67,248.65Z"/><path class="cls-19" d="M1160.6,254.63c-6.76-6.66-13.76-10.51-15.64-8.61l24.47,24.13C1171.31,268.25,1167.36,261.3,1160.6,254.63Z"/><path class="cls-20" d="M1153.79,261.54c6.75,6.67,13.86,10.41,15.88,8.37l-24.48-24.13C1143.18,247.82,1147,254.88,1153.79,261.54Z"/><path class="cls-15" d="M1093.38,221.58c-3.5,8.53-4.58,16.18-2.41,17.07l12.69-30.92C1101.49,206.84,1096.89,213,1093.38,221.58Z"/><path class="cls-16" d="M1101.25,224.8c3.5-8.53,4.58-16.18,2.41-17.07L1091,238.65C1093.15,239.54,1097.75,233.34,1101.25,224.8Z"/><path class="cls-21" d="M1085.79,232.42c.73,4.42,3.46,7.64,6.11,7.2l-2.64-16C1086.61,224.08,1085.06,228,1085.79,232.42Z"/><path class="cls-22" d="M1095.36,230.84c-.73-4.41-3.46-7.63-6.1-7.2l2.64,16C1094.54,239.19,1096.09,235.25,1095.36,230.84Z"/><path class="cls-17" d="M1100,223.58c-6.25,7.15-9.67,14.37-7.66,16.14l22.62-25.88C1112.92,212.07,1106.22,216.44,1100,223.58Z"/><path class="cls-18" d="M1107.28,230c6.25-7.15,9.67-14.37,7.66-16.13l-22.62,25.88C1094.34,241.48,1101,237.11,1107.28,230Z"/><path class="cls-17" d="M1108.18,242.94c-5.45-5.38-11.4-8.19-13.28-6.29l19.76,19.48C1116.54,254.23,1113.64,248.32,1108.18,242.94Z"/><path class="cls-18" d="M1101.37,249.85c5.46,5.38,11.4,8.19,13.29,6.28l-19.76-19.48C1093,238.56,1095.92,244.47,1101.37,249.85Z"/><path class="cls-27" d="M1125.36,229.7c-7.87-4.81-16.33-5.31-18.88-1.13L1135,246C1137.55,241.8,1133.24,234.51,1125.36,229.7Z"/><path class="cls-28" d="M1116.11,244.86c7.88,4.8,16.33,5.31,18.89,1.12l-28.52-17.41C1103.92,232.76,1108.23,240.05,1116.11,244.86Z"/><path class="cls-17" d="M1126.88,273.19c3.89-5.48,4.72-11.56,1.86-13.6l-14.08,19.82C1117.52,281.45,1123,278.66,1126.88,273.19Z"/><path class="cls-23" d="M1116.51,265.82c-3.89,5.47-4.72,11.56-1.85,13.59l14.08-19.82C1125.87,257.56,1120.4,260.34,1116.51,265.82Z"/><path class="cls-24" d="M1198.12,275.4c4.76-2.48,7.62-6.42,6.38-8.79l-17.24,9C1188.5,278,1193.36,277.89,1198.12,275.4Z"/><path class="cls-24" d="M1193.64,266.8c-4.76,2.48-7.62,6.42-6.38,8.8l17.24-9C1203.27,264.23,1198.4,264.32,1193.64,266.8Z"/><path class="cls-17" d="M1149.75,237.3c-9.32,1.78-16.47,5.35-16,8l33.76-6.44C1167,236.21,1159.08,235.52,1149.75,237.3Z"/><path class="cls-18" d="M1151.57,246.83c9.32-1.78,16.47-5.35,16-8l-33.76,6.44C1134.28,247.91,1142.25,248.61,1151.57,246.83Z"/><path class="cls-25" d="M1116.71,242.45c-9.18,1-16.41,3.69-16.16,6l33.23-3.6C1133.52,242.54,1125.88,241.46,1116.71,242.45Z"/><path class="cls-26" d="M1117.62,250.9c9.18-1,16.41-3.69,16.16-6l-33.23,3.6C1100.81,250.81,1108.45,251.9,1117.62,250.9Z"/><path class="cls-15" d="M1212.4,264.73c-3.64-1.83-7.45-1.61-8.5.49l13.18,6.63C1218.14,269.75,1216,266.56,1212.4,264.73Z"/><path class="cls-16" d="M1208.58,272.33c3.64,1.83,7.45,1.61,8.5-.48l-13.18-6.63C1202.84,267.32,1204.94,270.5,1208.58,272.33Z"/><path class="cls-15" d="M1210.88,309c-4.9-7.82-10.48-13.15-12.47-11.9l17.73,28.32C1218.13,324.17,1215.77,316.81,1210.88,309Z"/><path class="cls-16" d="M1203.67,313.5c4.9,7.82,10.48,13.16,12.47,11.91l-17.73-28.32C1196.42,298.33,1198.77,305.68,1203.67,313.5Z"/><path class="cls-17" d="M1214.63,300.52c-8.51-4.2-16.37-5.66-17.55-3.25l30.82,15.2C1229.08,310.07,1223.14,304.72,1214.63,300.52Z"/><path class="cls-18" d="M1210.34,309.22c8.51,4.2,16.37,5.66,17.56,3.25l-30.82-15.2C1195.89,299.67,1201.83,305,1210.34,309.22Z"/><path class="cls-19" d="M1205.4,313.18c-2.17-9.24-6-16.23-8.65-15.62L1204.6,331C1207.21,330.41,1207.57,322.42,1205.4,313.18Z"/><path class="cls-20" d="M1196,315.4c2.16,9.24,6.18,16.19,9,15.54l-7.85-33.46C1194.29,298.14,1193.79,306.16,1196,315.4Z"/><path class="cls-15" d="M1166.15,249.39c-7.52,5.35-12.5,11.25-11.14,13.16l27.21-19.4C1180.85,241.24,1173.66,244,1166.15,249.39Z"/><path class="cls-16" d="M1171.08,256.31c7.51-5.36,12.5-11.25,11.14-13.16L1155,262.55C1156.37,264.46,1163.57,261.67,1171.08,256.31Z"/><path class="cls-21" d="M1153.94,254.52c-1.73,4.12-1.14,8.31,1.33,9.35l6.28-14.93C1159.08,247.9,1155.67,250.4,1153.94,254.52Z"/><path class="cls-22" d="M1162.88,258.28c1.74-4.12,1.14-8.3-1.33-9.34l-6.28,14.93C1157.74,264.9,1161.15,262.4,1162.88,258.28Z"/><path class="cls-17" d="M1170.66,254.6c-9.1,2.72-15.85,7-15.08,9.57l32.93-9.85C1187.74,251.76,1179.75,251.88,1170.66,254.6Z"/><path class="cls-18" d="M1173.43,263.89c9.1-2.71,15.85-7,15.08-9.57l-32.93,9.85C1156.35,266.74,1164.34,266.61,1173.43,263.89Z"/><path class="cls-17" d="M1167.28,275.35c-1.75-7.46-5.28-13-7.89-12.4l6.34,27C1168.34,289.35,1169,282.81,1167.28,275.35Z"/><path class="cls-18" d="M1157.84,277.57c1.75,7.46,5.28,13,7.89,12.39l-6.34-27C1156.78,263.57,1156.09,270.11,1157.84,277.57Z"/><path class="cls-29" d="M1188.88,273.3c-4.1-8.26-11-13.2-15.38-11l14.85,29.94C1192.74,290,1193,281.57,1188.88,273.3Z"/><path class="cls-29" d="M1173,281.2c4.1,8.26,11,13.2,15.38,11l-14.85-29.94C1169.1,264.46,1168.87,272.93,1173,281.2Z"/><path class="cls-17" d="M1167,310.91c6.2-2.56,10.15-7.27,8.81-10.51l-22.48,9.26C1154.66,312.91,1160.78,313.47,1167,310.91Z"/><path class="cls-23" d="M1162.14,299.15c-6.21,2.55-10.16,7.26-8.82,10.51l22.48-9.26C1174.46,297.15,1168.34,296.59,1162.14,299.15Z"/><path class="cls-24" d="M1234.14,349.06c3.78,3.82,8.38,5.4,10.29,3.52l-13.66-13.85C1228.86,340.61,1230.37,345.24,1234.14,349.06Z"/><path class="cls-24" d="M1241.05,342.25c-3.77-3.83-8.37-5.4-10.28-3.52l13.66,13.85C1246.33,350.7,1244.82,346.07,1241.05,342.25Z"/><path class="cls-17" d="M1205.46,292.73c-8.83-3.46-16.79-4.25-17.76-1.75l32,12.54C1220.67,301,1214.3,296.2,1205.46,292.73Z"/><path class="cls-18" d="M1201.92,301.76c8.84,3.47,16.79,4.25,17.77,1.76l-32-12.54C1186.72,293.47,1193.09,298.3,1201.92,301.76Z"/><path class="cls-25" d="M1178.78,281.45c-6.07-3-12.74-1.77-14.91,2.66l22,10.73C1188,290.41,1184.85,284.41,1178.78,281.45Z"/><path class="cls-26" d="M1170.94,297.5c6.07,3,12.75,1.77,14.91-2.66l-22-10.73C1161.71,288.54,1164.87,294.54,1170.94,297.5Z"/><path class="cls-15" d="M1247,368.77c1.54-9.1.91-16.79-1.4-17.18L1240,384.53C1242.31,384.93,1245.44,377.87,1247,368.77Z"/><path class="cls-16" d="M1238.6,367.35c-1.54,9.1-.92,16.79,1.4,17.18l5.58-32.94C1243.26,351.2,1240.14,358.25,1238.6,367.35Z"/><path class="cls-15" d="M1181.67,368.76c5.34-7.53,11.22-12.53,13.14-11.17l-19.33,27.25C1173.56,383.49,1176.34,376.28,1181.67,368.76Z"/><path class="cls-16" d="M1188.61,373.68c-5.34,7.52-11.22,12.52-13.13,11.16l19.33-27.25C1196.72,359,1194,366.15,1188.61,373.68Z"/><path class="cls-17" d="M1178.41,360.08c8.74-3.7,16.67-4.7,17.72-2.23l-31.65,13.4C1163.44,368.79,1169.67,363.78,1178.41,360.08Z"/><path class="cls-18" d="M1182.2,369c-8.74,3.7-16.67,4.7-17.72,2.23l31.65-13.4C1197.17,360.31,1190.93,365.31,1182.2,369Z"/><path class="cls-19" d="M1186.9,373.25c2.69-9.09,7-15.85,9.53-15.09l-9.76,32.95C1184.1,390.35,1184.2,382.35,1186.9,373.25Z"/><path class="cls-20" d="M1196.2,376c-2.7,9.1-7.11,15.82-9.86,15l9.77-32.95C1198.85,358.87,1198.9,366.91,1196.2,376Z"/><path class="cls-15" d="M1229.77,311.83c7.19,5.78,11.83,11.95,10.36,13.78l-26.05-20.94C1215.55,302.85,1222.58,306.05,1229.77,311.83Z"/><path class="cls-16" d="M1224.44,318.46c-7.19-5.79-11.83-12-10.36-13.79l26.05,20.94C1238.66,327.44,1231.63,324.24,1224.44,318.46Z"/><path class="cls-21" d="M1241.66,317.66c1.49,4.21.65,8.36-1.87,9.25l-5.41-15.26C1236.91,310.75,1240.16,313.44,1241.66,317.66Z"/><path class="cls-22" d="M1232.51,320.9c-1.49-4.22-.65-8.36,1.87-9.25l5.41,15.26C1237.26,327.81,1234,325.11,1232.51,320.9Z"/><path class="cls-17" d="M1225,316.77c8.93,3.24,15.42,7.91,14.5,10.43l-32.3-11.73C1208.07,313,1216,313.54,1225,316.77Z"/><path class="cls-18" d="M1221.65,325.89c-8.92-3.24-15.41-7.9-14.49-10.42l32.3,11.73C1238.55,329.72,1230.57,329.13,1221.65,325.89Z"/><path class="cls-17" d="M1227.14,337.69c2.17-7.35,6-12.69,8.59-11.93l-7.89,26.6C1225.28,351.6,1225,345,1227.14,337.69Z"/><path class="cls-18" d="M1236.44,340.44c-2.18,7.35-6,12.69-8.6,11.92l7.89-26.6C1238.3,326.53,1238.61,333.1,1236.44,340.44Z"/><path class="cls-30" d="M1205.69,334.4c4.58-8,11.74-12.55,16-10.12l-16.56,29C1200.87,350.88,1201.12,342.41,1205.69,334.4Z"/><path class="cls-30" d="M1221.12,343.19c-4.57,8-11.73,12.55-16,10.12l16.56-29C1226,326.71,1225.69,335.18,1221.12,343.19Z"/><path class="cls-17" d="M1225.38,373.2c-6.05-2.91-9.72-7.84-8.19-11l21.9,10.54C1237.57,375.91,1231.43,376.11,1225.38,373.2Z"/><path class="cls-23" d="M1230.9,361.74c6,2.91,9.72,7.84,8.19,11l-21.9-10.54C1218.71,359,1224.85,358.83,1230.9,361.74Z"/><path class="cls-17" d="M1188,352.84c9-2.95,17-3.28,17.84-.73l-32.66,10.68C1172.36,360.24,1179,355.78,1188,352.84Z"/><path class="cls-18" d="M1191,362.06c-9,2.95-17,3.27-17.84.73l32.66-10.68C1206.69,354.65,1200.05,359.11,1191,362.06Z"/><path class="cls-25" d="M1219.44,341.38c8.51-3.57,16.14-4.7,17-2.53l-30.82,12.9C1204.76,349.59,1210.92,344.94,1219.44,341.38Z"/><path class="cls-26" d="M1222.72,349.22c-8.51,3.56-16.15,4.7-17,2.53l30.82-12.9C1237.39,341,1231.23,345.66,1222.72,349.22Z"/><path class="cls-15" d="M1162.51,425.63c5.17-7.53,10.91-12.58,12.82-11.26l-18.7,27.29C1154.71,440.35,1157.35,433.17,1162.51,425.63Z"/><path class="cls-16" d="M1169.45,430.39c-5.16,7.54-10.9,12.58-12.82,11.27l18.7-27.29C1177.25,415.68,1174.62,422.86,1169.45,430.39Z"/><path class="cls-17" d="M1175.42,394.66c8.66-3.66,16.51-4.66,17.54-2.21l-31.33,13.27C1160.6,403.28,1166.77,398.33,1175.42,394.66Z"/><path class="cls-18" d="M1179.17,403.51c-8.65,3.66-16.5,4.65-17.54,2.21L1193,392.45C1194,394.89,1187.82,399.84,1179.17,403.51Z"/><path class="cls-19" d="M1183.85,406.83c2.7-9.1,7-15.86,9.54-15.1l-9.77,32.95C1181.05,423.92,1181.16,415.93,1183.85,406.83Z"/><path class="cls-20" d="M1193.15,409.59c-2.69,9.1-7.1,15.81-9.85,15l9.76-32.95C1195.81,392.45,1195.85,400.49,1193.15,409.59Z"/><path class="cls-21" d="M1238.61,351.23c1.5,4.22.66,8.36-1.87,9.26l-5.4-15.27C1233.86,344.33,1237.12,347,1238.61,351.23Z"/><path class="cls-22" d="M1229.47,354.47c-1.5-4.21-.66-8.35,1.87-9.25l5.4,15.27C1234.22,361.38,1231,358.69,1229.47,354.47Z"/><path class="cls-17" d="M1221.92,350.35c8.92,3.24,15.41,7.91,14.5,10.42l-32.31-11.72C1205,346.53,1213,347.11,1221.92,350.35Z"/><path class="cls-18" d="M1218.61,359.47c-8.92-3.24-15.41-7.91-14.5-10.42l32.31,11.72C1235.5,363.29,1227.53,362.71,1218.61,359.47Z"/><path class="cls-17" d="M1224.09,371.26c2.18-7.34,6-12.68,8.59-11.92l-7.88,26.6C1222.23,385.18,1221.91,378.61,1224.09,371.26Z"/><path class="cls-18" d="M1233.39,374c-2.18,7.34-6,12.68-8.59,11.92l7.88-26.6C1235.25,360.1,1235.57,366.67,1233.39,374Z"/><path class="cls-31" d="M1202.65,368c4.57-8,11.73-12.54,16-10.11l-16.56,29C1197.82,384.45,1198.08,376,1202.65,368Z"/><path class="cls-31" d="M1218.08,376.77c-4.58,8-11.74,12.54-16,10.11l16.56-29C1222.9,360.29,1222.65,368.75,1218.08,376.77Z"/><path class="cls-17" d="M1222.34,406.78c-6-2.91-9.72-7.84-8.2-11l21.91,10.55C1234.52,409.48,1228.38,409.69,1222.34,406.78Z"/><path class="cls-23" d="M1227.85,395.31c6.05,2.92,9.72,7.84,8.2,11l-21.91-10.55C1215.67,392.61,1221.81,392.4,1227.85,395.31Z"/><path class="cls-17" d="M1185,386.41c9-3,17-3.27,17.84-.73l-32.67,10.68C1169.31,393.82,1176,389.36,1185,386.41Z"/><path class="cls-18" d="M1188,395.63c-9,2.95-17,3.28-17.84.73l32.67-10.68C1203.64,388.23,1197,392.68,1188,395.63Z"/><path class="cls-25" d="M1216.39,375c8.51-3.56,16.15-4.69,17-2.53l-30.82,12.91C1201.71,383.16,1207.88,378.52,1216.39,375Z"/><path class="cls-26" d="M1219.67,382.79c-8.51,3.57-16.14,4.7-17.05,2.54l30.82-12.91C1234.35,374.59,1228.18,379.23,1219.67,382.79Z"/><path class="cls-15" d="M1150.69,448.41c5.17-7.53,12.64-11.39,16.69-8.62l-18.71,27.29C1144.62,464.31,1145.53,456,1150.69,448.41Z"/><path class="cls-16" d="M1165.36,458.46c-5.17,7.54-12.64,11.4-16.69,8.62l18.71-27.29C1171.43,442.57,1170.52,450.92,1165.36,458.46Z"/><path class="cls-15" d="M1166.25,478.88c.51-9.12,2.79-16.41,5.11-16.29l-1.81,33C1167.23,495.5,1165.75,488,1166.25,478.88Z"/><path class="cls-16" d="M1174.66,479.34c-.5,9.13-2.79,16.42-5.11,16.29l1.81-33C1173.68,462.72,1175.16,470.22,1174.66,479.34Z"/><path class="cls-17" d="M1158.72,473.11c5.42-7.78,11.6-12.86,13.8-11.33L1152.89,490C1150.69,488.46,1153.3,480.9,1158.72,473.11Z"/><path class="cls-18" d="M1166.68,478.66c-5.42,7.79-11.6,12.86-13.79,11.33l19.63-28.21C1174.72,463.31,1172.1,470.87,1166.68,478.66Z"/><path class="cls-19" d="M1173,479.89c-2.54-9-2.53-17,0-17.68l9.21,32.76C1179.68,495.69,1175.55,488.94,1173,479.89Z"/><path class="cls-20" d="M1182.25,477.29c2.54,9,2.39,17-.34,17.77l-9.21-32.76C1175.43,461.54,1179.71,468.25,1182.25,477.29Z"/><path class="cls-15" d="M1176.46,404.92c9.17,1.06,16.38,3.81,16.11,6.14l-33.2-3.84C1159.64,404.89,1167.29,403.86,1176.46,404.92Z"/><path class="cls-16" d="M1175.48,413.36c-9.16-1.06-16.37-3.81-16.11-6.14l33.2,3.84C1192.3,413.39,1184.65,414.42,1175.48,413.36Z"/><path class="cls-17" d="M1175.09,412.49c9.19-2,17.09-1.51,17.65,1.08l-33.26,7.22C1158.92,418.2,1165.91,414.48,1175.09,412.49Z"/><path class="cls-18" d="M1177.13,421.87c-9.18,2-17.08,1.51-17.65-1.08l33.26-7.22C1193.3,416.16,1186.31,419.88,1177.13,421.87Z"/><path class="cls-30" d="M1171.42,440.25c-.33-7.48,2.66-13.7,6.67-13.87l1.19,27.11C1175.26,453.67,1171.75,447.74,1171.42,440.25Z"/><path class="cls-30" d="M1185.94,439.62c.33,7.49-2.65,13.7-6.66,13.87l-1.19-27.11C1182.1,426.2,1185.62,432.13,1185.94,439.62Z"/><path class="cls-17" d="M1205.22,459.54c-6.61.75-12.28-1.44-12.67-4.89l23.91-2.73C1216.86,455.38,1211.82,458.79,1205.22,459.54Z"/><path class="cls-23" d="M1203.79,447c6.61-.76,12.28,1.44,12.67,4.89l-23.91,2.73C1192.15,451.19,1197.19,447.78,1203.79,447Z"/><path class="cls-24" d="M1165.09,525c-1.45,5.17-4.72,8.77-7.3,8.05l5.27-18.72C1165.63,515.09,1166.55,519.87,1165.09,525Z"/><path class="cls-24" d="M1155.76,522.41c1.45-5.17,4.72-8.77,7.3-8l-5.27,18.72C1155.21,532.36,1154.3,527.58,1155.76,522.41Z"/><path class="cls-17" d="M1163,461.86c6.06-7.3,12.65-11.83,14.71-10.12l-22,26.45C1153.68,476.47,1156.92,469.17,1163,461.86Z"/><path class="cls-18" d="M1170.45,468.06c-6.06,7.3-12.65,11.84-14.71,10.13l22-26.45C1179.75,453.45,1176.51,460.76,1170.45,468.06Z"/><path class="cls-25" d="M1183.46,435.42c5.31-7.55,11.16-12.58,13.08-11.23l-19.2,27.35C1175.42,450.19,1178.16,443,1183.46,435.42Z"/><path class="cls-26" d="M1190.42,440.31c-5.3,7.55-11.16,12.58-13.08,11.23l19.2-27.35C1198.47,425.54,1195.72,432.76,1190.42,440.31Z"/><path class="cls-15" d="M1163.38,548.5c-5.74-7.22-8.91-14.26-7.07-15.72l20.8,26.14C1175.28,560.39,1169.13,555.72,1163.38,548.5Z"/><path class="cls-16" d="M1170,543.2c5.74,7.22,8.91,14.26,7.07,15.72l-20.8-26.14C1158.14,531.31,1164.29,536,1170,543.2Z"/><ellipse class="cls-32" cx="1223.55" cy="287.52" rx="15.22" ry="3.14" transform="translate(-32.36 238.15) rotate(-10.97)"/><ellipse class="cls-32" cx="1205.62" cy="276.56" rx="3.39" ry="14.12" transform="translate(-20.15 110.75) rotate(-5.22)"/><ellipse class="cls-32" cx="1200.57" cy="280.96" rx="3.21" ry="14.92" transform="matrix(0.81, -0.59, 0.59, 0.81, 67.24, 766.62)"/><ellipse class="cls-32" cx="1218.68" cy="297.98" rx="3.09" ry="15.47" transform="translate(313.84 1167.02) rotate(-57.58)"/><ellipse class="cls-33" cx="1222.91" cy="294.29" rx="3.06" ry="15.61" transform="translate(507.63 1328.93) rotate(-68.87)"/><ellipse class="cls-32" cx="1201.95" cy="273.11" rx="3.33" ry="14.38" transform="translate(-26.85 369.71) rotate(-17.3)"/><ellipse class="cls-33" cx="1210.52" cy="276.49" rx="13.94" ry="3.43" transform="translate(491.12 1288.55) rotate(-67.46)"/><ellipse class="cls-33" cx="1219.21" cy="283.44" rx="14.87" ry="3.22" transform="translate(-14.16 496.98) rotate(-22.91)"/><ellipse class="cls-32" cx="1215.55" cy="278.43" rx="14.17" ry="3.38" transform="translate(216.97 1025.37) rotate(-49.7)"/><path class="cls-15" d="M705.54,591.8c6.17,6.86,12.59,11.15,14.33,9.58l-22.33-24.85C695.79,578.1,699.38,584.93,705.54,591.8Z"/><path class="cls-16" d="M711.87,586.11c-6.17-6.86-12.59-11.15-14.33-9.58l22.33,24.85C721.62,599.81,718,593,711.87,586.11Z"/><path class="cls-19" d="M708.88,536.08c-1.35,9.4-.3,17.32,2.35,17.7l4.89-34C713.47,519.38,710.23,526.69,708.88,536.08Z"/><path class="cls-20" d="M718.48,537.46c1.35-9.39.14-17.34-2.69-17.74l-4.89,34C713.74,554.14,717.13,546.86,718.48,537.46Z"/><path class="cls-17" d="M719.88,603.3c9.46.78,17.31-.75,17.53-3.42l-34.25-2.83C702.93,599.72,710.42,602.52,719.88,603.3Z"/><path class="cls-18" d="M720.68,593.63c-9.46-.78-17.3.75-17.52,3.42l34.25,2.83C737.63,597.21,730.14,594.41,720.68,593.63Z"/><path class="cls-17" d="M730.59,585.2c-1.09,7.59.17,14,2.82,14.42l4-27.46C734.71,571.78,731.67,577.62,730.59,585.2Z"/><path class="cls-18" d="M740.19,586.58c1.09-7.58-.18-14-2.83-14.42l-4,27.46C736.07,600,739.1,594.17,740.19,586.58Z"/><path class="cls-34" d="M709.73,579.24c.81,9.19,5.42,16.3,10.31,15.87l-2.93-33.29C712.23,562.25,708.92,570.05,709.73,579.24Z"/><path class="cls-35" d="M727.42,577.69c-.81-9.19-5.42-16.3-10.31-15.87L720,595.11C724.92,594.68,728.23,586.88,727.42,577.69Z"/><path class="cls-17" d="M743.82,552.2c-6.71.12-12.1,3.07-12,6.58l24.31-.44C756,554.83,750.53,552.08,743.82,552.2Z"/><path class="cls-23" d="M744.05,564.92c6.71-.12,12.1-3.06,12-6.58l-24.31.44C731.85,562.29,737.34,565,744.05,564.92Z"/><path class="cls-17" d="M701.36,555.1c7,6.45,14.09,10.08,15.91,8.11l-25.22-23.34C690.23,541.84,694.4,548.66,701.36,555.1Z"/><path class="cls-18" d="M708,548c-7-6.44-14.08-10.08-15.9-8.11l25.22,23.34C719.09,561.25,714.92,554.43,708,548Z"/><path class="cls-25" d="M727.7,572c4.57,5,11.22,6.29,14.86,3L726,557C722.37,560.31,723.13,567.05,727.7,572Z"/><path class="cls-26" d="M740.86,559.92c-4.57-5-11.22-6.29-14.86-2.95l16.56,18C746.19,571.63,745.43,564.89,740.86,559.92Z"/><path class="cls-15" d="M690.42,469.16c-4.75,7.92-7,15.31-5,16.52L702.66,457C700.65,455.82,695.17,461.25,690.42,469.16Z"/><path class="cls-16" d="M697.71,473.54c4.75-7.91,7-15.3,4.95-16.51l-17.2,28.65C687.47,486.88,693,481.45,697.71,473.54Z"/><path class="cls-15" d="M751.23,493c-7.72,5.06-15,7.57-16.3,5.61l27.93-18.33C764.15,482.22,758.94,487.91,751.23,493Z"/><path class="cls-16" d="M746.56,485.87c7.72-5.06,15-7.58,16.3-5.61l-27.93,18.33C733.64,496.63,738.85,490.93,746.56,485.87Z"/><path class="cls-17" d="M751.1,502.24c-9.48.27-17.23-1.69-17.31-4.37l34.36-.95C768.22,499.6,760.59,502,751.1,502.24Z"/><path class="cls-18" d="M750.84,492.55c9.48-.26,17.23,1.69,17.31,4.37l-34.36.95C733.72,495.19,741.35,492.81,750.84,492.55Z"/><path class="cls-19" d="M748,486.89c-5.83,7.49-12.26,12.23-14.38,10.58l21.1-27.13C756.84,472,753.83,479.4,748,486.89Z"/><path class="cls-20" d="M740.34,480.93c5.83-7.49,12.39-12.14,14.65-10.38l-21.1,27.13C731.63,495.92,734.52,488.42,740.34,480.93Z"/><path class="cls-15" d="M685.69,528.46c-4.59-8-6.66-15.44-4.62-16.61l16.62,29C695.66,542,690.28,536.46,685.69,528.46Z"/><path class="cls-16" d="M693.07,524.23c4.59,8,6.66,15.44,4.62,16.61l-16.62-29C683.11,510.68,688.48,516.23,693.07,524.23Z"/><path class="cls-21" d="M676.75,518.7c.14-4.47,2.43-8,5.11-7.94L681.33,527C678.65,526.86,676.6,523.17,676.75,518.7Z"/><path class="cls-22" d="M686.44,519c-.14,4.47-2.43,8-5.11,7.94l.53-16.19C684.54,510.85,686.59,514.54,686.44,519Z"/><path class="cls-17" d="M692,525.61c-7.13-6.27-11.47-13-9.7-15l25.81,22.69C706.31,535.32,699.09,531.87,692,525.61Z"/><path class="cls-18" d="M698.37,518.32c7.13,6.27,11.47,13,9.71,15l-25.81-22.69C684,508.6,691.25,512.05,698.37,518.32Z"/><path class="cls-17" d="M697.57,505.34c-4.71,6.05-10.23,9.62-12.35,8l17-21.9C704.37,493.06,702.27,499.29,697.57,505.34Z"/><path class="cls-18" d="M689.91,499.39c4.71-6.05,10.23-9.62,12.35-8l-17,21.9C683.11,511.67,685.21,505.43,689.91,499.39Z"/><path class="cls-36" d="M716.34,516.22c-7.18,5.8-15.5,7.41-18.58,3.59l26-21C726.84,502.63,723.51,510.42,716.34,516.22Z"/><path class="cls-37" d="M705.18,502.4c7.18-5.79,15.49-7.4,18.57-3.58l-26,21C694.68,516,698,508.2,705.18,502.4Z"/><path class="cls-17" d="M739.52,505.49c-9.47-.54-17-3.15-16.88-5.82l34.31,2C756.8,504.31,749,506,739.52,505.49Z"/><path class="cls-18" d="M740.07,495.81c9.48.54,17,3.15,16.88,5.82l-34.31-2C722.79,497,730.6,495.27,740.07,495.81Z"/><path class="cls-15" d="M789.8,447c-7.55,5.13-14.74,7.74-16,5.82l27.36-18.6C802.43,436.14,797.36,441.86,789.8,447Z"/><path class="cls-16" d="M785.07,440c7.56-5.14,14.74-7.75,16-5.82l-27.36,18.6C772.45,450.89,777.52,445.17,785.07,440Z"/><path class="cls-17" d="M766.49,471.13c-9.39.26-17.07-1.68-17.14-4.33l34-.94C783.44,468.51,775.88,470.87,766.49,471.13Z"/><path class="cls-18" d="M766.22,461.53c9.4-.26,17.07,1.68,17.14,4.33l-34,.94C749.27,464.15,756.83,461.79,766.22,461.53Z"/><path class="cls-19" d="M763.07,456.73c-5.82,7.49-12.26,12.23-14.37,10.58l21.1-27.12C771.91,441.83,768.9,449.24,763.07,456.73Z"/><path class="cls-20" d="M755.42,450.77c5.83-7.49,12.38-12.13,14.64-10.37L749,467.52C746.7,465.76,749.59,458.26,755.42,450.77Z"/><path class="cls-21" d="M691.82,488.54c.15-4.47,2.43-8,5.11-7.93l-.53,16.18C693.73,496.71,691.67,493,691.82,488.54Z"/><path class="cls-22" d="M701.52,488.86c-.15,4.47-2.44,8-5.12,7.93l.53-16.18C699.61,480.69,701.66,484.39,701.52,488.86Z"/><path class="cls-17" d="M707,495.45c-7.12-6.27-11.47-13-9.7-15l25.81,22.7C721.38,505.17,714.17,501.72,707,495.45Z"/><path class="cls-18" d="M713.45,488.17c7.12,6.26,11.47,13,9.7,15l-25.81-22.7C699.11,478.45,706.32,481.9,713.45,488.17Z"/><path class="cls-17" d="M727.22,442.75c4.57,4.92,6.19,10.84,3.62,13.24l-16.56-17.81C716.86,435.79,722.65,437.84,727.22,442.75Z"/><path class="cls-23" d="M717.9,451.42c-4.57-4.92-6.19-10.85-3.62-13.24L730.84,456C728.27,458.38,722.47,456.33,717.9,451.42Z"/><path class="cls-17" d="M754.59,475.34c-9.47-.54-17-3.15-16.87-5.83l34.31,2C771.87,474.15,764.07,475.88,754.59,475.34Z"/><path class="cls-18" d="M755.15,465.65c9.47.54,17,3.15,16.88,5.83l-34.31-2C737.87,466.84,745.67,465.11,755.15,465.65Z"/><path class="cls-15" d="M809.11,430.09c-7.56,5.14-15.92,6-18.68,2l27.37-18.6C820.55,417.5,816.67,425,809.11,430.09Z"/><path class="cls-16" d="M799.12,415.39c7.55-5.13,15.92-6,18.68-1.95L790.43,432C787.67,428,791.56,420.53,799.12,415.39Z"/><path class="cls-15" d="M805.72,396.05c-3.79,8.31-8.58,14.27-10.69,13.3l13.73-30.1C810.88,380.21,809.52,387.74,805.72,396.05Z"/><path class="cls-16" d="M798.07,392.55c3.79-8.31,8.58-14.26,10.69-13.3L795,409.35C792.92,408.39,794.27,400.87,798.07,392.55Z"/><path class="cls-19" d="M799.81,392.65c-.93,9.35-3.83,16.72-6.46,16.45l3.36-33.86C799.35,375.5,800.74,383.3,799.81,392.65Z"/><path class="cls-20" d="M790.25,391.7c.93-9.35,4-16.71,6.79-16.43l-3.36,33.87C790.86,408.86,789.32,401.05,790.25,391.7Z"/><path class="cls-15" d="M769.26,461.21c-8.15-4.33-13.86-9.52-12.76-11.59L786,465.29C784.91,467.36,777.41,465.53,769.26,461.21Z"/><path class="cls-16" d="M773.25,453.7c8.15,4.33,13.86,9.51,12.76,11.59L756.5,449.62C757.6,447.54,765.1,449.37,773.25,453.7Z"/><path class="cls-17" d="M773.29,454.66c-9.27-1.49-16.45-4.83-16-7.44l33.59,5.39C790.43,455.23,782.57,456.15,773.29,454.66Z"/><path class="cls-18" d="M774.82,445.17c9.28,1.49,16.46,4.82,16,7.44l-33.59-5.39C757.68,444.6,765.54,443.68,774.82,445.17Z"/><path class="cls-17" d="M762.39,399.86c6.43,1.7,10.91,5.81,10,9.17l-23.27-6.18C750,399.49,756,398.15,762.39,399.86Z"/><path class="cls-23" d="M759.16,412c-6.43-1.7-10.91-5.81-10-9.18L772.41,409C771.51,412.4,765.58,413.74,759.16,412Z"/><path class="cls-15" d="M702.79,754c-8.25-4.14-15.79-5.8-16.84-3.7l29.86,15C716.86,763.16,711,758.11,702.79,754Z"/><path class="cls-16" d="M699,761.56c8.24,4.14,15.78,5.8,16.84,3.7l-29.86-15C684.89,752.35,690.72,757.41,699,761.56Z"/><path class="cls-17" d="M699.05,816.93c3.89-5.48,4.72-11.56,1.85-13.6l-14.08,19.82C689.69,825.18,695.16,822.4,699.05,816.93Z"/><path class="cls-23" d="M688.68,809.56c-3.89,5.47-4.72,11.55-1.86,13.59l14.08-19.82C698,801.3,692.57,804.08,688.68,809.56Z"/><path class="cls-19" d="M720,807.06c-2.17-9.24-6-16.24-8.65-15.62l7.85,33.45C721.8,824.28,722.16,816.3,720,807.06Z"/><path class="cls-20" d="M710.54,809.27c2.17,9.24,6.19,16.2,9,15.55l-7.85-33.46C708.88,792,708.38,800,710.54,809.27Z"/><path class="cls-17" d="M685.24,748.48c-9.09,2.72-15.84,7-15.07,9.57l32.93-9.85C702.33,745.63,694.34,745.76,685.24,748.48Z"/><path class="cls-18" d="M688,757.77c9.09-2.72,15.84-7,15.08-9.57l-32.93,9.85C670.94,760.61,678.93,760.49,688,757.77Z"/><path class="cls-17" d="M681.87,769.23c-1.75-7.46-5.28-13-7.89-12.4l6.34,27C682.92,783.23,683.62,776.69,681.87,769.23Z"/><path class="cls-18" d="M672.43,771.44c1.74,7.46,5.28,13,7.89,12.4l-6.34-27C671.37,757.44,670.68,764,672.43,771.44Z"/><path class="cls-29" d="M703.46,767.18c-4.1-8.27-11-13.2-15.38-11l14.86,29.93C707.33,783.91,707.57,775.44,703.46,767.18Z"/><path class="cls-29" d="M687.56,775.07c4.1,8.27,11,13.2,15.38,11l-14.86-29.93C683.69,758.34,683.45,766.81,687.56,775.07Z"/><path class="cls-17" d="M681.57,804.79c6.21-2.56,10.16-7.27,8.82-10.52l-22.48,9.27C669.25,806.78,675.37,807.34,681.57,804.79Z"/><path class="cls-23" d="M676.72,793c-6.2,2.56-10.15,7.27-8.81,10.52l22.48-9.27C689.05,791,682.93,790.46,676.72,793Z"/><path class="cls-17" d="M720.05,786.61c-8.83-3.47-16.79-4.25-17.77-1.76l32,12.55C735.26,794.9,728.89,790.07,720.05,786.61Z"/><path class="cls-18" d="M716.51,795.64c8.84,3.46,16.79,4.25,17.77,1.76l-32-12.55C701.31,787.35,707.68,792.18,716.51,795.64Z"/><path class="cls-25" d="M693.37,775.32c-6.07-3-12.74-1.77-14.91,2.67l22,10.73C702.6,784.28,699.44,778.29,693.37,775.32Z"/><path class="cls-26" d="M685.53,791.38c6.07,3,12.74,1.77,14.91-2.66l-22-10.73C676.3,782.42,679.46,788.42,685.53,791.38Z"/><path class="cls-15" d="M761.57,862.65c1.54-9.1.91-16.79-1.41-17.19l-5.57,32.95C756.9,878.8,760,871.74,761.57,862.65Z"/><path class="cls-16" d="M753.18,861.23c-1.54,9.1-.91,16.79,1.41,17.18l5.57-32.95C757.85,845.07,754.72,852.13,753.18,861.23Z"/><path class="cls-15" d="M696.26,862.63c5.34-7.52,11.22-12.52,13.14-11.16l-19.34,27.25C688.15,877.36,690.92,870.16,696.26,862.63Z"/><path class="cls-16" d="M703.2,867.55c-5.34,7.53-11.22,12.53-13.14,11.17l19.34-27.25C711.31,852.82,708.53,860,703.2,867.55Z"/><path class="cls-17" d="M693,854c8.74-3.7,16.67-4.7,17.71-2.24l-31.64,13.41C678,862.66,684.26,857.66,693,854Z"/><path class="cls-18" d="M696.78,862.89c-8.74,3.7-16.67,4.7-17.71,2.24l31.64-13.41C711.76,854.19,705.52,859.19,696.78,862.89Z"/><path class="cls-19" d="M701.49,867.13c2.69-9.1,7-15.86,9.53-15.1l-9.77,33C698.69,884.22,698.79,876.23,701.49,867.13Z"/><path class="cls-20" d="M710.79,869.89c-2.7,9.1-7.11,15.81-9.86,15l9.76-32.95C713.44,852.75,713.48,860.79,710.79,869.89Z"/><path class="cls-15" d="M744.35,805.71c7.2,5.78,11.83,11.95,10.36,13.78l-26-20.94C730.14,796.72,737.16,799.93,744.35,805.71Z"/><path class="cls-16" d="M739,812.33c-7.19-5.78-11.83-12-10.36-13.78l26,20.94C753.24,821.32,746.22,818.11,739,812.33Z"/><path class="cls-21" d="M756.24,811.54c1.5,4.21.66,8.35-1.86,9.25L749,805.52C751.49,804.63,754.75,807.32,756.24,811.54Z"/><path class="cls-22" d="M747.1,814.78c-1.49-4.22-.66-8.36,1.87-9.26l5.41,15.27C751.85,821.68,748.59,819,747.1,814.78Z"/><path class="cls-17" d="M739.55,810.65c8.92,3.24,15.41,7.91,14.5,10.42l-32.3-11.72C722.66,806.83,730.63,807.41,739.55,810.65Z"/><path class="cls-18" d="M736.24,819.77c-8.92-3.24-15.41-7.91-14.49-10.42l32.3,11.72C753.13,823.59,745.16,823,736.24,819.77Z"/><path class="cls-17" d="M741.72,831.56c2.18-7.34,6-12.68,8.59-11.92l-7.88,26.6C739.86,845.48,739.55,838.91,741.72,831.56Z"/><path class="cls-18" d="M751,834.32c-2.17,7.34-6,12.68-8.59,11.92l7.88-26.6C752.88,820.4,753.2,827,751,834.32Z"/><path class="cls-30" d="M720.28,828.27c4.57-8,11.73-12.54,16-10.11l-16.55,29C715.46,844.75,715.71,836.29,720.28,828.27Z"/><path class="cls-30" d="M735.71,837.07c-4.57,8-11.73,12.54-16,10.11l16.55-29C740.53,820.59,740.28,829.06,735.71,837.07Z"/><path class="cls-17" d="M702.6,846.71c9-3,17-3.27,17.84-.73l-32.66,10.68C686.94,854.12,693.58,849.66,702.6,846.71Z"/><path class="cls-18" d="M705.62,855.93c-9,3-17,3.28-17.84.73L720.44,846C721.27,848.53,714.64,853,705.62,855.93Z"/><path class="cls-15" d="M677.1,919.51c5.16-7.54,10.9-12.58,12.82-11.27l-18.7,27.3C669.3,934.22,671.93,927.05,677.1,919.51Z"/><path class="cls-16" d="M684,924.27c-5.16,7.54-10.9,12.58-12.82,11.27l18.7-27.3C691.84,909.56,689.21,916.73,684,924.27Z"/><path class="cls-17" d="M690,888.54c8.65-3.67,16.51-4.66,17.54-2.22L676.22,899.6C675.18,897.15,681.36,892.2,690,888.54Z"/><path class="cls-18" d="M693.76,897.38c-8.65,3.67-16.51,4.66-17.54,2.22l31.33-13.28C708.59,888.77,702.41,893.72,693.76,897.38Z"/><path class="cls-19" d="M698.44,900.71c2.7-9.1,7-15.86,9.53-15.1l-9.76,32.95C695.64,917.8,695.74,909.81,698.44,900.71Z"/><path class="cls-20" d="M707.74,903.46c-2.69,9.1-7.11,15.82-9.85,15l9.76-33C710.4,886.33,710.44,894.36,707.74,903.46Z"/><path class="cls-21" d="M753.2,845.11c1.49,4.22.66,8.36-1.87,9.25l-5.41-15.26C748.45,838.2,751.71,840.9,753.2,845.11Z"/><path class="cls-22" d="M744.06,848.35c-1.5-4.21-.66-8.36,1.86-9.25l5.41,15.26C748.81,855.26,745.55,852.57,744.06,848.35Z"/><path class="cls-17" d="M736.51,844.23c8.92,3.24,15.41,7.9,14.49,10.42l-32.3-11.73C719.61,840.4,727.59,841,736.51,844.23Z"/><path class="cls-18" d="M733.2,853.35c-8.92-3.24-15.41-7.91-14.5-10.43L751,854.65C750.09,857.17,742.12,856.58,733.2,853.35Z"/><path class="cls-31" d="M717.24,861.85c4.57-8,11.73-12.55,16-10.12l-16.56,29C712.41,878.33,712.67,869.86,717.24,861.85Z"/><path class="cls-31" d="M732.66,870.65c-4.57,8-11.73,12.54-16,10.11l16.56-29C737.49,854.16,737.24,862.63,732.66,870.65Z"/><path class="cls-17" d="M736.92,900.65c-6-2.91-9.71-7.83-8.19-11l21.91,10.55C749.11,903.36,743,903.57,736.92,900.65Z"/><path class="cls-23" d="M742.44,889.19c6,2.91,9.72,7.84,8.2,11l-21.91-10.55C730.25,886.48,736.39,886.28,742.44,889.19Z"/><path class="cls-17" d="M699.56,880.29c9-2.95,17-3.28,17.84-.73l-32.67,10.68C683.9,887.69,690.54,883.24,699.56,880.29Z"/><path class="cls-18" d="M702.57,889.51c-9,3-17,3.27-17.84.73l32.67-10.68C718.23,882.11,711.59,886.56,702.57,889.51Z"/><path class="cls-15" d="M665.28,942.29c5.17-7.54,12.64-11.4,16.68-8.62L663.26,961C659.21,958.19,660.12,949.83,665.28,942.29Z"/><path class="cls-16" d="M679.94,952.34c-5.16,7.53-12.63,11.4-16.68,8.62L682,933.67C686,936.44,685.11,944.8,679.94,952.34Z"/><path class="cls-15" d="M680.84,972.76c.5-9.12,2.79-16.42,5.11-16.29l-1.81,33C681.82,989.38,680.34,981.88,680.84,972.76Z"/><path class="cls-16" d="M689.25,973.22c-.51,9.12-2.79,16.42-5.11,16.29l1.81-33C688.27,956.6,689.75,964.1,689.25,973.22Z"/><path class="cls-19" d="M687.59,973.77c-2.54-9-2.53-17,0-17.68l9.21,32.76C694.26,989.57,690.13,982.82,687.59,973.77Z"/><path class="cls-20" d="M696.84,971.17c2.54,9.05,2.39,17-.34,17.77l-9.21-32.76C690,955.41,694.3,962.12,696.84,971.17Z"/><path class="cls-15" d="M691.05,898.79c9.16,1.06,16.38,3.81,16.11,6.14L674,901.1C674.23,898.77,681.88,897.73,691.05,898.79Z"/><path class="cls-16" d="M690.07,907.24c-9.17-1.06-16.38-3.81-16.11-6.14l33.2,3.83C706.89,907.27,699.24,908.3,690.07,907.24Z"/><path class="cls-17" d="M689.68,906.36c9.18-2,17.08-1.51,17.65,1.09l-33.26,7.22C673.51,912.07,680.5,908.36,689.68,906.36Z"/><path class="cls-18" d="M691.72,915.75c-9.18,2-17.08,1.51-17.65-1.08l33.26-7.22C707.89,910,700.9,913.75,691.72,915.75Z"/><path class="cls-30" d="M686,934.13c-.33-7.49,2.66-13.7,6.67-13.87l1.18,27.11C689.85,947.55,686.34,941.62,686,934.13Z"/><path class="cls-30" d="M700.53,933.5c.33,7.48-2.66,13.7-6.67,13.87l-1.18-27.11C696.69,920.08,700.2,926,700.53,933.5Z"/><path class="cls-17" d="M719.81,953.42c-6.61.75-12.28-1.44-12.68-4.9l23.92-2.72C731.45,949.25,726.41,952.67,719.81,953.42Z"/><path class="cls-23" d="M718.38,940.9c6.6-.75,12.28,1.44,12.67,4.9l-23.92,2.72C706.74,945.07,711.78,941.65,718.38,940.9Z"/><path class="cls-38" d="M453.29,184.08a28.63,28.63,0,0,1,28.63-28.63H630.13a28.58,28.58,0,0,1,22.8,11.32,28.61,28.61,0,0,0-24-13.1H480.67A28.63,28.63,0,0,0,452,182.3v33.87a28.51,28.51,0,0,0,5.84,17.32A28.49,28.49,0,0,1,453.29,218Z"/><path class="cls-39" d="M480.67,244.8H628.88a28.63,28.63,0,0,0,28.63-28.63V182.3a26.15,26.15,0,0,0-27.38-26.85H481.92a28.63,28.63,0,0,0-28.63,28.63V218a26.15,26.15,0,0,0,27.38,26.84Z"/><path class="cls-38" d="M77.86,490.44a28.63,28.63,0,0,1,28.63-28.63H254.7a28.6,28.6,0,0,1,22.8,11.31A28.61,28.61,0,0,0,253.45,460H105.25a28.63,28.63,0,0,0-28.64,28.63v33.88a28.51,28.51,0,0,0,5.84,17.32,28.49,28.49,0,0,1-4.59-15.54Z"/><path class="cls-39" d="M105.25,551.16h148.2a28.63,28.63,0,0,0,28.63-28.63V488.65a26.13,26.13,0,0,0-27.38-26.84H106.49a28.63,28.63,0,0,0-28.63,28.63v33.87a28.49,28.49,0,0,0,4.59,15.54A28.59,28.59,0,0,0,105.25,551.16Z"/><path class="cls-38" d="M1471.63,300.63A28.63,28.63,0,0,0,1443,272H1294.79a28.58,28.58,0,0,0-22.8,11.32,28.6,28.6,0,0,1,24-13.1h148.2a28.63,28.63,0,0,1,28.63,28.63v33.87A28.5,28.5,0,0,1,1467,350a28.49,28.49,0,0,0,4.59-15.53Z"/><path class="cls-39" d="M1444.24,361.35H1296a28.63,28.63,0,0,1-28.63-28.63V298.85A26.15,26.15,0,0,1,1294.79,272H1443a28.63,28.63,0,0,1,28.63,28.63v33.88a26.15,26.15,0,0,1-27.39,26.84Z"/><path class="cls-38" d="M1865.53,625.1a28.63,28.63,0,0,1-28.64,28.63h-148.2a28.58,28.58,0,0,1-22.8-11.32,28.6,28.6,0,0,0,24,13.1h148.2a28.63,28.63,0,0,0,28.63-28.63V593a28.49,28.49,0,0,0-5.83-17.31,28.44,28.44,0,0,1,4.59,15.53Z"/><path class="cls-39" d="M1838.14,564.37h-148.2A28.63,28.63,0,0,0,1661.31,593v33.88a26.15,26.15,0,0,0,27.38,26.85h148.2a28.63,28.63,0,0,0,28.64-28.63V591.22a26.17,26.17,0,0,0-27.39-26.85Z"/><path class="cls-38" d="M1480.42,945.89a28.63,28.63,0,0,1-28.63,28.63H1303.58a28.57,28.57,0,0,1-22.79-11.31,28.59,28.59,0,0,0,24,13.09H1453a28.63,28.63,0,0,0,28.63-28.63V913.8a28.51,28.51,0,0,0-5.84-17.32,28.49,28.49,0,0,1,4.59,15.53Z"/><path class="cls-39" d="M1453,885.17H1304.83a28.63,28.63,0,0,0-28.63,28.63v33.87a26.15,26.15,0,0,0,27.38,26.85h148.21a28.63,28.63,0,0,0,28.63-28.63V912A26.15,26.15,0,0,0,1453,885.17Z"/><ellipse class="cls-40" cx="371.11" cy="687.4" rx="15.22" ry="3.14" transform="matrix(0.52, -0.85, 0.85, 0.52, -408.98, 646.16)"/><ellipse class="cls-40" cx="350.93" cy="693.27" rx="3.39" ry="14.12" transform="translate(-413.58 554.37) rotate(-52.85)"/><ellipse class="cls-40" cx="350.78" cy="699.96" rx="3.21" ry="14.92" transform="translate(-381.98 975.73) rotate(-84.01)"/><ellipse class="cls-40" cx="375.56" cy="698.05" rx="15.47" ry="3.09" transform="translate(-170.1 123.09) rotate(-15.22)"/><ellipse class="cls-41" cx="375.68" cy="692.43" rx="15.61" ry="3.06" transform="translate(-269.58 240.5) rotate(-26.51)"/><ellipse class="cls-40" cx="345.91" cy="693.66" rx="3.33" ry="14.38" transform="translate(-428.96 713.12) rotate(-64.93)"/><ellipse class="cls-41" cx="354.18" cy="689.59" rx="3.43" ry="13.94" transform="translate(-259.06 215.33) rotate(-25.1)"/><ellipse class="cls-41" cx="365.17" cy="687.86" rx="14.87" ry="3.22" transform="translate(-405.03 803.12) rotate(-70.55)"/><ellipse class="cls-40" cx="359.01" cy="687.19" rx="3.38" ry="14.17" transform="translate(-84.8 51.46) rotate(-7.34)"/><path class="cls-42" d="M715.55,466.57c6.14-6.89,14.08-9.84,17.74-6.58l-22.21,25C707.42,481.69,709.42,473.46,715.55,466.57Z"/><path class="cls-43" d="M728.82,478.38c-6.14,6.89-14.08,9.84-17.74,6.58l22.21-25C737,463.25,735,471.49,728.82,478.38Z"/><path class="cls-44" d="M1207.37,406.7c-7.18,5.79-15.5,7.4-18.58,3.59l26-21C1217.87,393.11,1214.54,400.9,1207.37,406.7Z"/><path class="cls-45" d="M1196.21,392.88c7.18-5.8,15.49-7.4,18.57-3.59l-26,21C1185.71,406.47,1189,398.68,1196.21,392.88Z"/><path class="cls-46" d="M1176.6,467.86c.81,9.19,5.42,16.3,10.31,15.87L1184,450.44C1179.1,450.87,1175.79,458.67,1176.6,467.86Z"/><path class="cls-47" d="M1194.29,466.31c-.81-9.19-5.42-16.3-10.31-15.87l2.93,33.29C1191.79,483.3,1195.1,475.5,1194.29,466.31Z"/><path class="cls-48" d="M1211.5,345.91c-7.17,5.79-15.49,7.4-18.57,3.59l26-21C1222,332.32,1218.68,340.11,1211.5,345.91Z"/><path class="cls-49" d="M1200.35,332.09c7.17-5.8,15.49-7.41,18.57-3.59l-26,21C1189.85,345.68,1193.17,337.89,1200.35,332.09Z"/><path class="cls-50" d="M1179.5,284.21c.81,9.2,5.43,16.3,10.31,15.87l-2.92-33.29C1182,267.22,1178.7,275,1179.5,284.21Z"/><path class="cls-51" d="M1197.2,282.66c-.81-9.19-5.43-16.3-10.31-15.87l2.92,33.29C1194.7,299.65,1198,291.85,1197.2,282.66Z"/><path class="cls-52" d="M1086.66,194.78c-7.88-4.81-16.33-5.31-18.89-1.12l28.52,17.41C1098.85,206.88,1094.53,199.59,1086.66,194.78Z"/><path class="cls-53" d="M1077.4,209.94c7.88,4.81,16.34,5.31,18.89,1.13l-28.52-17.41C1065.22,197.84,1069.53,205.13,1077.4,209.94Z"/><path class="cls-17" d="M1081.09,195.66c-6.25,7.15-9.68,14.37-7.66,16.13l22.62-25.88C1094,184.15,1087.33,188.51,1081.09,195.66Z"/><path class="cls-18" d="M1088.39,202c6.25-7.14,9.67-14.36,7.66-16.13l-22.62,25.88C1075.45,213.55,1082.15,209.19,1088.39,202Z"/><path class="cls-54" d="M771.1,430.92c.69-7.47,5.2-13.16,10.09-12.72l-2.48,27.05C773.82,444.81,770.42,438.39,771.1,430.92Z"/><path class="cls-55" d="M788.79,432.54c-.69,7.47-5.2,13.16-10.08,12.71l2.48-27.05C786.07,418.65,789.47,425.07,788.79,432.54Z"/><path class="cls-56" d="M759.6,439c4.08,5.5,10.58,7.58,14.52,4.65l-14.77-19.89C755.41,426.72,755.53,433.54,759.6,439Z"/><path class="cls-57" d="M773.86,428.44c-4.08-5.49-10.58-7.57-14.51-4.65l14.77,19.89C778.06,440.76,777.94,433.94,773.86,428.44Z"/><rect class="cls-58" x="635.39" y="1022.7" width="662.87" height="61.89"/><ellipse class="cls-59" cx="624.26" cy="522.65" rx="6.79" ry="23.75" transform="translate(-101.8 154.27) rotate(-13.03)"/><ellipse class="cls-60" cx="615.11" cy="483.13" rx="6.79" ry="23.75" transform="translate(-93.12 151.18) rotate(-13.03)"/><ellipse class="cls-59" cx="632.87" cy="562.03" rx="6.79" ry="23.75" transform="translate(-110.45 157.22) rotate(-13.03)"/><ellipse class="cls-59" cx="642.6" cy="600.79" rx="6.79" ry="23.75" transform="translate(-118.95 160.42) rotate(-13.03)"/><ellipse class="cls-59" cx="651.21" cy="640.17" rx="6.79" ry="23.75" transform="translate(-127.61 163.37) rotate(-13.03)"/><ellipse class="cls-59" cx="659.79" cy="677.77" rx="6.79" ry="23.75" transform="translate(-135.87 166.28) rotate(-13.03)"/><ellipse class="cls-59" cx="668.41" cy="717.14" rx="6.79" ry="23.75" transform="translate(-144.52 169.24) rotate(-13.03)"/><ellipse class="cls-59" cx="678.13" cy="755.91" rx="6.79" ry="23.75" transform="translate(-153.02 172.43) rotate(-13.03)"/><ellipse class="cls-59" cx="686.75" cy="795.28" rx="6.79" ry="23.75" transform="translate(-161.68 175.39) rotate(-13.03)"/><ellipse class="cls-59" cx="692.28" cy="828.32" rx="6.79" ry="23.75" transform="translate(-168.98 177.48) rotate(-13.03)"/><ellipse class="cls-59" cx="700.9" cy="867.69" rx="6.79" ry="23.75" transform="translate(-177.64 180.44) rotate(-13.03)"/><ellipse class="cls-59" cx="710.62" cy="906.46" rx="6.79" ry="23.75" transform="translate(-186.14 183.63) rotate(-13.03)"/><ellipse class="cls-59" cx="719.24" cy="945.83" rx="6.79" ry="23.75" transform="translate(-194.8 186.59) rotate(-13.03)"/><ellipse class="cls-59" cx="727.82" cy="983.43" rx="6.79" ry="23.75" transform="translate(-203.05 189.5) rotate(-13.03)"/><ellipse class="cls-59" cx="1297.38" cy="523.19" rx="23.75" ry="6.79" transform="translate(495.05 1669.13) rotate(-76.97)"/><ellipse class="cls-61" cx="1306.53" cy="483.66" rx="23.75" ry="6.79" transform="translate(540.65 1647.44) rotate(-76.97)"/><ellipse class="cls-59" cx="1288.76" cy="562.56" rx="23.75" ry="6.79" transform="translate(450.02 1691.23) rotate(-76.97)"/><ellipse class="cls-59" cx="1279.04" cy="601.33" rx="23.75" ry="6.79" transform="translate(404.72 1711.78) rotate(-76.97)"/><ellipse class="cls-59" cx="1270.42" cy="640.7" rx="23.75" ry="6.79" transform="translate(359.69 1733.88) rotate(-76.97)"/><ellipse class="cls-59" cx="1261.84" cy="678.3" rx="23.75" ry="6.79" transform="translate(316.41 1754.64) rotate(-76.97)"/><ellipse class="cls-59" cx="1253.22" cy="717.68" rx="23.75" ry="6.79" transform="translate(271.38 1776.74) rotate(-76.97)"/><ellipse class="cls-59" cx="1243.5" cy="756.44" rx="23.75" ry="6.79" transform="translate(226.08 1797.29) rotate(-76.97)"/><ellipse class="cls-59" cx="1234.88" cy="795.82" rx="23.75" ry="6.79" transform="translate(181.05 1819.39) rotate(-76.97)"/><ellipse class="cls-59" cx="1229.35" cy="828.85" rx="23.75" ry="6.79" transform="translate(144.58 1839.58) rotate(-76.97)"/><ellipse class="cls-59" cx="1220.74" cy="868.23" rx="23.75" ry="6.79" transform="translate(99.55 1861.69) rotate(-76.97)"/><ellipse class="cls-59" cx="1211.01" cy="906.99" rx="23.75" ry="6.79" transform="translate(54.25 1882.23) rotate(-76.97)"/><ellipse class="cls-59" cx="1202.4" cy="946.37" rx="23.75" ry="6.79" transform="translate(9.22 1904.33) rotate(-76.97)"/><ellipse class="cls-59" cx="1193.82" cy="983.97" rx="23.75" ry="6.79" transform="translate(-34.06 1925.09) rotate(-76.97)"/><rect class="cls-62" x="721.82" y="995.6" width="477.43" height="29.54" rx="14.77"/><polygon class="cls-63" points="847.24 1025.14 852.35 1007.48 851.32 1025.14 847.24 1025.14"/><polygon class="cls-63" points="773.45 995.6 776.77 1025.14 784.17 1025.14 791.58 995.6 773.45 995.6"/><polygon class="cls-63" points="941.2 995.6 946.98 1025.14 953.11 1025.14 955.83 995.6 941.2 995.6"/><polygon class="cls-63" points="1018.3 1025.14 1013.71 1000.33 1023.92 1025.14 1018.3 1025.14"/><polygon class="cls-63" points="1142.21 1024.38 1159.06 1000.33 1152.6 1025.14 1142.21 1024.38"/><path class="cls-15" d="M748,576.49c-8.24-4.15-15.78-5.81-16.84-3.71l29.86,15C762.07,585.69,756.24,580.63,748,576.49Z"/><path class="cls-16" d="M744.17,584.08c8.25,4.14,15.79,5.8,16.84,3.71l-29.86-15C730.1,574.88,735.93,579.94,744.17,584.08Z"/><path class="cls-17" d="M730.45,571c-9.09,2.72-15.84,7-15.07,9.57l32.92-9.85C747.53,568.16,739.54,568.28,730.45,571Z"/><path class="cls-18" d="M733.23,580.29c9.09-2.72,15.84-7,15.07-9.57l-32.92,9.85C716.14,583.14,724.14,583,733.23,580.29Z"/><path class="cls-17" d="M765.26,609.13c-8.84-3.46-16.79-4.25-17.77-1.76l32,12.55C780.46,617.43,774.09,612.6,765.26,609.13Z"/><path class="cls-18" d="M761.72,618.16c8.83,3.47,16.79,4.25,17.77,1.76l-32-12.55C746.51,609.87,752.88,614.7,761.72,618.16Z"/><path class="cls-25" d="M738.58,597.85c-6.07-3-12.75-1.77-14.91,2.66l22,10.73C747.81,606.81,744.65,600.81,738.58,597.85Z"/><path class="cls-26" d="M730.74,613.9c6.07,3,12.74,1.77,14.9-2.66l-22-10.73C721.5,604.94,724.67,610.94,730.74,613.9Z"/><rect class="cls-64" x="1.24" y="5.72" width="1920" height="1080"/><path class="cls-65" d="M591.23,1070.29a88.38,88.38,0,0,0-1.62-11.52c0-1.67.08-3.39.08-5.16,0-10.82-1.08-19.94-2.57-22.82-.87-10.38-2.6-17.46-4.58-17.46-2.87,0-5.19,14.72-5.19,32.88,0,1.29,0,2.57,0,3.82a.72.72,0,0,0-.45-.24c-.79-11.77-2.63-20-4.78-20-1.92,0-3.6,6.62-4.5,16.46-1,.57-1.88,2.87-2.62,6.42.24-2.73.38-5.76.38-9,0-11.8-1.82-21.36-4.06-21.36s-4.06,9.56-4.06,21.36v0a1,1,0,0,0-.34-.08,1.17,1.17,0,0,0-.79.39c-.95-7.56-2.41-12.41-4.06-12.41l-.12,0c-.41-.67-.85-1-1.29-1-2.17,0-4,8.43-4.8,20.4-.12-5.33-.44-10.13-.91-13.91-.31-16.23-2.5-28.8-5.15-28.8-.89,0-1.73,1.43-2.46,4-.86-3.92-1.91-6.23-3-6.23-2.07,0-3.85,7.65-4.69,18.73l-.18,0c-.9,0-1.74,1.43-2.47,4-.86-3.92-1.91-6.23-3-6.23-.76,0-1.48,1-2.12,2.88-.75-4.9-1.89-8-3.18-8-.95,0-1.82,1.74-2.52,4.64-.74-4.25-1.8-6.93-3-6.93-1.57,0-2.94,4.72-3.61,11.61l-.13,0c-.74,0-1.44,1-2.08,2.74a1.09,1.09,0,0,0-.75-.35h0c-.78-3-1.69-4.67-2.67-4.67s-1.61,1.23-2.31,3.42c0-.16-.06-.32-.1-.47-.85-10.76-2.61-18.15-4.64-18.15-1.67,0-3.16,5-4.1,12.79-.57-1.36-1.19-2.11-1.84-2.11-.89,0-1.73,1.43-2.46,4-.86-3.92-1.91-6.24-3-6.24-1.42,0-2.7,3.59-3.63,9.4a.9.9,0,0,0-.65-.39c-.67,0-1.3,1.22-1.83,3.35-.65-6.74-1.95-11.43-3.47-11.73-.94-6.4-2.29-10.4-3.78-10.4-2.15,0-4,8.28-4.79,20.09a1.19,1.19,0,0,0-.83-.43c-.67,0-1.31.8-1.89,2.25-.82-3.47-1.81-5.49-2.87-5.49s-2,2-2.85,5.41c-.6-3.3-1.33-5.26-2.13-5.26s-1.52,1.92-2.11,5.16c-.63-7.51-2-12.76-3.71-12.76-.89,0-1.71,1.53-2.38,4.08a1,1,0,0,0-.56-.2c-1.45,0-2.76,3.79-3.7,9.88-.77-2.83-1.66-4.45-2.61-4.45-.77,0-1.5,1.06-2.15,3-.41-1.07-.85-1.67-1.32-1.67-1.28,0-2.4,4.45-3,11.13-.16-2.56-.37-4.9-.62-6.94-.32-16.23-2.5-28.8-5.15-28.8-2,0-3.78,7.36-4.63,18.1a5.16,5.16,0,0,0-.46-.79c-.74-2.61-1.6-4.11-2.51-4.11s-1.6,1.22-2.29,3.37a1,1,0,0,0-.49-.15c-1.48,0-2.82,4-3.76,10.28-.55-2.2-1.18-3.47-1.87-3.47-.44,0-.86.54-1.25,1.51-.47-9.07-2-15.76-3.92-15.76-2.24,0-4.06,9.56-4.06,21.35,0,1.15,0,2.27.06,3.37-.53-5.34-1.47-9.34-2.6-10.85-.78-2.9-1.68-4.57-2.64-4.57-.7,0-1.36.87-2,2.43-.44-.78-.91-1.2-1.39-1.2-.74,0-1.44,1-2.07,2.73-.55-1.24-1.14-1.92-1.75-1.92a1,1,0,0,0-.45.13q-.13-.81-.3-1.5c-.85-10.76-2.61-18.15-4.64-18.15-1.67,0-3.16,5-4.11,12.79-.57-1.36-1.18-2.11-1.83-2.11-1.18,0-2.28,2.52-3.15,6.76-.41-.67-.84-1-1.29-1-1.15,0-2.21,2.37-3.07,6.38-.62-3.37-1.41-5.4-2.27-5.4-.67,0-1.3,1.22-1.83,3.35-.67-7-2-11.78-3.63-11.78-2.24,0-4.06,9.57-4.06,21.36,0,1.26,0,2.48.07,3.68-.21.83-.4,1.79-.58,2.88-.84-11-2.62-18.61-4.67-18.61-1.46,0-2.78,3.81-3.72,9.94a1.13,1.13,0,0,0-.75-.35c-.73,0-1.42,1-2,2.65-.57-9.06-1.81-15.33-3.23-15.33s-2.7,6.48-3.26,15.78a56.4,56.4,0,0,0-1.75-9.31c-.94-6.27-2.27-10.18-3.75-10.18-.64,0-1.26.75-1.83,2.11-1.82,1.46-3.34,8.88-4.07,19.07a1.46,1.46,0,0,0-.62-.42c-.56-8.28-1.81-14.05-3.26-14.05s-2.58,5.18-3.17,12.77c-1.19,2.11-2.2,6.81-2.88,13.09-.38-9.75-2-17.09-4-17.09h0c-.69-2.92-1.57-4.68-2.53-4.68-1.37,0-2.59,3.61-3.32,9.11-.87-10.49-2.6-17.65-4.6-17.65-2.48,0-4.55,11-5.07,25.73a2.7,2.7,0,0,0-1,1.15c-.56-4-1.3-6.7-2.11-7.31a6.43,6.43,0,0,0-1.58-2.89c-.41-1.23-.86-1.92-1.33-1.92-1.09,0-2.07,3.69-2.72,9.49-.89-5.13-2.07-8.31-3.36-8.51-.21-.8-.43-1.51-.65-2.12-.94-8.63-2.51-14.28-4.28-14.28-2.33,0-4.3,9.71-5,23.1h0a.69.69,0,0,0-.39.14c-.6-3-1.34-4.81-2.15-4.81-.26,0-.51.19-.75.53h-.11c-.62-1.62-1.29-2.52-2-2.52-1.87,0-3.51,6.27-4.42,15.66-.55-9.54-1.81-16.23-3.29-16.23l-.11,0c-.74-4.24-1.8-6.91-3-6.91s-2.34,2.92-3.09,7.5c-.76-2.75-1.63-4.33-2.57-4.33-1.14,0-2.2,2.34-3.06,6.31a.9.9,0,0,0-.53-.17c-.48,0-1,.42-1.39,1.21-.92-5.09-2.12-8.19-3.43-8.19s-2.33,2.67-3.22,7.11c-.5-2-1.08-3.22-1.7-3.22-.27,0-.54.24-.79.68-.88-4.21-2-6.71-3.14-6.71-1,0-2,1.85-2.76,5-.63-1.74-1.33-2.71-2.06-2.71-1.83,0-3.43,6-4.36,15l-.15-.21c-.15-15.83-2.07-28.61-4.53-30.55-.43-.72-.88-1.12-1.34-1.12-2.39,0-4.4,10.25-5,24.19a1.34,1.34,0,0,0-1-.65,1,1,0,0,0-.6.26c-.7-3.32-1.54-5.54-2.46-6.26-.43-.72-.88-1.11-1.34-1.11-1.92,0-3.6,6.64-4.5,16.5a1,1,0,0,0-.29-.08c-.3-.61-.62-1-.94-1a.56.56,0,0,0-.32.11v-.82c0-10.75-1.51-19.62-3.47-21.11-.4-.7-.83-1.1-1.28-1.1-1.38,0-2.59,3.61-3.32,9.11-.87-10.49-2.6-17.65-4.6-17.65-2.48,0-4.55,11-5.07,25.73a2.1,2.1,0,0,0-.67.64,1.15,1.15,0,0,0-.74-.33l-.23,0c-.63-4-1.44-7-2.33-8.54-.35-1-.71-1.67-1.1-1.85-.29-.6-.61-.92-.93-.92-1.14,0-2.15,4-2.81,10.24-.23,1.38-.45,2.9-.65,4.54-.77-9.34-2.23-16-4-17.38a2.59,2.59,0,0,0-.92-1c-.54-1.38-1.14-2.18-1.78-2.18-2.24,0-4.06,9.56-4.06,21.35,0,2.86.11,5.58.3,8.08,0,.63,0,1.28,0,1.93-.13-.58-.25-1.13-.39-1.63-.25-10.73-1.59-19.09-3.24-20-.31-.62-.65-1-1-1s-.51.19-.76.53h-.07c-.74,0-1.44,1-2.07,2.74-.75-2.62-1.61-4.12-2.52-4.12s-2,1.86-2.77,5.08c-.63-4.22-1.46-6.78-2.38-6.78-1.17,0-2.21,4.23-2.86,10.77-.82-5.19-1.92-8.66-3.13-9.46-.8-3.18-1.75-5-2.76-5-1.7,0-3.21,5.18-4.16,13.19-.94-8.48-2.49-14-4.25-14-2.17,0-4,8.4-4.8,20.35-.8-11.55-2.63-19.61-4.75-19.61-2.74,0-5,13.49-5.17,30.57-.06.61-.12,1.23-.18,1.87-.54-5.91-1.38-10.13-2.36-11.36-.1-.36-.19-.69-.29-1-.17-1.75-.38-3.35-.62-4.79-.09-17.69-2.37-31.87-5.19-31.87-2.66,0-4.85,12.69-5.15,29a6.76,6.76,0,0,0-1.59-3.19c-.94-5.83-2.22-9.43-3.63-9.43-1.94,0-3.62,6.69-4.51,16.6h0a1,1,0,0,0-.48.15c-.43-1.36-.9-2.12-1.39-2.12a.56.56,0,0,0-.32.11v-.82c0-11.79-1.81-21.35-4.06-21.35-2,0-3.74,8-4,18.44a.86.86,0,0,0-.37-.1c-.4,0-.78.3-1.16.83-.94-6.09-2.25-9.87-3.7-9.87s-2.81,3.9-3.75,10.14c-.64-1.8-1.35-2.8-2.1-2.8a1.33,1.33,0,0,0-1,.62c-.65-6.69-1.7-11-2.89-11-1.71,0-3.14,9-3.49,21.05a4.9,4.9,0,0,0-.26-.56c-.6-13.95-2.61-24.21-5-24.21-2.84,0-5.14,14.45-5.18,32.37a42.94,42.94,0,0,0-1.06-5.56c-.27-11.38-1.75-20.09-3.54-20.09-1,0-1.91,2.75-2.56,7.19-.93-5.52-2.18-8.91-3.55-8.91-2.87,0-5.19,14.72-5.19,32.87,0,.69,0,1.36,0,2s-.26,1.42-.38,2.2c-.77-12.12-2.64-20.69-4.82-20.69-2.52,0-4.62,11.35-5.09,26.4a112.52,112.52,0,0,0-1.69-15.09c-.24-10.57-1.95-18.75-4-18.75-2.24,0-4.06,9.56-4.06,21.35,0,2.74.1,5.34.28,7.75-.16,1.94-.3,4-.4,6.16a142.28,142.28,0,0,0-1.31-15.75v-1.13c0-18.15-2.32-32.87-5.19-32.87s-5.19,14.72-5.19,32.87c0,.57,0,1.13,0,1.69-.51-7-1.44-12.1-2.53-13.48-.78-3-1.69-4.66-2.67-4.66-1.3,0-2.48,3-3.39,8-.9-4.66-2-7.46-3.29-7.46a1.23,1.23,0,0,0-.88.48,32.3,32.3,0,0,0-1.41-6.2v55.79H13.44a143.78,143.78,0,0,0,1.17-19.7c0-.42,0-.83,0-1.24.25,3.5.58,6.68,1,9.41V1074c0,3.64.1,7.13.27,10.4H25.7l.06-1.15c0,.39,0,.77,0,1.15H35.86q0-.78.06-1.59c0,.54.06,1.07.1,1.59H54.51v-1.26c0-.68,0-1.36,0-2,.33-1.68.62-3.6.87-5.73.74,5,1.9,8.3,3.2,8.3,2,0,3.61-7.36,4-17.14a84.14,84.14,0,0,0,1.66,11.49c0,1.07,0,2.16,0,3.26s0,2.1,0,3.12H74.54c0-1,0-2.06,0-3.12,0-2.48,0-4.9-.12-7.23l.06-1.17c.08.25.17.47.25.67.17,4,.46,7.63.83,10.85h96.05a59.84,59.84,0,0,0,1.19-8.51,58,58,0,0,0,1.6,8.51h90.41c.07-.67.14-1.36.2-2.06a.86.86,0,0,0,.25-.07,13.43,13.43,0,0,0,.65,2.13h2.19c.13-.32.27-.71.4-1.15,0,.39,0,.77.05,1.15h46c.21-3.41.33-7.22.33-11.24,0-1.64,0-3.24-.06-4.79a1,1,0,0,0,.28.07h0c.17.71.35,1.36.54,1.93-.33,4.24-.52,9-.53,14H562c.1-2.54.15-5.2.15-7.93,0-4.1-.12-8-.33-11.63.76-.46,1.46-2,2-4.41a175.67,175.67,0,0,0-.9,18.47c0,1.88,0,3.71.08,5.5h17.27c.11-2.52.16-5.21.16-8v-.07a7.54,7.54,0,0,0,1.11,2.15c-.06,1.91-.1,3.9-.11,5.92h10.36c0-5.09-.25-9.89-.6-14.13Zm-185-17.07c-.48,0-.94.8-1.35,2.13-.12-1.37-.26-2.67-.41-3.91.08-1.67.13-3.42.13-5.23,0-1.15,0-2.27-.06-3.37a39.17,39.17,0,0,0,1.8,9.28C406.34,1052.48,406.3,1052.85,406.27,1053.22Zm110.27,5.69c-.76.4-1.45,2.58-2,6,0-.82,0-1.65.05-2.49.24-2.19.41-4.63.48-7.21a19.53,19.53,0,0,0,.62-2.14,27.41,27.41,0,0,0,1.09,4.44C516.69,1058,516.61,1058.43,516.54,1058.91Z"/><path class="cls-66" d="M624,1063.23c2.08-.9,3.72-10.06,3.72-21.26,0-11.8-1.82-21.36-4.06-21.36-2,0-3.72,7.93-4,18.25-.76-2.71-1.63-4.27-2.56-4.27h0c-.78-3-1.69-4.68-2.67-4.68-2.32,0-4.29,9.71-4.95,23.08-.13.52-.25,1.08-.37,1.67a14.29,14.29,0,0,0-.85-2.21c-.08-14.24-1.64-25.62-3.57-25.62s-3.56,11.93-3.56,26.66c0,.92,0,1.84,0,2.74l0,0V1056c0-18.16-2.33-32.88-5.19-32.88s-5.19,14.72-5.19,32.88c0,5.12.19,10,.52,14.3v0a81.77,81.77,0,0,0,2.07,14.13h5.19c.16-.59.32-1.21.47-1.91,0,.65,0,1.29.06,1.91h25.46c.06-2,.1-4.17.1-6.36C624.58,1072.58,624.36,1067.47,624,1063.23Z"/><path class="cls-67" d="M634.15,1028.11c-2.46.87-4.46,12.56-4.83,27.68-2,3.69-3.54,15-3.74,28.65h8.57Z"/><path class="cls-68" d="M644.82,1011.63c-1.58,0-3,4.46-3.94,11.48h7.88C647.81,1016.09,646.4,1011.63,644.82,1011.63Z"/><path class="cls-69" d="M1856.77,1077.27H1754.06a25.58,25.58,0,0,1-25.5-23.46,20.83,20.83,0,0,0-1.6,5.13c.24-2.73.38-5.76.38-9,0-11.8-1.82-21.36-4.06-21.36s-4.06,9.56-4.06,21.36v0a1,1,0,0,0-.33-.08,1.14,1.14,0,0,0-.76.36V1052a25.6,25.6,0,0,1-25.6,25.6H1538.27a25.6,25.6,0,0,1-25.6-25.6v-14c-.73.66-1.42,2.3-2,4.68-.63-1.74-1.33-2.71-2.06-2.71-1.83,0-3.43,6-4.36,15a2.12,2.12,0,0,0-.84-.81c-.15-17.31-2.41-31.07-5.18-31.07-2.39,0-4.4,10.25-5,24.19a1.35,1.35,0,0,0-1-.65,1,1,0,0,0-.61.27,6.69,6.69,0,0,0-.84-1.58c-.84-3.66-1.85-5.8-3-5.8-1.65,0-3.12,4.89-4.07,12.5a1.53,1.53,0,0,0-.87.6c-.56-5.87-1.45-9.94-2.46-10.84-.72-5.84-2-9.71-3.4-9.71s-2.59,3.61-3.32,9.11c-.87-10.49-2.6-17.65-4.6-17.65-2.48,0-4.55,11-5.06,25.73a1.36,1.36,0,0,0-.39.3c-.61-3.12-1.37-5-2.19-5h-.08c-.6-2.28-1.28-3.81-2-4.38-.42-1.23-.86-1.92-1.33-1.92-.77,0-1.47,1.79-2,4.83a1.1,1.1,0,0,0-.65-.26c-.77,0-1.49,1.07-2.15,3-.87-6.27-2.1-10.44-3.49-11.14-.54-1.38-1.14-2.18-1.78-2.18-2.24,0-4.06,9.56-4.06,21.35q0,3.12.17,6a4.62,4.62,0,0,0-.65,1c-.2-2.8-.47-5.38-.78-7.68-.62-7.1-1.78-11.88-3.1-11.88-.26,0-.51.19-.75.53h-.08c-1.49,0-2.83,4-3.78,10.39a1.13,1.13,0,0,0-.73-.36c-.71,0-1.38,1-2,2.69-.55-9.31-1.8-15.81-3.25-15.81-.84,0-1.61,2.17-2.22,5.79-.89-4.48-2-7.16-3.23-7.16a1.5,1.5,0,0,0-1.11.76c-.67-2-1.41-3.1-2.2-3.1-1.7,0-3.21,5.18-4.16,13.19-.94-8.48-2.49-14-4.25-14-2.16,0-4,8.41-4.8,20.36a1,1,0,0,0-.55-.19,1.25,1.25,0,0,0-.88.48c-.74-5.15-1.91-8.49-3.23-8.49-.79,0-1.53,1.22-2.16,3.28-1.19,1.72-2.17,6.23-2.66,12.13-.27-.44-.56-.68-.85-.68a.84.84,0,0,0-.63.38,17.75,17.75,0,0,0-1.64-4.76c-.18-2.4-.44-4.59-.77-6.48-.08-17.69-2.37-31.87-5.18-31.87s-5.19,14.72-5.19,32.87v1.37a1,1,0,0,0-.55.41c-.85-10.8-2.61-18.23-4.64-18.23-1.79,0-3.37,5.76-4.31,14.51a5.2,5.2,0,0,0-1,1.58c-.37-.95-.76-1.47-1.17-1.47a.56.56,0,0,0-.32.11c0-.27,0-.54,0-.82,0-11.79-1.82-21.35-4.06-21.35-2.06,0-3.75,8-4,18.44a.82.82,0,0,0-.37-.1c-.4,0-.78.3-1.15.83-1-6.09-2.26-9.87-3.71-9.87s-2.8,3.9-3.75,10.14c-.64-1.8-1.35-2.8-2.09-2.8a1.35,1.35,0,0,0-1,.62c-.65-6.69-1.7-11-2.89-11-2,0-3.57,11.94-3.57,26.66,0,2.18,0,4.31.11,6.34,0-.2-.09-.39-.13-.57,0-1.08,0-2.17,0-3.27,0-18.15-2.32-32.87-5.18-32.87s-5.15,14.44-5.19,32.37a42.94,42.94,0,0,0-1.06-5.56c-.27-11.38-1.75-20.09-3.54-20.09-1,0-1.91,2.75-2.56,7.19-.93-5.52-2.18-8.91-3.55-8.91-2.87,0-5.19,14.71-5.19,32.87,0,.68,0,1.36,0,2s-.26,1.42-.38,2.19c-.76-12.11-2.63-20.68-4.82-20.68-2.52,0-4.61,11.34-5.09,26.4a111.46,111.46,0,0,0-1.68-15.1c-.25-10.56-2-18.74-4-18.74-2.24,0-4.06,9.56-4.06,21.35,0,2.74.1,5.34.28,7.75-.16,1.94-.29,4-.39,6.15a143.24,143.24,0,0,0-1.24-15.15v20.55h37.52c.19-1.84.33-3.83.42-6,.18,2.14.4,4.13.66,6h11.16v0h40c0-.62,0-1.23,0-1.87l.09.17c0,.55,0,1.14,0,1.7h468.81c-.06-1.79-.14-3.53-.24-5.21A4,4,0,0,0,1856.77,1077.27Zm-488.64-6.66c0-.34-.05-.69-.07-1l.1-.14Zm357.62-3.59v-.12l0-.13Z"/><path class="cls-70" d="M1754.06,1077.27h102.71a18.13,18.13,0,0,0,.75-2.45c-.08.79-.16,1.61-.23,2.45H1884c-.23-1.53-.49-2.93-.77-4.15.06-1.66.09-3.39.09-5.16,0-10.81-1.09-19.93-2.57-22.82-.88-10.38-2.6-17.45-4.59-17.45-2.86,0-5.19,14.72-5.19,32.87,0,1.3,0,2.57,0,3.83a.72.72,0,0,0-.45-.24c-.79-11.78-2.63-20-4.78-20-1.92,0-3.59,6.63-4.49,16.46-1,.58-1.88,2.88-2.63,6.42.24-2.73.38-5.76.38-9,0-11.79-1.81-21.35-4.06-21.35s-4,9.56-4,21.35v0a1.09,1.09,0,0,0-.34-.07,1.13,1.13,0,0,0-.79.38c-1-7.55-2.42-12.4-4.06-12.4-2.64,0-4.81,12.43-5.15,28.54a.86.86,0,0,0-.38-.1,1.07,1.07,0,0,0-.71.32q.06-2.52.06-5.19a156.35,156.35,0,0,0-.94-18.09c-.32-16.23-2.5-28.8-5.15-28.8-2,0-3.78,7.37-4.64,18.1a6.75,6.75,0,0,0-.45-.78c-.75-2.62-1.6-4.12-2.51-4.12s-1.6,1.22-2.29,3.37a1,1,0,0,0-.49-.14c-1.48,0-2.82,4-3.77,10.28-.54-2.2-1.18-3.47-1.86-3.47-.44,0-.87.53-1.26,1.51-.46-9.08-2-15.77-3.91-15.77-.44,0-.86.38-1.26,1.06-.93-8.89-2.52-14.76-4.33-14.76-2.39,0-4.4,10.22-5,24.12a15.45,15.45,0,0,0-1.42,3.93c-1-7.11-2.37-11.62-4-11.62-.6,0-1.18.66-1.73,1.87-.94-7.77-2.43-12.78-4.1-12.78-1.12,0-2.16,2.27-3,6.11-.58-1.68-1.25-2.65-2-2.65-1.59,0-3,4.84-3.63,11.86-.17.65-.34,1.36-.49,2.12-.41-.66-.85-1-1.29-1s-.82.32-1.2.9c-.77-2.89-1.67-4.56-2.64-4.56-1.28,0-2.45,3-3.35,7.82-.68-6.89-2-11.6-3.61-11.6-.6,0-1.18.71-1.69,2-.34-.82-.71-1.26-1.08-1.26-1.45,0-2.7,6.45-3.26,15.71a31,31,0,0,0-1.14-4.36c-.92-9.06-2.53-15.07-4.36-15.07-2.08,0-3.87,7.76-4.7,19-.66-5.94-1.65-9.72-2.76-9.72a.85.85,0,0,0-.61.39,10.08,10.08,0,0,0-.71-2c-.87-10.38-2.59-17.46-4.58-17.46s-3.68,6.92-4.56,17.12a36.75,36.75,0,0,0-2.14,9c-.94-6-2.24-9.69-3.68-9.69-1.12,0-2.17,2.27-3,6.13-1,1.44-1.83,5.62-2.33,11.29a3.41,3.41,0,0,0-.17.33A25.58,25.58,0,0,0,1754.06,1077.27Z"/><path class="cls-71" d="M1919.33,1074.79a23.75,23.75,0,0,0,.67-2.52v-31.89c-.72-3.35-1.66-5.41-2.69-5.41-2,0-3.73,7.93-4,18.25-.75-2.72-1.62-4.28-2.55-4.28h0c-.78-3-1.7-4.68-2.67-4.68-2.33,0-4.3,9.7-5,23.07-.12.52-.25,1.08-.37,1.67a13.19,13.19,0,0,0-.85-2.2c-.07-14.24-1.64-25.63-3.56-25.63s-3.57,11.94-3.57,26.66c0,.93,0,1.84,0,2.74,0,0,0,0,0,.05v-.29c0-18.15-2.32-32.87-5.19-32.87s-5.19,14.72-5.19,32.87c0,2.38.05,4.7.12,6.93h23.83A25.47,25.47,0,0,0,1919.33,1074.79Z"/><path class="cls-72" d="M1883.88,1077.1h-27.64c-.2,2.24-.36,4.65-.48,7.18h29C1884.51,1081.65,1884.22,1079.24,1883.88,1077.1Z"/><path class="cls-73" d="M1538,1078.48h154.26a25.6,25.6,0,0,0,25.6-25.6v-1.74l0,0c-1-7.55-2.42-12.4-4.06-12.4-2.64,0-4.81,12.43-5.15,28.54a.86.86,0,0,0-.38-.1,1.07,1.07,0,0,0-.71.32c0-1.68.07-3.41.07-5.19a153.88,153.88,0,0,0-1-18.09c-.32-16.23-2.5-28.8-5.15-28.8-2,0-3.78,7.37-4.63,18.1a5.36,5.36,0,0,0-.46-.78c-.75-2.62-1.6-4.12-2.51-4.12s-1.6,1.22-2.29,3.37a1,1,0,0,0-.49-.15c-1.11,0-2.13,2.21-3,6a7.37,7.37,0,0,0-1.32,2.55c-.41-1.09-.86-1.71-1.33-1.71s-.86.54-1.26,1.52c-.46-9.08-2-15.77-3.91-15.77-2.24,0-4.06,9.56-4.06,21.36q0,1.71.06,3.36c-.53-5.33-1.47-9.34-2.61-10.84-.77-2.91-1.67-4.58-2.64-4.58-1.47,0-2.8,3.91-3.75,10.17-.91-5.05-2.1-8.12-3.41-8.12a1,1,0,0,0-.45.13c-.1-.54-.2-1-.3-1.51-.85-10.76-2.61-18.15-4.64-18.15-1.67,0-3.16,5-4.11,12.8-.57-1.37-1.19-2.12-1.83-2.12-1.19,0-2.28,2.52-3.15,6.76-.41-.66-.84-1-1.29-1-1.15,0-2.21,2.38-3.07,6.39-.62-3.38-1.41-5.41-2.27-5.41-.67,0-1.3,1.23-1.84,3.35-.66-7-2-11.77-3.62-11.77-1.93,0-3.54,7.09-4,16.58-.94-6-2.25-9.81-3.7-9.81-.73,0-1.42,1-2.05,2.66-1.73.94-3.22,7.27-4,16.34-.52.16-1,1.14-1.45,2.78q-.15-.62-.3-1.17c-.34-12.09-1.78-21.17-3.5-21.17-1.45,0-2.69,6.48-3.25,15.78a56.25,56.25,0,0,0-1.75-9.3c-.94-6.28-2.27-10.19-3.75-10.19-2.09,0-3.89,7.84-4.71,19.13-.94-8.7-2.51-14.42-4.3-14.42-2.48,0-4.55,11-5.06,25.73a3.93,3.93,0,0,0-1.4,2c-.18-1.29-.37-2.49-.58-3.59-.6-7.83-2.06-13.36-3.76-13.36-2.24,0-4.06,9.56-4.06,21.35v.38l-.09.08c-.68-11.78-2.4-20.39-4.45-21.43-.54-1.39-1.14-2.18-1.78-2.18-2.24,0-4.06,9.56-4.06,21.35,0,2.86.11,5.58.31,8.07,0,.94-.05,1.9-.06,2.86-.2-1-.42-1.91-.64-2.72-.22-3.27-.51-6.27-.87-8.9-.42-4.72-1.06-8.41-1.84-10.36-.44-1.46-.93-2.29-1.45-2.29s-.79.52-1.16,1.45c-1.26.8-2.39,4.47-3.22,10-.93-9.11-2.54-15.14-4.37-15.14a.81.81,0,0,0-.31.06c-.9-9.83-2.57-16.44-4.49-16.44s-3.49,6.17-4.4,15.44c-.38-.56-.77-.86-1.18-.86-1,0-1.9,1.72-2.68,4.72-.65-1.85-1.37-2.88-2.12-2.88-.43,0-.84.33-1.24,1-.71-2.31-1.51-3.63-2.37-3.63-1.32,0-2.53,3.16-3.45,8.34-.61-7.7-2.06-13.1-3.74-13.1-2.14,0-3.89,8.71-4,19.76a5.3,5.3,0,0,0-1.14,2c-.95-7.58-2.41-12.44-4.06-12.44-.7,0-1.36.88-2,2.46-.67-13.25-2.63-22.84-4.94-22.84-1.83,0-3.44,6-4.36,15-.72-2.39-1.54-3.74-2.41-3.74a1.12,1.12,0,0,0-.74.33v14A25.61,25.61,0,0,0,1538,1078.48ZM1676.73,1056l0,.06c0-.15,0-.29,0-.43C1676.7,1055.74,1676.71,1055.87,1676.73,1056Z"/><path class="cls-74" d="M1920.34,1074.62a27.06,27.06,0,0,1-11.37,2.48h-24.62c.09,2.51.22,4.91.39,7.18h34.31c-.11-2.46-.26-4.77-.45-6.86C1919.23,1077.15,1919.82,1076.16,1920.34,1074.62Z"/><rect class="cls-9" x="1624.16" y="884.96" width="205.47" height="91.14" rx="25.6"/><path class="cls-9" d="M1860.8,885.17a25.61,25.61,0,0,0-25.61,25.6v39.94a25.61,25.61,0,0,0,25.61,25.6h60.06V885.17Z"/><path class="cls-75" d="M1747.38,133.94v39.93a25.6,25.6,0,0,0,25.6,25.6h147.88V108.33H1773A25.61,25.61,0,0,0,1747.38,133.94Z"/><rect class="cls-75" x="1531.59" y="108.69" width="205.47" height="91.14" rx="25.6"/><rect class="cls-75" x="1642.23" y="6.99" width="205.46" height="91.14" rx="25.6"/><path class="cls-75" d="M1856.45,32.59V72.52a25.6,25.6,0,0,0,25.6,25.6h38.81V7h-38.81A25.6,25.6,0,0,0,1856.45,32.59Z"/><path class="cls-75" d="M1814,337.25v39.93a25.61,25.61,0,0,0,25.61,25.6h81.23V311.65h-81.23A25.61,25.61,0,0,0,1814,337.25Z"/><rect class="cls-75" x="1598.23" y="312" width="205.46" height="91.14" rx="25.6"/><rect class="cls-75" x="1708.87" y="210.3" width="205.47" height="91.14" rx="25.6"/><rect class="cls-75" x="5.39" y="253.91" width="205.47" height="91.14" rx="25.6"/><path class="cls-75" d="M105.71,218.1V178.16a25.61,25.61,0,0,0-25.61-25.6H.86V243.7H80.1A25.61,25.61,0,0,0,105.71,218.1Z"/><rect class="cls-75" x="114.46" y="152.56" width="205.47" height="91.14" rx="25.6"/><path class="cls-9" d="M61.71,523.11V483.18a25.61,25.61,0,0,0-25.6-25.61H.86v91.14H36.11A25.6,25.6,0,0,0,61.71,523.11Z"/><path class="cls-9" d="M172.35,421.41V381.48a25.61,25.61,0,0,0-25.6-25.61H.86V447H146.75A25.6,25.6,0,0,0,172.35,421.41Z"/><rect class="cls-75" x="124.85" y="842.24" width="205.47" height="91.14" rx="25.6"/><path class="cls-75" d="M114.52,908.13V868.2a25.6,25.6,0,0,0-25.6-25.6H.86v91.13H88.92A25.6,25.6,0,0,0,114.52,908.13Z"/><rect class="cls-75" x="19.7" y="740.9" width="205.47" height="91.14" rx="25.6"/><rect class="cls-75" x="233.92" y="740.9" width="205.47" height="91.14" rx="25.6"/><rect class="cls-9" x="1317.71" y="108.3" width="205.47" height="91.14" rx="25.6"/><path class="cls-9" d="M1206.22,24.5V64.43a25.6,25.6,0,0,0,25.6,25.6h154.26a25.6,25.6,0,0,0,25.6-25.6V24.5a25.54,25.54,0,0,0-9.48-19.89H1215.7A25.57,25.57,0,0,0,1206.22,24.5Z"/><path class="cls-9" d="M1420.44,24.5V64.43A25.6,25.6,0,0,0,1446,90H1600.3a25.6,25.6,0,0,0,25.6-25.6V24.5a25.57,25.57,0,0,0-9.48-19.89h-186.5A25.57,25.57,0,0,0,1420.44,24.5Z"/><path class="cls-9" d="M1753.54,985.66a25.6,25.6,0,0,0-25.6,25.6v39.93c0,.72,0,1.44.09,2.14l.18-.32c.5-5.68,1.34-9.86,2.33-11.29.85-3.86,1.89-6.14,3-6.14,1.44,0,2.74,3.71,3.68,9.69a36.31,36.31,0,0,1,2.14-9c.88-10.2,2.59-17.12,4.56-17.12s3.71,7.07,4.58,17.45a10.21,10.21,0,0,1,.71,2,.82.82,0,0,1,.61-.4c1.11,0,2.1,3.79,2.75,9.73.83-11.2,2.63-19,4.71-19,1.83,0,3.43,6,4.36,15.07a31.63,31.63,0,0,1,1.14,4.36c.56-9.26,1.8-15.72,3.25-15.72.38,0,.74.45,1.09,1.26.51-1.24,1.08-2,1.69-2,1.57,0,2.93,4.72,3.6,11.6.91-4.87,2.08-7.81,3.36-7.81,1,0,1.86,1.66,2.63,4.55.39-.58.79-.89,1.21-.89s.87.35,1.28,1c.16-.77.33-1.47.5-2.12.66-7,2-11.86,3.63-11.86.71,0,1.37,1,2,2.64.85-3.84,1.89-6.11,3-6.11,1.67,0,3.15,5,4.1,12.78.54-1.2,1.12-1.87,1.73-1.87,1.59,0,3,4.52,4,11.63a15.3,15.3,0,0,1,1.42-3.93c.6-13.91,2.61-24.12,5-24.12,1.81,0,3.4,5.87,4.33,14.76.39-.68.82-1.06,1.26-1.06,1.87,0,3.44,6.68,3.91,15.76.39-1,.81-1.51,1.26-1.51.68,0,1.32,1.27,1.86,3.47,1-6.33,2.28-10.28,3.77-10.28a.9.9,0,0,1,.48.15c.69-2.16,1.47-3.37,2.29-3.37s1.77,1.49,2.51,4.11a5.54,5.54,0,0,1,.46.78c.85-10.73,2.61-18.09,4.64-18.09,2.64,0,4.83,12.57,5.14,28.8a153.57,153.57,0,0,1,.95,18.08c0,1.78,0,3.51-.07,5.19a1.14,1.14,0,0,1,.72-.32.9.9,0,0,1,.38.1c.33-16.1,2.51-28.54,5.14-28.54,1.65,0,3.11,4.85,4.06,12.41a1.15,1.15,0,0,1,.8-.39.8.8,0,0,1,.33.08v0c0-11.8,1.82-21.36,4.06-21.36s4.06,9.56,4.06,21.36c0,3.21-.14,6.24-.38,9,.75-3.55,1.65-5.85,2.63-6.42.89-9.84,2.57-16.46,4.49-16.46,2.15,0,4,8.25,4.78,20a.72.72,0,0,1,.45.24c0-1.26,0-2.53,0-3.82,0-18.16,2.32-32.88,5.19-32.88,2,0,3.71,7.07,4.58,17.46,1.49,2.88,2.58,12,2.58,22.81,0,1.78,0,3.5-.09,5.17.28,1.22.53,2.61.77,4.14h.45c-.08-2.23-.12-4.55-.12-6.92,0-18.16,2.32-32.88,5.19-32.88s5.19,14.72,5.19,32.88v.29a.08.08,0,0,1,0-.05c0-.91,0-1.82,0-2.75,0-14.72,1.6-26.65,3.57-26.65s3.49,11.38,3.56,25.62a14.29,14.29,0,0,1,.85,2.21c.12-.59.24-1.15.37-1.67.66-13.37,2.63-23.08,5-23.08,1,0,1.89,1.71,2.67,4.68h0c.93,0,1.81,1.56,2.56,4.27.29-10.32,2-18.25,4-18.25,1,0,2,2.06,2.7,5.42V988.48a25.5,25.5,0,0,0-11.68-2.82Z"/></g></g></svg>